<?xml version="1.0" encoding="utf-8"?>
<!-- Generator: Adobe Illustrator 21.0.2, SVG Export Plug-In . SVG Version: 6.00 Build 0)  -->
<svg version="1.1" id="Layer_1" xmlns="http://www.w3.org/2000/svg" xmlns:xlink="http://www.w3.org/1999/xlink" x="0px" y="0px"
	 viewBox="0 0 1078.8 946.6" style="enable-background:new 0 0 1078.8 946.6;" xml:space="preserve">
<style type="text/css">
	.st0{opacity:0.5;}
	.st1{fill:url(#SVGID_1_);}
	.st2{opacity:0.3;fill:#23211D;}
	.st3{opacity:0.26;fill:#232323;}
	.st4{opacity:0.25;fill:#9B9B9B;}
	.st5{opacity:0.25;fill:#CECECE;}
	.st6{opacity:0.48;fill:#23211D;}
	.st7{fill:url(#SVGID_2_);}
	.st8{fill:#F9F6BD;}
	.st9{fill:#595959;}
	.st10{opacity:0.42;fill:#CECECE;}
	.st11{opacity:9.000000e-02;fill:#FFFFFF;}
	.st12{display:none;opacity:3.000000e-02;fill:#F7BFD0;}
	.st13{opacity:0.17;}
	.st14{fill:#232323;}
	.st15{opacity:0.26;fill:#777777;}
</style>
<g>
	<g>
		<path class="st0" d="M45.7,9.1c0,0-40.6,39.2-40.6,45.2c0,6-7.9,839.4-4.2,848.4c3.7,9,38.7,41.9,45.8,42.6
			c11.1,1,982.3,2.5,994.4-0.1c12.1-2.6,37.5-41.3,37.5-41.3s-4.9-842.3-9.8-851.1c-4.8-8.7-40.1-44.6-42.8-44.6
			C1023.5,8.2,57.5,2.4,45.7,9.1z"/>
		<linearGradient id="SVGID_1_" gradientUnits="userSpaceOnUse" x1="537.699" y1="1161.8202" x2="543.9689" y2="-114.3282">
			<stop  offset="0" style="stop-color:#484648"/>
			<stop  offset="1" style="stop-color:#6E6A6E"/>
		</linearGradient>
		<path class="st1" d="M49.7,3.2c0,0-39.1,38.9-39.1,44.9c0,6-7.6,828.2-4,837.1c3.5,8.9,37.3,41.7,44.2,42.3
			c10.7,1,974.6,2.4,986.2-0.1c11.7-2.6,36.2-41,36.2-41s-4.7-831.1-9.4-839.8c-4.7-8.7-38.6-44.3-41.3-44.3
			C1019.8,2.3,61.1-3.5,49.7,3.2z"/>
		<path class="st2" d="M1039,926.7l-22.2-41.8l-13.8-5.2l-919.3-3.2l-9.6,8.8L49,927c0.7,0.3,1.3,0.5,1.7,0.6
			c10.7,1,974.6,2.4,986.2-0.1C1037.6,927.3,1038.3,927.1,1039,926.7z"/>
		<path class="st3" d="M54.8,97.1c-4.4-31-34.5-33.7-44.7-33.7c-0.2,5.1-0.4,11.2-0.7,18c6.4-0.4,15.3,0.9,23,7.4
			c12.6,10.7,6.8,47.7-12.6,56.4c-4.4,2-8.6,2.8-12.6,2.9c-0.1,1.8-0.1,3.6-0.2,5.4C35.7,158.5,60,133.6,54.8,97.1z"/>
		<path class="st3" d="M25.2,104.4c-2.2-9.2-9.9-12.8-16-14.2c-0.1,2.3-0.2,4.7-0.3,7.1c0.4,0.1,0.8,0.2,1.2,0.3
			c10.7,2.9,12.6,21.4,3.4,27.2c-2,1.3-3.9,1.9-5.6,2.2c-0.1,2.2-0.1,4.5-0.2,6.7C18.5,133.5,28.8,119.4,25.2,104.4z"/>
		<path class="st4" d="M45.1,60.7l986-2.9c0,0,20.6-9.1,33-10.3c-0.1-0.3-0.2-0.6-0.3-0.8c-4.7-8.7-38.6-44.3-41.3-44.3
			c-2.6,0-961.4-5.8-972.8,0.9c0,0-33.5,33.3-38.4,43.1L45.1,60.7z"/>
		<path class="st5" d="M1022.5,2.3c-2.6,0-957.3-5.7-972.3,0.7l16.3,30.9L66,36.8l933.4,2.9l4.4-9.7l19.8-27.1
			C1023.1,2.5,1022.7,2.3,1022.5,2.3z"/>
		<path class="st3" d="M489,27.4c-2.8,1.4,0.5,6.3,5.2,10.8l16.4,0.1c7.1-14,37.5-40.4,70.4-37.6c35.7,3.1,44,33.6,45,37.9l30.4,0.1
			c-0.7-8.2-6.2-24.3-35.2-38.2c-34.3-0.1-69.2-0.2-104-0.3C498.4,12.1,489,27.4,489,27.4z"/>
		<path class="st3" d="M572.6,7.3c-27.9-2.5-29.8,20-29.1,31l50.7,0.2C597.8,25.9,597.1,9.6,572.6,7.3z"/>
		<path class="st6" d="M42.6,60.5c0,0-6.4,801.4,1.3,809.6c7.7,8.2,22.7,13.6,36.7,17.3c14,3.7,925.4,4.4,936.1-2.6
			c10.7-7,26.5-18.8,23.8-22.8c-2.7-4.1,3.8-800.8-10.7-814.9c-14.6-14.2-23.4-17.1-37-19.5c-13.7-2.4-915.9-3.9-928,0.6
			C52.5,32.7,40.6,56.2,42.6,60.5z"/>
		<linearGradient id="SVGID_2_" gradientUnits="userSpaceOnUse" x1="539.6962" y1="905.5687" x2="542.0433" y2="27.7616">
			<stop  offset="4.157042e-07" style="stop-color:#58575A"/>
			<stop  offset="1" style="stop-color:#3E3A3B"/>
		</linearGradient>
		<path class="st7" d="M50.2,64.7c0,0-4.9,786.4,2.3,794.1c7.1,7.7,20.1,16.6,33.2,20.1c13,3.5,914.8,4.1,924.8-2.4
			c10-6.5,17.6-9.2,20.7-26.2c1.5-11.7,5-785-8.5-798.1c-13.6-13.2-21.8-16-34.5-18.2c-12.8-2.2-906-3.6-917.3,0.6
			C59.4,38.7,48.4,60.7,50.2,64.7z"/>
		<path class="st3" d="M956.9,89.1c26-55,5.4-23.6,5.4-23.6s-9.4,47.6-59.4,44.6c-45.9-2.8-89.3-45.2-79.8-77.7c-4.2,0-8.4,0-12.6,0
			c-3.2,11.6-5.5,32.8,8.4,56.7C839.9,125.1,930.9,144.1,956.9,89.1z"/>
		<path class="st3" d="M855.7,32.6c0.3,7.6,2.3,18.2,9.2,30.5c14,25,63,41,84,23s3-33,3-33s-5,30-38,28c-27-1.6-44.7-28.8-44.1-48.5
			C865.2,32.7,860.5,32.6,855.7,32.6z"/>
		<path class="st3" d="M918.9,59.1c19.3,7.2,29.5-12.7,26.6-25.9c-12.1-0.1-26.4-0.2-42.6-0.3C902.6,42.2,905.3,54,918.9,59.1z"/>
		<path class="st8" d="M1040.4,521.7c0,0.2,0.1,0.3,0.1,0.4C1040.5,521.9,1040.5,521.8,1040.4,521.7z"/>
		<g>
			<path class="st2" d="M1028.5,856.5l-976,2.3l-12,11.3L6.3,884.3c0.1,0.4,0.2,0.7,0.2,1c3.5,8.9,37.3,41.7,44.2,42.3
				c10.7,1,974.6,2.4,986.2-0.1c11.7-2.6,36.2-41,36.2-41s0-0.2,0-0.7c-14.8-11.1-32.8-24.5-34.2-24.5
				C1036.5,861.3,1028.5,856.5,1028.5,856.5z"/>
			<path class="st2" d="M1031.2,850.3c0.1-0.8,0.2-2,0.3-3.7c-9.2,13-25.6,22.8-54.6,25.4c-77.6,7-893.3-7.8-908.1-13.2
				c-9.3-3.4-16.1-21.3-19.9-34.1c0.5,18.3,1.5,31.9,3.6,34.1c7.1,7.7,20.1,16.6,33.2,20.1c13,3.5,914.8,4.1,924.8-2.4
				C1020.5,870,1028.1,867.3,1031.2,850.3z"/>
			<path class="st9" d="M1040,850.9l0.5,11.2l-8.3,11.5c-4.7,4-10.7,8.1-15.5,11.3c-10.7,7-922.1,6.3-936.1,2.6
				c-13.8-3.7-28.5-8.9-36.3-16.9l-2.5-8.1c-0.2-1.3-0.3-2.8-0.5-4.4c-0.6,0-0.9,0-0.9,0s-0.2,6.8-0.7,8.3
				c-0.5,1.4-21.2,14.5-27.5,14.5c-2.4,0-4.7-0.3-6.5-0.6c0.1,2.6,0.4,4.4,0.6,5.1c0.4,1,1.2,2.4,2.3,3.9c5-7.7,17.2-8.7,27.6-10.8
				c3.7-0.7,6-1.4,7.4-1.8c1.2,0.7,4.8,2.6,9.1,4.7c4,3.2,8.7,7.9,8.1,12.1c-0.8,6.2-10.4,26.4-14.7,32.2c1.9,1.2,3.4,2,4.4,2
				c0.5,0,1.5,0.1,2.8,0.2c6.9-10.7,19.6-29.8,23.4-31.5c5.3-2.4,37.6-1.4,42.9-0.5c1.8,0.3,824.2,3,843.1,2.2
				c21.2-0.8,36.7-3.3,46.7-5.4c3.4,1.2,7.6,3.6,10.9,8.4c5.1,7.3,11.5,20.5,14.4,26.6c0.8-0.1,1.5-0.2,1.9-0.3c2-0.4,4.3-1.9,6.8-4
				c-4-3-11.8-9.7-13.9-18.5c-2.1-8.9-1.4-17.2-0.8-21c3.5-3.5,7.7-8.3,10-13.4c1.2-0.5,2.5-0.7,3.9-0.3c6.2,1.7,23,13.6,28.6,18.8
				c1.1-1.6,1.7-2.5,1.7-2.5s-0.1-2.2-0.2-6.1c-4.1-1.2-10.9-3.3-15.6-5.8C1050.1,870.7,1040,850.9,1040,850.9z"/>
		</g>
		<path class="st10" d="M42.3,68.8c0.2-5.2,0.3-8.3,0.3-8.3c-2-4.3,9.9-27.8,22.1-32.3c12.2-4.5,914.3-3,928-0.6
			c13.7,2.4,22.5,5.3,37,19.5c2.5,2.4,4.3,9,5.7,18.3c0.2-1,0.5-2.1,0.9-3.2c1.5-4.1,20-8.9,28.3-10.9c-0.3-2.4-0.7-4-1-4.7
			c-0.5-0.9-1.3-2.1-2.4-3.6c-6.8,2.9-18.9,6.8-22.2,7.3c-4.6,0.7-18.4-17.8-22.4-21.7c-2.9-2.9,5.4-16.5,9.9-23.2
			c-2.2-2-3.7-3.1-4.2-3.1c-0.3,0-3.1-0.1-7.9-0.2c-2.8,8-6.9,18.9-9,20.6c-3.3,2.6-9.2,1.3-16.5,1.3c-7.2,0-62.5-2.6-64.5-2.6
			c-2,0-823.3,2-831.9,1.3c-8.6-0.7-27-0.7-30.9-8.6c-1.9-3.8-5.3-8.3-8.3-12c-1.8,0.3-3.2,0.7-3.8,1.1c0,0-0.5,0.5-1.3,1.3
			c4.4,8.6,3,28,0.2,34.6c-3.3,7.9-13.2,11.2-21.7,11.2c-5.5,0-11.5-3-15.1-5.1c-0.8,1.3-1.2,2.3-1.2,2.9c0,0.3,0,1.2-0.1,2.6
			c3.4,1.3,8.4,3,13.8,4.8c9.9,3.3,17.1,13.2,17.1,13.2L42.3,68.8z"/>
	</g>
	<path class="st11" d="M988.1,34c-12.8-2.2-906-3.6-917.3,0.6c-11.4,4.2-22.5,26.1-20.6,30.1c0,0-2.1,197.7-1.5,332.3
		c15.3-74,49.7-207.3,102-233.5c73.2-36.6,702.8-32.4,770.4-14.1c49.4,13.4,86.7,115.4,111.5,215c0.2-131-1.6-303.9-10.1-312.1
		C1009.1,39,1000.9,36.2,988.1,34z"/>
	<path class="st5" d="M1032.7,314.7c-0.3-121.3-2.6-255.3-10-262.5c-13.6-13.2-21.8-16-34.5-18.2c-12.8-2.2-906-3.6-917.3,0.6
		c-11.4,4.2-22.5,26.1-20.6,30.1c0,0-0.4,35.8-0.8,87.3c6.2-36.4,15.1-74.1,26.7-82.9c23.9-18.3,256.3-21.1,400-21.1
		s480.3-18.3,515.5,9.9c35.2,28.2,31,160.6,38,225.4C1030.8,294,1031.8,304.8,1032.7,314.7z"/>
	<path class="st12" d="M988.1,34c-2.7-0.5-44.5-0.9-108.9-1.3C842.6,95.9,763.7,179.9,593.8,241C351.2,328.3,153,347,49,431.8
		c0.5,49.8,1.6,84.9,3.5,87c7.1,7.7,20.1,16.6,33.2,20.1c1.9,0.5,22.6,0.9,56.7,1.3c59.3-78.7,156.2-151.9,317.4-162
		c336-21,407.7,39.2,572.6,49.3c0.9-129.4,0.1-365.7-9.8-375.3C1009.1,39,1000.9,36.2,988.1,34z"/>
	<path class="st3" d="M172.2,96c52.3,30.4,137.2-8.6,130.7-63.9c-8.1,0-16.1,0-24,0.1c2.4,9.3,0.7,20.9-9.6,34.8
		c-31.5,42.9-122.1,19.5-130.1-34c-4.2,0-8.2,0.1-12.1,0.1C130.2,53.2,141,77.8,172.2,96z"/>
	<path class="st3" d="M178,53.9c17.4,21.7,72.5,18.8,78.2-7.2c1.2-5.5,0.8-10.3-0.7-14.5c-5.3,0-10.4,0-15.5,0.1
		c-0.5,5.1-3.5,10.3-11.3,14.4c-18.5,9.8-44.3,6.5-48.1-14.1c-3.9,0-7.8,0.1-11.6,0.1C169.4,38.8,171.7,46.1,178,53.9z"/>
	<g class="st13">
		<path class="st14" d="M11.7,409.8c-1.2-2.1-3.2-3.8-5.6-5.2c-0.1,16.9-0.3,32.9-0.4,47.7C16.7,442.8,17,418.6,11.7,409.8z"/>
		<path class="st14" d="M27.2,476.3c5.5-12.2,16.6-57.6,3.3-90.8c-7.4-18.6-17-27.8-23.9-32.4c-0.1,9.6-0.2,19-0.3,28.3
			c9.1,9.6,16.3,22,17.6,31.8c2.2,17.7,2.2,52.1-10,60.9c-2.6,1.9-5.4,3.7-8.3,5.3c0,2.6,0,5.2,0,7.7
			C15.1,485.2,24.7,482,27.2,476.3z"/>
	</g>
	<g>
		<path class="st15" d="M1032,815.5c0.1-6.5,0.2-13.8,0.3-21.8c-16.1-1.1-48.6-5.3-51.5-22.3c-3.3-20.1,12.6-62.5,51.9-50.6
			c0-11.7,0.1-23.8,0.1-36.1c-1,0-2,0-3,0c0,0-47.1-3.8-71.6,41.5C934.4,769.9,979.5,820.7,1032,815.5z"/>
		<path class="st15" d="M1032.6,732.9c-7.1-0.8-19.8,0.6-19.1,20.7c0.7,18.4,8.8,27.7,18.8,30
			C1032.5,768.4,1032.6,751.3,1032.6,732.9z"/>
		<path class="st15" d="M174.8,880.5c8.3-28.9-20.6-87-75-95.4c-19.9-3.1-36.9-1.4-50.6,2.3c0.1,5.9,0.2,11.6,0.3,16.9
			c10.7-7.1,26.8-13.3,48.9-10.5c40.8,5.3,64.8,58.3,52.7,86.4C158.4,880.4,166.3,880.5,174.8,880.5z"/>
		<path class="st15" d="M129.5,880.1c12.3-23.8-8.7-52.1-38.4-61.6c-18.6-6-32.2,0.3-41.1,7.8c0.1,4.5,0.3,8.7,0.5,12.3
			c4.5-4.2,11.7-5.7,23.3-5.7c26.1,0,39.1,13,42,31.9c0.7,4.3-0.7,9.5-3.2,15C117.5,879.9,123.2,880,129.5,880.1z"/>
		<path class="st15" d="M76.6,848.9c-8.5,1.2-12.6,9.3-14.5,18.2c6.6,4.9,14.7,9.3,22.9,11.6C97.7,866.6,93.2,846.6,76.6,848.9z"/>
		<path class="st15" d="M675.3,717.6c0,0-100-7.4-116.6,68.5C542,862,643.9,900.9,712.4,875C780.9,849.1,786.4,721.3,675.3,717.6z
			 M704.5,846.8c-51.2,19.4-127.2-9.7-114.8-66.4c12.4-56.7,87.1-51.2,87.1-51.2C759.8,732,755.7,827.5,704.5,846.8z"/>
		<path class="st15" d="M702.7,752.4c-20.7-12.2-42-6.8-50.1-4.1c0,0-43.8,13.1-32.9,44.2c10.8,31.1,60,42.9,82.1,25.7
			S723.5,764.6,702.7,752.4z M693.6,802.3c-15.2,11.8-49.1,3.7-56.6-17.7c-7.5-21.5,22.7-30.5,22.7-30.5c5.6-1.9,20.2-5.6,34.5,2.8
			C708.6,765.2,708.9,790.4,693.6,802.3z"/>
	</g>
</g>
</svg>
