<?xml version="1.0" encoding="utf-8"?>
<!-- Generator: Adobe Illustrator 21.0.2, SVG Export Plug-In . SVG Version: 6.00 Build 0)  -->
<svg version="1.1" id="Layer_2" xmlns="http://www.w3.org/2000/svg" xmlns:xlink="http://www.w3.org/1999/xlink" x="0px" y="0px"
	 viewBox="0 0 573.2 381.6" style="enable-background:new 0 0 573.2 381.6;" xml:space="preserve">
<style type="text/css">
	.Graphic_x0020_Style{fill:url(#SVGID_1_);}
	.Graphic_x0020_Style_x0020_2{opacity:0.55;fill:url(#SVGID_2_);enable-background:new    ;}
	.st0{opacity:0.78;fill:#35322C;}
	.st1{opacity:0.48;fill:#23211D;}
	.st2{opacity:0.8;fill:#8C8967;}
	.st3{fill:#424234;}
	.st4{fill:url(#SVGID_3_);}
	.st5{opacity:0.25;fill:#F9F6BD;}
	.st6{opacity:0.3;fill:#23211D;}
	.st7{fill:url(#SVGID_4_);}
	.st8{filter:url(#Adobe_OpacityMaskFilter);}
	.st9{filter:url(#Adobe_OpacityMaskFilter_1_);}
	.st10{mask:url(#SVGID_5_);fill:url(#SVGID_6_);}
	.st11{opacity:0.67;fill:url(#SVGID_7_);}
	.st12{opacity:0.44;fill:#F9FFAE;}
	.st13{filter:url(#Adobe_OpacityMaskFilter_2_);}
	.st14{filter:url(#Adobe_OpacityMaskFilter_3_);}
	.st15{mask:url(#SVGID_8_);fill:url(#SVGID_9_);}
	.st16{opacity:0.7;fill:url(#SVGID_10_);}
	.st17{fill:#FFFFFF;}
	.st18{opacity:0.24;fill:#F1F70D;}
	.st19{fill:#8C8967;}
	.st20{opacity:0.42;fill:#F9F6BD;}
	.st21{opacity:0.26;fill:#443419;}
	.st22{opacity:0.53;fill:#261C0E;}
	.st23{opacity:0.44;fill:#261C0E;}
	.st24{fill:#2B4706;}
	.st25{opacity:0.65;}
	.st26{fill:#F4EA71;}
	.st27{fill:url(#SVGID_11_);}
	.st28{fill:url(#SVGID_12_);}
	.st29{filter:url(#Adobe_OpacityMaskFilter_4_);}
	.st30{filter:url(#Adobe_OpacityMaskFilter_5_);}
	.st31{mask:url(#SVGID_13_);fill:url(#SVGID_14_);}
	.st32{opacity:0.67;fill:url(#SVGID_15_);}
	.st33{filter:url(#Adobe_OpacityMaskFilter_6_);}
	.st34{filter:url(#Adobe_OpacityMaskFilter_7_);}
	.st35{mask:url(#SVGID_16_);fill:url(#SVGID_17_);}
	.st36{opacity:0.55;fill:url(#SVGID_18_);enable-background:new    ;}
	.st37{fill:#4C3306;}
</style>
<radialGradient id="SVGID_1_" cx="-356" cy="-299.8046" r="1" gradientUnits="userSpaceOnUse">
	<stop  offset="0" style="stop-color:#E9D000"/>
	<stop  offset="0.3289" style="stop-color:#EBCC02"/>
	<stop  offset="0.658" style="stop-color:#F3C009"/>
	<stop  offset="0.9863" style="stop-color:#FEAC14"/>
	<stop  offset="1" style="stop-color:#FFAB15"/>
</radialGradient>
<linearGradient id="SVGID_2_" gradientUnits="userSpaceOnUse" x1="-356" y1="-299.8046" x2="-356" y2="-300.8046">
	<stop  offset="1.807250e-02" style="stop-color:#6A5B00"/>
	<stop  offset="1" style="stop-color:#E9BD00"/>
</linearGradient>
<g>
	<path class="st0" d="M1.6,101.5l2.2-25L44,33.1c0,0,38.4-21.8,64.7-21.8s356-5.8,376.2-1.5s62.7,34.9,62.7,34.9
		s26.3,43.7,22.2,55.3C565.9,111.7,1.6,101.5,1.6,101.5z"/>
	<path class="st1" d="M0,92.7l1.6,8.9l9.1,39.6c117.5,0.3,334.5,0.7,557.1,0.8c3.3-13.6,8.6-39.9,3-49.9C562.9,78.4,0,92.7,0,92.7z"
		/>
	<path class="st2" d="M108.8,11.3c26.3,0,356-5.8,376.2-1.5s62.7,34.9,62.7,34.9s13.7,22.7,19.8,39.7l0.8,0c0,0-11.1-34.1-11.8-39.2
		c-0.8-5.1-12.6-15.3-30-24.4c-17.4-9.1-30-18.2-51.3-18.7C453.8,1.6,183.8-3,118.3,3.3C52.7,9.5,48,22,38.5,26
		C30.2,29.5,9.9,65.5,4.9,74.5c-0.7,1.3-1.1,2.1-1.1,2.1L44,33.1C44,33.1,82.5,11.3,108.8,11.3z"/>
</g>
<g>
	<path class="st3" d="M461.2,27.5c0,0-363-1.4-370.1,2.2C86.2,32.2,41.6,56.2,39.6,58c-2,1.8-27.4,33.7-27.4,41.1
		c0,7.4,13.9,51.1,21.8,56.3c7.9,5.3,63.1,31.1,77,33.4c13.9,2.4,361,2.8,375.3-2.2c14.3-5,56.8-33.9,63.9-42.9
		c7.1-9,9.1-43.4,7.9-51.3c-1.2-7.9-26.3-38.3-27.4-39C492.3,30.1,461.2,27.5,461.2,27.5z"/>
	<linearGradient id="SVGID_3_" gradientUnits="userSpaceOnUse" x1="286.0129" y1="197.3184" x2="284.9416" y2="13.0538">
		<stop  offset="0" style="stop-color:#5C594A"/>
		<stop  offset="1" style="stop-color:#9E8080"/>
	</linearGradient>
	<path class="st4" d="M459.1,21.8c0,0-358.6-1.4-365.6,2.2c-4.8,2.5-48.9,26.5-50.8,28.3c-2,1.8-27.1,33.7-27.1,41.1
		c0,7.4,13.7,51.1,21.6,56.3c7.8,5.3,62.4,31.1,76.1,33.4c13.7,2.4,356.6,2.8,370.7-2.2c14.1-5,56.1-33.9,63.2-42.9
		c7.1-9,9-43.4,7.8-51.3c-1.2-7.9-26-38.3-27.1-39C489.8,24.3,459.1,21.8,459.1,21.8z"/>
	<path class="st5" d="M87.2,99.5c13.7,0,434.6-9.1,434.6-9.1s16.9-3.6,32-6.8c-5.1-10.8-25-35.1-25.9-35.7
		c-38.1-23.5-68.8-26.1-68.8-26.1S100.5,20.4,93.5,24c-4.8,2.5-48.9,26.5-50.8,28.3C40.8,54,19.4,81.1,16,91.2
		C31.7,93.4,76,99.5,87.2,99.5z"/>
	<path class="st5" d="M502.9,62.4l24.7-14.7c-37.9-23.3-68.5-25.9-68.5-25.9S100.5,20.4,93.5,24c-4.2,2.2-38,20.5-48.1,26.5
		c7.3,3.2,15.8,6.3,23.9,8.1C90.4,63.1,502.9,62.4,502.9,62.4z"/>
	<path class="st6" d="M502.9,130.5c0,0-411.5-6.8-419.9-5.3c-6.8,1.2-36,17.1-47.2,23.3c0.5,0.5,0.9,0.9,1.3,1.2
		c7.8,5.3,62.4,31.1,76.1,33.4c13.7,2.4,356.6,2.8,370.7-2.2c13.3-4.7,51.4-30.7,61.6-41.1L502.9,130.5z"/>
	<path class="st6" d="M113.2,183.1c13.4,2.3,338,2.8,368.8-1.8c-9.9-16.7-30.7-35.7-30.7-35.7s-279.9-11.4-299.9-3.8
		c-15.1,5.7-32.1,29.7-39.4,41C112.4,183,112.8,183.1,113.2,183.1z"/>
	<path class="st1" d="M97.5,44.2c-20.8,3.2-49.9,18-54.9,51.2c-5,33.3,18.1,53.2,84.2,59.1c81.8,7.2,327.5,0.3,329.6,0.3
		c2.1,0,57.1-6.2,68.5-33.1c11.4-26.9-2.9-75.1-69.9-80.6C387.8,35.7,185.1,30.7,97.5,44.2z"/>
	
		<radialGradient id="SVGID_4_" cx="363.4579" cy="16377.9355" r="186.6759" gradientTransform="matrix(1.3775 -7.300000e-03 0 0.3345 -218.2946 -5391.7837)" gradientUnits="userSpaceOnUse">
		<stop  offset="0" style="stop-color:#D9F524"/>
		<stop  offset="0.1437" style="stop-color:#D5F425"/>
		<stop  offset="0.2875" style="stop-color:#C9F027"/>
		<stop  offset="0.4316" style="stop-color:#B5EB2B"/>
		<stop  offset="0.5758" style="stop-color:#99E231"/>
		<stop  offset="0.7203" style="stop-color:#74D838"/>
		<stop  offset="0.8628" style="stop-color:#49CB40"/>
		<stop  offset="1" style="stop-color:#17BD4A"/>
	</radialGradient>
	<path class="st7" d="M104.2,47.8c-20.1,3-48.2,16.7-53,47.7c-4.8,31,17.4,49.6,81.2,55c78.9,6.7,315.7,0.3,317.8,0.3
		c2.1,0,55-5.8,66-30.8c11-25-2.7-69.9-67.4-75C384.2,39.8,188.7,35.2,104.2,47.8z"/>
	<defs>
		<filter id="Adobe_OpacityMaskFilter" filterUnits="userSpaceOnUse" x="63.4" y="42.9" width="453.1" height="69.6">
			<feColorMatrix  type="matrix" values="1 0 0 0 0  0 1 0 0 0  0 0 1 0 0  0 0 0 1 0"/>
		</filter>
	</defs>
	<mask maskUnits="userSpaceOnUse" x="63.4" y="42.9" width="453.1" height="69.6" id="SVGID_5_">
		<g class="st8">
			<defs>
				<filter id="Adobe_OpacityMaskFilter_1_" filterUnits="userSpaceOnUse" x="63.4" y="42.9" width="453.1" height="69.6">
					<feFlood  style="flood-color:white;flood-opacity:1" result="back"/>
					<feBlend  in="SourceGraphic" in2="back" mode="normal"/>
				</filter>
			</defs>
			<mask maskUnits="userSpaceOnUse" x="63.4" y="42.9" width="453.1" height="69.6" id="SVGID_5_">
				<g class="st9">
				</g>
			</mask>
			<linearGradient id="SVGID_6_" gradientUnits="userSpaceOnUse" x1="288.6071" y1="20.2364" x2="290.9263" y2="140.0638">
				<stop  offset="0" style="stop-color:#FFFFFF"/>
				<stop  offset="1" style="stop-color:#000000"/>
			</linearGradient>
			<path class="st10" d="M446.2,48.2C382,43,187.8,38.4,103.9,51c-12.6,1.9-28.3,8.1-39.4,20.1c-2.9,7.4-0.3,13.6,14.2,15.6
				c43.9,6.1,78.4-19.7,197.5-22.7c110.3-2.8,217.8,15.2,239.9,48.5C519.6,87.1,502,52.7,446.2,48.2z"/>
		</g>
	</mask>
	<linearGradient id="SVGID_7_" gradientUnits="userSpaceOnUse" x1="288.6071" y1="20.2364" x2="290.9263" y2="140.0638">
		<stop  offset="0" style="stop-color:#FFFFFF"/>
		<stop  offset="1" style="stop-color:#A8F524"/>
	</linearGradient>
	<path class="st11" d="M446.2,48.2C382,43,187.8,38.4,103.9,51c-12.6,1.9-28.3,8.1-39.4,20.1c-2.9,7.4-0.3,13.6,14.2,15.6
		c43.9,6.1,78.4-19.7,197.5-22.7c110.3-2.8,217.8,15.2,239.9,48.5C519.6,87.1,502,52.7,446.2,48.2z"/>
	<path class="st12" d="M285.1,50.2c0,0-97.9,1.5-90.5,20.4c7.4,18.9,133.6,15.9,167.3,31.8c33.7,15.9,95.8,15.9,116.8,1.5
		C499.7,89.6,487.1,46.5,285.1,50.2z"/>
	<defs>
		<filter id="Adobe_OpacityMaskFilter_2_" filterUnits="userSpaceOnUse" x="50.8" y="107.7" width="466.6" height="45.9">
			<feColorMatrix  type="matrix" values="1 0 0 0 0  0 1 0 0 0  0 0 1 0 0  0 0 0 1 0"/>
		</filter>
	</defs>
	<mask maskUnits="userSpaceOnUse" x="50.8" y="107.7" width="466.6" height="45.9" id="SVGID_8_">
		<g class="st13">
			<defs>
				<filter id="Adobe_OpacityMaskFilter_3_" filterUnits="userSpaceOnUse" x="50.8" y="107.7" width="466.6" height="45.9">
					<feFlood  style="flood-color:white;flood-opacity:1" result="back"/>
					<feBlend  in="SourceGraphic" in2="back" mode="normal"/>
				</filter>
			</defs>
			<mask maskUnits="userSpaceOnUse" x="50.8" y="107.7" width="466.6" height="45.9" id="SVGID_8_">
				<g class="st14">
				</g>
			</mask>
			<linearGradient id="SVGID_9_" gradientUnits="userSpaceOnUse" x1="284.1149" y1="85.0737" x2="284.1149" y2="189.5757">
				<stop  offset="1.807230e-02" style="stop-color:#000000"/>
				<stop  offset="1" style="stop-color:#FFFFFF"/>
			</linearGradient>
			<path class="st15" d="M450.2,150.9c2.1,0,55-5.8,66-30.8c0.4-1,0.8-2,1.2-3c-49.8,23.3-113.7,6.9-173.4-4
				c-66.3-12.1-221,12.1-261,8.3c-15.2-1.4-25.4-7.2-32.2-13.7c2.6,23.7,26.7,38.1,81.6,42.8C211.3,157.3,448.1,150.9,450.2,150.9z"
				/>
		</g>
	</mask>
	<linearGradient id="SVGID_10_" gradientUnits="userSpaceOnUse" x1="284.1149" y1="85.0737" x2="284.1149" y2="189.5757">
		<stop  offset="1.807230e-02" style="stop-color:#00C433"/>
		<stop  offset="1" style="stop-color:#306E1C"/>
	</linearGradient>
	<path class="st16" d="M450.2,150.9c2.1,0,55-5.8,66-30.8c0.4-1,0.8-2,1.2-3c-49.8,23.3-113.7,6.9-173.4-4
		c-66.3-12.1-221,12.1-261,8.3c-15.2-1.4-25.4-7.2-32.2-13.7c2.6,23.7,26.7,38.1,81.6,42.8C211.3,157.3,448.1,150.9,450.2,150.9z"/>
	<path class="st17" d="M271.4,48c0,0-54.7,0-32.6,5.3c22.1,5.3,68.4,12.1,90.5,6.1C351.4,53.3,313.5,44.9,271.4,48z"/>
	<path class="st17" d="M374.5,51c0,0-24.2,1.5-14.7,7.6c9.5,6.1,41,6.8,49.5,6.1C417.7,63.9,416.6,49.5,374.5,51z"/>
	<path class="st18" d="M450.2,150.9c0.7,0,7.7-0.7,17-2.7c-33.4-0.4-73.3-6.5-112.7-13.1c-54.7-9.1-129.4-7.6-192.6,3.8
		c-28.9,5.2-53.6,5.6-71.9,4.6c11.4,3.3,25.4,5.7,42.4,7.1C211.3,157.3,448.1,150.9,450.2,150.9z"/>
	<path class="st18" d="M464,142.6c-44.2,4.5-180,3.8-248.4,3.8c-68.4,0-117.9-2.3-145.2-15.9c-12.5-6.2-17.8-17.1-19.8-27
		c0.1,26.2,23.7,42.1,81.8,47.1c78.9,6.7,315.7,0.3,317.8,0.3c2.1,0,55-5.8,66-30.8c0.5-1.2,1-2.5,1.5-3.9
		C505.5,128.2,487,140.3,464,142.6z"/>
	<path class="st19" d="M529.2,130.7c-1.4-2.2-2.9-6.7-3.5-11.2c-0.3,0.8-0.6,1.6-0.9,2.3c-11.4,26.9-66.3,33.1-68.5,33.1
		c-2.1,0-247.8,6.9-329.6-0.3c-53.3-4.7-78.6-18.6-83.8-41.2c0.5,3.8,1.7,10.7,5.2,14.9c4.9,6-2.5,11-5.4,11.7
		c-1.7,0.4-7,1.4-11,2.2c2,3.8,3.9,6.5,5.5,7.6c0.7,0.5,1.8,1.1,3.2,1.9c2.3-4.4,6.7-10.2,13.6-11c11.3-1.4,15.7,8.5,41.8,12.7
		c26,4.2,29.5,5.3,28,8.5c-1.2,2.7-9,15.7-14.1,20.5c1.4,0.4,2.6,0.7,3.5,0.9c0.9,0.2,3.4,0.3,7.1,0.5c2.5-7,9.2-23.9,16.2-23.9
		c8.8,0,103.7,2.1,139.6,2.5c35.9,0.4,156.8-1.8,168.1-1.8c11.3,0,25.1,6.7,27,13.1c1,3.2,0.4,6.4-0.5,8.8
		c7.2-0.4,11.9-0.8,13.3-1.3c1.7-0.6,3.9-1.6,6.4-2.9c-5.4-3.8-17.6-13-15.7-17.7c2.5-6,3.4-5.3,20.6-11.7
		c17.2-6.4,21.1-10.6,29-10.6c5.2,0,11.2,3.8,14.5,7.7c3.9-3.2,6.8-5.9,8.3-7.7c0.9-1.1,1.7-2.6,2.4-4.4
		C543.7,133.3,530.7,133.1,529.2,130.7z"/>
	<path class="st20" d="M555,86.8c-0.3-1.7-1.6-4.5-3.6-7.7c-6.9,3.9-18.7,9-23.4,1.6c-6.8-10.8-16.4-17.7-13-20.7
		c2.7-2.3,9.8-7.5,15.3-9.5c-1.3-1.5-2.1-2.5-2.3-2.6c-1.5-0.9-3-1.8-4.5-2.7c-5.2,4-13.6,9.5-19.4,7.9
		c-8.9-2.5-30.8-13.3-41.1-14.8c-7.8-1.1-0.2-9.4,6.4-14.8c-4.9-1.1-8.2-1.5-9.5-1.6c-0.4,3.9-2.1,8.3-7.1,11c-11,5.9-40.4,1.5-89,0
		c-48.6-1.5-186.2,1-198.5,1s-45.2,3.9-49.3,1.5c-2.5-1.5-9-7-13.4-12.1c-5.2,0.2-8.4,0.5-8.9,0.8c-0.2,0.1-0.4,0.2-0.6,0.3
		l12.7,12.5c0,0-5.5,3.9-8.2,4.4c-2.7,0.5-26.7,7.9-30.1,11.8c0,0-12.2-1.6-16.8-5.4c-4.1,2.3-7,4.1-7.7,4.6
		c3.2,0.9,6.1,2.2,7.4,4.3c3.4,5.4-4.8,12.8-7.5,21.7C39.8,87,39.1,90,35,89.5c-2.9-0.3-11.9-1.2-17-2.9c-1.6,2.9-2.5,5.3-2.5,6.7
		c0,0.9,0.2,2.4,0.6,4.3c4.9-0.3,16.1-0.9,18.2,0.7c1.4,1,4.6,2.7,7.6,4.2c0.1-2.3,0.3-4.6,0.6-7.1c5-33.3,34.1-48,54.9-51.2
		c87.7-13.5,290.4-8.6,357.4-3c50.5,4.2,71.1,32.5,73.3,57.7c1-1.9,3.3-4.4,8-6.5c5.9-2.6,13.6-5.4,18.9-5C555,87.2,555,87,555,86.8
		z"/>
	<path class="st21" d="M176.7,33.2c3,0.5,6,0.8,8.9,1c21.3,1.6,39.6-3,43.5-12.5c0,0,0,0,0-0.1c-3.7,0-7.3,0-10.9,0
		c-4,3.8-10.9,7.1-22.9,7.1c-15,0-23.6-3-28.3-6.8c-5.1,0-10,0.1-14.7,0.1C156.6,26.4,163.9,31.2,176.7,33.2z"/>
	<path class="st21" d="M203.7,21.7c-8.2,0-16.1,0.1-23.7,0.1c2,1.2,4.9,2.4,8.9,3.2C196.8,26.6,201.4,24.5,203.7,21.7z"/>
	<path class="st22" d="M324.6,166c-28.5,2-43.2,13.8-48.2,18.9c6.1,0,12.2,0,18.4,0c5.2-12.4,38.9-15.7,59.3-12.6
		c12.9,1.9,21.1,7.7,25.5,12.1c5.3-0.1,10.5-0.1,15.5-0.2C390.8,176.6,356.9,163.7,324.6,166z"/>
	<path class="st22" d="M360.6,184.5c-1.7-3.9-14.9-8.4-28.4-6.1c-8.3,1.5-13.6,4.1-16.9,6.3C330.7,184.7,345.9,184.6,360.6,184.5z"
		/>
	<path class="st21" d="M541.3,64.5c-2-2.7-4-5.3-5.9-7.6c-2.9,0-6.1-0.4-9.5-1.2c-13-3.4-22.5-14-21.9-20.4c0,0,0,0,0-0.1
		c-4.6-2.1-8.9-3.8-13-5.3c0,3.4,1.9,8.4,8.8,15.1C513.9,58.7,527.4,66.3,541.3,64.5z"/>
	<path class="st21" d="M529.7,49.8c-1-1.2-1.7-1.9-1.8-2c-4.9-3-9.7-5.7-14.3-8.1c0,1.7,0.8,4,3.4,6.5
		C521.2,50.4,525.7,51,529.7,49.8z"/>
	<path class="st23" d="M74.2,151.4c-16.1-3.1-25.8-0.9-31.3,1.7c2.6,1.4,5.8,3,9.3,4.7c6.5-4.1,14.4-3.9,24.3,0.8
		c9.8,4.7,10.9,11.5,10.6,15.2c4.6,1.9,8.9,3.7,12.8,5.2C103,171.4,99,156.1,74.2,151.4z"/>
	<path class="st21" d="M350.1,36.5c5.8-4,16.7-7.6,28.6-6.8c10.3,0.7,17.5,4.8,21.8,8.4c5.4,0.2,10.6,0.5,15.6,0.7
		c-5.2-7.3-28.4-17.5-52.8-15c-20.5,2-32,8.4-37.3,12.2C334.3,36.1,342.3,36.3,350.1,36.5z"/>
	<path class="st21" d="M364.5,37.8c0,0,1.8-5.1,10.1-4.7c8.3,0.4,14.8,5.1,12.4,6.4C384.6,40.8,364.5,37.8,364.5,37.8z"/>
	<path class="st21" d="M34.8,62c-3.2,4.2-6.9,9.2-10.2,14c1.2,0.4,2.4,1,3.6,1.5c12.7,5.9,3,23.7-0.7,27c-1.7,1.5-5.3,2.6-8.7,3.4
		c0.8,2.7,1.7,5.5,2.6,8.5c0,0,0.1,0,0.1,0C35,113.8,36.5,104,38,83C38.6,74.3,37,67.3,34.8,62z"/>
</g>
<g>
	<path class="st24" d="M126.3,122.8c-8.1,0-14.3-2.3-18.5-6.8s-6.4-10.9-6.4-19.2c0-4.1,0.6-7.8,1.9-11.1c1.3-3.2,3.1-6,5.3-8.2
		c2.3-2.2,4.9-3.9,8.1-5.1c3.1-1.2,6.5-1.7,10.2-1.7c2.1,0,4,0.2,5.8,0.5c1.7,0.3,3.2,0.7,4.5,1.1c1.3,0.4,2.4,0.8,3.2,1.3
		c0.9,0.4,1.5,0.8,1.9,1l-3.2,9.1c-1.5-0.8-3.3-1.5-5.4-2.1c-2-0.6-4.4-0.9-6.9-0.9c-1.7,0-3.4,0.3-5.1,0.9
		c-1.7,0.6-3.1,1.5-4.4,2.8c-1.3,1.3-2.3,2.9-3.1,4.9c-0.8,2-1.2,4.5-1.2,7.3c0,2.3,0.3,4.5,0.8,6.4c0.5,2,1.3,3.7,2.4,5.1
		c1.1,1.4,2.6,2.6,4.4,3.4c1.8,0.8,4,1.3,6.6,1.3c1.6,0,3.1-0.1,4.4-0.3c1.3-0.2,2.4-0.4,3.5-0.7c1-0.3,1.9-0.6,2.7-0.9
		c0.8-0.3,1.5-0.6,2.1-0.9l3.1,9c-1.6,1-3.8,1.8-6.7,2.6C133.4,122.4,130.1,122.8,126.3,122.8z"/>
	<path class="st24" d="M195.9,96.8c0,4.3-0.6,8-1.9,11.3c-1.3,3.2-3,6-5.2,8.1c-2.2,2.2-4.8,3.8-7.9,4.9c-3,1.1-6.3,1.7-9.8,1.7
		c-3.4,0-6.6-0.6-9.6-1.7c-3-1.1-5.7-2.7-7.9-4.9c-2.3-2.2-4-4.9-5.3-8.1s-1.9-7-1.9-11.3c0-4.3,0.7-8,2-11.3c1.3-3.2,3.2-6,5.4-8.2
		c2.3-2.2,4.9-3.9,7.9-5c3-1.1,6.2-1.7,9.5-1.7c3.4,0,6.6,0.6,9.6,1.7c3,1.1,5.7,2.8,7.9,5c2.3,2.2,4,4.9,5.3,8.2
		C195.3,88.8,195.9,92.5,195.9,96.8z M157.8,96.8c0,2.4,0.3,4.7,0.9,6.6c0.6,2,1.5,3.7,2.6,5.1c1.1,1.4,2.5,2.5,4.1,3.3
		c1.6,0.8,3.5,1.2,5.6,1.2c2.1,0,3.9-0.4,5.6-1.2c1.7-0.8,3-1.9,4.2-3.3c1.1-1.4,2-3.1,2.6-5.1c0.6-2,0.9-4.2,0.9-6.6
		c0-2.4-0.3-4.7-0.9-6.7c-0.6-2-1.5-3.7-2.6-5.1c-1.1-1.4-2.5-2.5-4.2-3.3c-1.7-0.8-3.5-1.2-5.6-1.2c-2.1,0-4,0.4-5.6,1.2
		c-1.6,0.8-3,1.9-4.1,3.3c-1.1,1.4-2,3.1-2.6,5.1C158.1,92.2,157.8,94.4,157.8,96.8z"/>
	<path class="st24" d="M238.7,121.8c-3.2-5.7-6.7-11.4-10.4-16.9c-3.7-5.6-7.7-10.8-12-15.8v32.7h-11.1V71.9h9.1
		c1.6,1.6,3.3,3.5,5.3,5.8c1.9,2.3,3.9,4.8,5.9,7.4c2,2.6,4,5.3,5.9,8.1c2,2.8,3.8,5.5,5.5,8.1V71.9h11.2v49.9H238.7z"/>
	<path class="st24" d="M296.7,71.9v9.6h-15v40.3h-11.2V81.4h-15v-9.6H296.7z"/>
	<path class="st24" d="M303.9,71.9h11.2v49.9h-11.2V71.9z"/>
	<path class="st24" d="M360.1,121.8c-3.2-5.7-6.7-11.4-10.4-16.9c-3.7-5.6-7.7-10.8-12-15.8v32.7h-11.1V71.9h9.1
		c1.6,1.6,3.3,3.5,5.3,5.8c1.9,2.3,3.9,4.8,5.9,7.4c2,2.6,4,5.3,5.9,8.1c2,2.8,3.8,5.5,5.5,8.1V71.9h11.2v49.9H360.1z"/>
	<path class="st24" d="M400.6,122.8c-3.5,0-6.5-0.5-9.1-1.5c-2.5-1-4.6-2.4-6.3-4.1c-1.7-1.8-2.9-3.8-3.7-6.3
		c-0.8-2.4-1.2-5.1-1.2-8v-31h11.2V102c0,2,0.2,3.7,0.7,5.1c0.5,1.4,1.1,2.6,1.9,3.5c0.8,0.9,1.8,1.5,2.9,1.9
		c1.1,0.4,2.4,0.6,3.7,0.6c2.7,0,5-0.8,6.7-2.5c1.7-1.7,2.6-4.5,2.6-8.6V71.9h11.2v31c0,2.9-0.4,5.6-1.2,8.1s-2.1,4.5-3.7,6.3
		c-1.7,1.8-3.8,3.1-6.4,4.1C407.2,122.3,404.2,122.8,400.6,122.8z"/>
	<path class="st24" d="M432,121.8V71.9h33.7v9.4h-22.5v9.8h19.9v9.2h-19.9v12h24.1v9.4H432z"/>
</g>
<g class="st25">
	<g>
		<path class="st24" d="M126.3,125.3c-8.8,0-15.6-2.5-20.4-7.6c-4.7-5-7.1-12-7.1-20.9c0-4.4,0.7-8.5,2.1-12
			c1.4-3.5,3.4-6.6,5.9-9.1c2.5-2.5,5.5-4.4,9-5.6c3.4-1.2,7.1-1.9,11-1.9c2.2,0,4.3,0.2,6.2,0.5c1.8,0.3,3.5,0.7,4.8,1.2
			c1.4,0.5,2.6,0.9,3.6,1.4c0.9,0.5,1.6,0.8,2.1,1.1l1.7,1.1l-4.9,13.7l-2.6-1.4c-1.4-0.7-3-1.4-4.9-1.9c-1.8-0.5-3.9-0.8-6.3-0.8
			c-1.4,0-2.9,0.2-4.3,0.7c-1.3,0.5-2.4,1.2-3.4,2.2c-1,1-1.9,2.4-2.5,4.1c-0.7,1.7-1,3.9-1,6.5c0,2.1,0.2,4,0.7,5.8
			c0.4,1.6,1.1,3.1,2,4.2c0.9,1.1,2,2,3.5,2.7c1.5,0.7,3.4,1,5.6,1c1.5,0,2.9-0.1,4-0.3c1.2-0.2,2.3-0.4,3.2-0.6
			c0.9-0.2,1.6-0.5,2.3-0.8c0.8-0.3,1.4-0.6,2-0.9l2.5-1.2l4.7,13.5l-1.7,1c-1.8,1.1-4.2,2-7.3,2.9
			C133.9,124.9,130.3,125.3,126.3,125.3z"/>
		<path class="st26" d="M126.9,70.7c2.1,0,4,0.2,5.8,0.5c1.7,0.3,3.2,0.7,4.5,1.1c1.3,0.4,2.4,0.8,3.2,1.3c0.9,0.4,1.5,0.8,1.9,1
			l-3.2,9.1c-1.5-0.8-3.3-1.5-5.4-2.1c-2-0.6-4.4-0.9-6.9-0.9c-1.7,0-3.4,0.3-5.1,0.9c-1.7,0.6-3.1,1.5-4.4,2.8
			c-1.3,1.3-2.3,2.9-3.1,4.9c-0.8,2-1.2,4.5-1.2,7.3c0,2.3,0.3,4.5,0.8,6.4c0.5,2,1.3,3.7,2.4,5.1c1.1,1.4,2.6,2.6,4.4,3.4
			c1.8,0.8,4,1.3,6.6,1.3c1.6,0,3.1-0.1,4.4-0.3c1.3-0.2,2.4-0.4,3.5-0.7c1-0.3,1.9-0.6,2.7-0.9c0.8-0.3,1.5-0.6,2.1-0.9l3.1,9
			c-1.6,1-3.8,1.8-6.7,2.6c-2.9,0.8-6.2,1.2-10,1.2c-8.1,0-14.3-2.3-18.5-6.8s-6.4-10.9-6.4-19.2c0-4.1,0.6-7.8,1.9-11.1
			c1.3-3.2,3.1-6,5.3-8.2c2.3-2.2,4.9-3.9,8.1-5.1C119.8,71.3,123.2,70.7,126.9,70.7 M126.9,65.7c-4.2,0-8.2,0.7-11.9,2
			c-3.8,1.4-7.1,3.5-9.8,6.2c-2.7,2.7-4.9,6-6.5,9.9c-1.5,3.8-2.3,8.2-2.3,12.9c0,9.6,2.6,17.2,7.7,22.7c5.2,5.5,12.7,8.3,22.2,8.3
			c4.2,0,8-0.4,11.3-1.3c3.4-0.9,6-1.9,8-3.1l3.4-2.1l-1.3-3.8l-3.1-9l-1.8-5.2l-5,2.3c-0.6,0.3-1.3,0.6-2,0.9
			c-0.5,0.2-1.2,0.4-1.9,0.6c-0.8,0.2-1.8,0.4-2.9,0.6c-1,0.2-2.3,0.2-3.7,0.2c-1.9,0-3.4-0.3-4.5-0.8c-1.1-0.5-1.9-1.1-2.6-2
			c-0.7-0.9-1.2-2-1.5-3.3c-0.4-1.6-0.6-3.3-0.6-5.2c0-2.3,0.3-4.1,0.8-5.6c0.5-1.3,1.2-2.4,1.9-3.2c0.7-0.7,1.6-1.3,2.5-1.6
			c1.1-0.4,2.3-0.6,3.4-0.6c2.1,0,4,0.2,5.6,0.7c1.7,0.5,3.2,1,4.4,1.7l5.1,2.7l1.9-5.4l3.2-9.1l1.4-3.8l-3.4-2.1
			c-0.5-0.3-1.3-0.7-2.3-1.2c-1.1-0.6-2.4-1.1-4-1.6c-1.5-0.5-3.2-0.9-5.1-1.2C131.5,65.9,129.3,65.7,126.9,65.7L126.9,65.7z"/>
	</g>
	<g>
		<path class="st24" d="M171.1,125.3c-3.7,0-7.2-0.6-10.5-1.8c-3.3-1.2-6.3-3.1-8.8-5.5c-2.5-2.4-4.5-5.4-5.9-9
			c-1.4-3.5-2.1-7.6-2.1-12.2c0-4.6,0.7-8.7,2.2-12.2c1.5-3.5,3.5-6.6,6-9c2.5-2.4,5.5-4.3,8.8-5.5c3.3-1.2,6.7-1.8,10.3-1.8
			c3.7,0,7.2,0.6,10.5,1.8c3.3,1.2,6.3,3.1,8.8,5.5c2.5,2.4,4.5,5.5,5.9,9c1.4,3.5,2.1,7.6,2.1,12.2c0,4.6-0.7,8.7-2.1,12.2
			c-1.4,3.6-3.3,6.6-5.8,9c-2.5,2.4-5.4,4.3-8.8,5.5C178.4,124.7,174.8,125.3,171.1,125.3z M171.1,83.1c-1.7,0-3.2,0.3-4.5,0.9
			c-1.3,0.6-2.4,1.5-3.3,2.6c-0.9,1.2-1.6,2.6-2.2,4.3c-0.5,1.7-0.8,3.7-0.8,5.9c0,2.2,0.3,4.2,0.8,5.9c0.5,1.7,1.2,3.1,2.2,4.2
			c0.9,1.1,2,2,3.2,2.6c1.3,0.6,2.8,0.9,4.6,0.9c1.7,0,3.2-0.3,4.5-0.9c1.3-0.6,2.4-1.4,3.3-2.6c0.9-1.2,1.7-2.6,2.2-4.2
			c0.5-1.7,0.8-3.7,0.8-5.9c0-2.2-0.3-4.2-0.8-5.9c-0.5-1.7-1.2-3.1-2.2-4.3c-0.9-1.1-2-2-3.3-2.6C174.3,83.4,172.8,83.1,171.1,83.1
			z"/>
		<path class="st26" d="M171.1,70.7c3.4,0,6.6,0.6,9.6,1.7c3,1.1,5.7,2.8,7.9,5c2.3,2.2,4,4.9,5.3,8.2c1.3,3.2,1.9,7,1.9,11.3
			c0,4.3-0.6,8-1.9,11.3c-1.3,3.2-3,6-5.2,8.1c-2.2,2.2-4.8,3.8-7.9,4.9c-3,1.1-6.3,1.7-9.8,1.7c-3.4,0-6.6-0.6-9.6-1.7
			c-3-1.1-5.7-2.7-7.9-4.9c-2.3-2.2-4-4.9-5.3-8.1s-1.9-7-1.9-11.3c0-4.3,0.7-8,2-11.3c1.3-3.2,3.2-6,5.4-8.2c2.3-2.2,4.9-3.9,7.9-5
			C164.6,71.3,167.8,70.7,171.1,70.7 M171.1,112.9c2.1,0,3.9-0.4,5.6-1.2c1.7-0.8,3-1.9,4.2-3.3c1.1-1.4,2-3.1,2.6-5.1
			c0.6-2,0.9-4.2,0.9-6.6c0-2.4-0.3-4.7-0.9-6.7c-0.6-2-1.5-3.7-2.6-5.1c-1.1-1.4-2.5-2.5-4.2-3.3c-1.7-0.8-3.5-1.2-5.6-1.2
			c-2.1,0-4,0.4-5.6,1.2c-1.6,0.8-3,1.9-4.1,3.3c-1.1,1.4-2,3.1-2.6,5.1c-0.6,2-0.9,4.2-0.9,6.6c0,2.4,0.3,4.7,0.9,6.6
			c0.6,2,1.5,3.7,2.6,5.1c1.1,1.4,2.5,2.5,4.1,3.3C167.1,112.5,169,112.9,171.1,112.9 M171.1,65.7c-3.9,0-7.7,0.7-11.2,2
			c-3.6,1.3-6.9,3.4-9.7,6.1c-2.8,2.7-5,6-6.6,9.8c-1.6,3.8-2.4,8.3-2.4,13.2c0,4.9,0.8,9.3,2.3,13.1c1.6,3.9,3.7,7.2,6.5,9.9
			c2.7,2.7,6,4.7,9.7,6c3.6,1.3,7.4,2,11.4,2c4.1,0,7.9-0.7,11.5-2c3.7-1.3,7-3.4,9.7-6.1c2.7-2.7,4.8-6,6.4-9.9
			c1.5-3.8,2.3-8.2,2.3-13.1c0-4.9-0.8-9.3-2.3-13.1c-1.5-3.9-3.7-7.2-6.5-9.9c-2.8-2.7-6-4.7-9.7-6.1
			C178.9,66.4,175,65.7,171.1,65.7L171.1,65.7z M171.1,107.9c-1.4,0-2.5-0.2-3.5-0.7c-0.9-0.4-1.7-1.1-2.4-1.9
			c-0.7-0.9-1.3-2.1-1.7-3.4c-0.5-1.5-0.7-3.2-0.7-5.2c0-1.9,0.2-3.6,0.7-5.1c0.4-1.4,1-2.5,1.7-3.4c0.7-0.8,1.5-1.5,2.4-1.9
			c0.9-0.5,2.1-0.7,3.4-0.7c1.3,0,2.5,0.2,3.5,0.7c0.9,0.4,1.7,1,2.4,1.9c0.7,0.9,1.3,2.1,1.7,3.4c0.5,1.5,0.7,3.3,0.7,5.2
			c0,1.9-0.2,3.7-0.7,5.2c-0.4,1.4-1,2.5-1.7,3.4c-0.6,0.8-1.4,1.4-2.4,1.9C173.5,107.7,172.4,107.9,171.1,107.9L171.1,107.9z"/>
	</g>
	<g>
		<path class="st24" d="M237.3,124.3l-0.7-1.3c-3.2-5.6-6.6-11.3-10.3-16.8c-2.3-3.5-4.8-6.9-7.4-10.2v28.2h-16.1V69.4h12.7l0.7,0.7
			c1.6,1.6,3.4,3.6,5.4,6c1.9,2.3,3.9,4.8,5.9,7.5c2,2.6,4,5.4,6,8.2c0.3,0.5,0.7,1,1,1.4V69.4h16.2v54.9H237.3z"/>
		<path class="st26" d="M248.2,71.9v49.9h-9.4c-3.2-5.7-6.7-11.4-10.4-16.9c-3.7-5.6-7.7-10.8-12-15.8v32.7h-11.1V71.9h9.1
			c1.6,1.6,3.3,3.5,5.3,5.8c1.9,2.3,3.9,4.8,5.9,7.4c2,2.6,4,5.3,5.9,8.1c2,2.8,3.8,5.5,5.5,8.1V71.9H248.2 M253.2,66.9h-5H237h-5v5
			v13.5c-0.8-1.1-1.7-2.3-2.5-3.3c-2-2.7-4-5.2-6-7.6c-2-2.4-3.9-4.5-5.6-6.2l-1.5-1.5h-2.1h-9.1h-5v5v49.9v5h5h11.1h5v-5v-18.2
			c1,1.3,1.9,2.7,2.8,4c3.7,5.4,7.1,11,10.2,16.6l1.4,2.5h2.9h9.4h5v-5V71.9V66.9L253.2,66.9z"/>
	</g>
	<g>
		<polygon class="st24" points="267.9,124.3 267.9,83.9 252.9,83.9 252.9,69.4 299.2,69.4 299.2,83.9 284.2,83.9 284.2,124.3 		"/>
		<path class="st26" d="M296.7,71.9v9.6h-15v40.3h-11.2V81.4h-15v-9.6H296.7 M301.7,66.9h-5h-41.3h-5v5v9.6v5h5h10v35.3v5h5h11.2h5
			v-5V86.4h10h5v-5v-9.6V66.9L301.7,66.9z"/>
	</g>
	<g>
		<rect x="301.4" y="69.4" class="st24" width="16.2" height="54.9"/>
		<path class="st26" d="M315.1,71.9v49.9h-11.2V71.9H315.1 M320.1,66.9h-5h-11.2h-5v5v49.9v5h5h11.2h5v-5V71.9V66.9L320.1,66.9z"/>
	</g>
	<g>
		<path class="st24" d="M358.7,124.3L358,123c-3.2-5.6-6.6-11.3-10.3-16.8c-2.3-3.5-4.8-6.9-7.4-10.2v28.2h-16.1V69.4h12.7l0.7,0.7
			c1.6,1.6,3.4,3.6,5.4,6c1.9,2.3,3.9,4.8,5.9,7.5c2,2.6,4,5.4,6,8.2c0.3,0.5,0.7,1,1,1.4V69.4h16.2v54.9H358.7z"/>
		<path class="st26" d="M369.6,71.9v49.9h-9.4c-3.2-5.7-6.7-11.4-10.4-16.9c-3.7-5.6-7.7-10.8-12-15.8v32.7h-11.1V71.9h9.1
			c1.6,1.6,3.3,3.5,5.3,5.8c1.9,2.3,3.9,4.8,5.9,7.4c2,2.6,4,5.3,5.9,8.1c2,2.8,3.8,5.5,5.5,8.1V71.9H369.6 M374.6,66.9h-5h-11.2h-5
			v5v13.5c-0.8-1.1-1.7-2.3-2.5-3.3c-2-2.7-4-5.2-6-7.6c-2-2.4-3.9-4.5-5.6-6.2l-1.5-1.5h-2.1h-9.1h-5v5v49.9v5h5h11.1h5v-5v-18.2
			c1,1.3,1.9,2.7,2.8,4c3.7,5.4,7.1,11,10.2,16.6l1.4,2.5h2.9h9.4h5v-5V71.9V66.9L374.6,66.9z"/>
	</g>
	<g>
		<path class="st24" d="M400.6,125.3c-3.8,0-7.2-0.6-10-1.6c-2.9-1.1-5.3-2.7-7.2-4.7c-1.9-2-3.3-4.4-4.2-7.2
			c-0.9-2.7-1.3-5.6-1.3-8.8V69.4h16.2V102c0,1.8,0.2,3.2,0.6,4.4c0.3,1.1,0.8,1.9,1.4,2.6c0.5,0.6,1.1,1,1.8,1.2
			c0.9,0.3,1.8,0.4,2.9,0.4c2.1,0,3.7-0.6,4.9-1.8c1.2-1.2,1.8-3.5,1.8-6.8V69.4h16.2v33.5c0,3.2-0.5,6.2-1.4,8.9
			c-0.9,2.8-2.4,5.2-4.3,7.2c-1.9,2-4.4,3.6-7.3,4.7C407.8,124.7,404.4,125.3,400.6,125.3z"/>
		<path class="st26" d="M421.2,71.9v31c0,2.9-0.4,5.6-1.2,8.1s-2.1,4.5-3.7,6.3c-1.7,1.8-3.8,3.1-6.4,4.1c-2.6,1-5.7,1.4-9.2,1.4
			c-3.5,0-6.5-0.5-9.1-1.5c-2.5-1-4.6-2.4-6.3-4.1c-1.7-1.8-2.9-3.8-3.7-6.3c-0.8-2.4-1.2-5.1-1.2-8v-31h11.2V102
			c0,2,0.2,3.7,0.7,5.1c0.5,1.4,1.1,2.6,1.9,3.5c0.8,0.9,1.8,1.5,2.9,1.9c1.1,0.4,2.4,0.6,3.7,0.6c2.7,0,5-0.8,6.7-2.5
			c1.7-1.7,2.6-4.5,2.6-8.6V71.9H421.2 M426.2,66.9h-5H410h-5v5V102c0,3.8-0.9,4.8-1.1,5c-0.5,0.5-1.3,1.1-3.1,1.1
			c-0.8,0-1.5-0.1-2.1-0.3c-0.3-0.1-0.5-0.3-0.8-0.5c-0.3-0.4-0.6-0.9-0.8-1.7c-0.2-0.6-0.4-1.8-0.4-3.6V71.9v-5h-5h-11.2h-5v5v31
			c0,3.4,0.5,6.7,1.4,9.6c1,3.1,2.6,5.9,4.8,8.1c2.2,2.3,4.9,4.1,8.1,5.3c3.1,1.2,6.8,1.8,10.9,1.8c4.1,0,7.8-0.6,11-1.8
			c3.3-1.2,6.1-3,8.3-5.3c2.2-2.3,3.8-5,4.9-8.2c1-2.9,1.5-6.2,1.5-9.6v-31V66.9L426.2,66.9z"/>
	</g>
	<g>
		<polygon class="st24" points="429.5,124.3 429.5,69.4 468.2,69.4 468.2,83.8 445.7,83.8 445.7,88.6 465.7,88.6 465.7,102.8 
			445.7,102.8 445.7,109.8 469.8,109.8 469.8,124.3 		"/>
		<path class="st26" d="M465.7,71.9v9.4h-22.5v9.8h19.9v9.2h-19.9v12h24.1v9.4H432V71.9H465.7 M470.7,66.9h-5H432h-5v5v49.9v5h5
			h35.4h5v-5v-9.4v-5h-5h-19.1v-2h14.9h5v-5v-9.2v-4.8h2.5v-5v-9.4V66.9L470.7,66.9z"/>
	</g>
</g>
<g id="Layer_3">
	<g>
		<path class="st0" d="M1.6,292.5l2.2-25L44,224.1c0,0,38.4-21.8,64.7-21.8s356-5.8,376.2-1.5c20.2,4.4,62.7,34.9,62.7,34.9
			s26.3,43.7,22.2,55.3C565.9,302.7,1.6,292.5,1.6,292.5z"/>
		<path class="st1" d="M0,283.7l1.6,8.9l9.1,39.6c117.5,0.3,334.5,0.7,557.1,0.8c3.3-13.6,8.6-39.9,3-49.9
			C562.9,269.4,0,283.7,0,283.7z"/>
		<path class="st2" d="M108.8,202.3c26.3,0,356-5.8,376.2-1.5c20.2,4.4,62.7,34.9,62.7,34.9s13.7,22.7,19.8,39.7l0.8,0
			c0,0-11.1-34.1-11.8-39.2c-0.8-5.1-12.6-15.3-30-24.4c-17.4-9.1-30-18.2-51.3-18.7c-21.3-0.6-291.3-5.1-356.8,1.1
			C52.7,200.5,48,213,38.5,217c-8.3,3.5-28.6,39.5-33.6,48.5c-0.7,1.3-1.1,2.1-1.1,2.1L44,224.1C44,224.1,82.5,202.3,108.8,202.3z"
			/>
	</g>
	<g>
		<path class="st3" d="M461.2,218.5c0,0-363-1.4-370.1,2.2c-4.9,2.5-49.5,26.5-51.5,28.3c-2,1.8-27.4,33.7-27.4,41.1
			c0,7.4,13.9,51.1,21.8,56.3c7.9,5.3,63.1,31.1,77,33.4c13.9,2.4,361,2.8,375.3-2.2c14.3-5,56.8-33.9,63.9-42.9
			c7.1-9,9.1-43.4,7.9-51.3c-1.2-7.9-26.3-38.3-27.4-39C492.3,221.1,461.2,218.5,461.2,218.5z"/>
		<linearGradient id="SVGID_11_" gradientUnits="userSpaceOnUse" x1="286.0129" y1="388.3184" x2="284.9416" y2="204.0538">
			<stop  offset="0" style="stop-color:#5C594A"/>
			<stop  offset="1" style="stop-color:#9E8080"/>
		</linearGradient>
		<path class="st27" d="M459.1,212.8c0,0-358.6-1.4-365.6,2.2c-4.8,2.5-48.9,26.5-50.8,28.3c-2,1.8-27.1,33.7-27.1,41.1
			c0,7.4,13.7,51.1,21.6,56.3c7.8,5.3,62.4,31.1,76.1,33.4c13.7,2.4,356.6,2.8,370.7-2.2c14.1-5,56.1-33.9,63.2-42.9
			c7.1-9,9-43.4,7.8-51.3c-1.2-7.9-26-38.3-27.1-39C489.8,215.3,459.1,212.8,459.1,212.8z"/>
		<path class="st5" d="M87.2,290.5c13.7,0,434.6-9.1,434.6-9.1s16.9-3.6,32-6.8c-5.1-10.8-25-35.1-25.9-35.7
			c-38.1-23.5-68.8-26.1-68.8-26.1s-358.6-1.4-365.6,2.2c-4.8,2.5-48.9,26.5-50.8,28.3c-1.8,1.7-23.2,28.8-26.6,38.9
			C31.7,284.4,76,290.5,87.2,290.5z"/>
		<path class="st5" d="M502.9,253.4l24.7-14.7c-37.9-23.3-68.5-25.9-68.5-25.9s-358.6-1.4-365.6,2.2c-4.2,2.2-38,20.5-48.1,26.5
			c7.3,3.2,15.8,6.3,23.9,8.1C90.4,254.1,502.9,253.4,502.9,253.4z"/>
		<path class="st6" d="M502.9,321.5c0,0-411.5-6.8-419.9-5.3c-6.8,1.2-36,17.1-47.2,23.3c0.5,0.5,0.9,0.9,1.3,1.2
			c7.8,5.3,62.4,31.1,76.1,33.4c13.7,2.4,356.6,2.8,370.7-2.2c13.3-4.7,51.4-30.7,61.6-41.1L502.9,321.5z"/>
		<path class="st6" d="M113.2,374.1c13.4,2.3,338,2.8,368.8-1.8c-9.9-16.7-30.7-35.7-30.7-35.7s-279.9-11.4-299.9-3.8
			c-15.1,5.7-32.1,29.7-39.4,41C112.4,374,112.8,374.1,113.2,374.1z"/>
		<path class="st1" d="M97.5,235.2c-20.8,3.2-49.9,18-54.9,51.2c-5,33.3,18.1,53.2,84.2,59.1c81.8,7.2,327.5,0.3,329.6,0.3
			c2.1,0,57.1-6.2,68.5-33.1c11.4-26.9-2.9-75.1-69.9-80.6C387.8,226.7,185.1,221.7,97.5,235.2z"/>
		
			<radialGradient id="SVGID_12_" cx="363.4383" cy="17024.2715" r="186.7105" gradientTransform="matrix(1.3775 -7.300000e-03 0 0.3345 -218.2946 -5391.7837)" gradientUnits="userSpaceOnUse">
			<stop  offset="0" style="stop-color:#E9D000"/>
			<stop  offset="0.3289" style="stop-color:#EBCC02"/>
			<stop  offset="0.658" style="stop-color:#F3C009"/>
			<stop  offset="0.9863" style="stop-color:#FEAC14"/>
			<stop  offset="1" style="stop-color:#FFAB15"/>
		</radialGradient>
		<path class="st28" d="M104.2,238.8c-20.1,3-48.2,16.7-53,47.7c-4.8,31,17.4,49.6,81.2,55c78.9,6.7,315.7,0.3,317.8,0.3
			c2.1,0,55-5.8,66-30.8c11-25-2.7-69.9-67.4-75C384.2,230.8,188.7,226.2,104.2,238.8z"/>
		<defs>
			<filter id="Adobe_OpacityMaskFilter_4_" filterUnits="userSpaceOnUse" x="63.4" y="233.9" width="453.1" height="69.6">
				<feColorMatrix  type="matrix" values="1 0 0 0 0  0 1 0 0 0  0 0 1 0 0  0 0 0 1 0"/>
			</filter>
		</defs>
		<mask maskUnits="userSpaceOnUse" x="63.4" y="233.9" width="453.1" height="69.6" id="SVGID_13_">
			<g class="st29">
				<defs>
					<filter id="Adobe_OpacityMaskFilter_5_" filterUnits="userSpaceOnUse" x="63.4" y="233.9" width="453.1" height="69.6">
						<feFlood  style="flood-color:white;flood-opacity:1" result="back"/>
						<feBlend  in="SourceGraphic" in2="back" mode="normal"/>
					</filter>
				</defs>
				<mask maskUnits="userSpaceOnUse" x="63.4" y="233.9" width="453.1" height="69.6" id="SVGID_13_">
					<g class="st30">
					</g>
				</mask>
				<linearGradient id="SVGID_14_" gradientUnits="userSpaceOnUse" x1="288.6071" y1="211.2364" x2="290.9263" y2="331.0638">
					<stop  offset="0" style="stop-color:#FFFFFF"/>
					<stop  offset="1" style="stop-color:#000000"/>
				</linearGradient>
				<path class="st31" d="M446.2,239.2c-64.2-5.1-258.3-9.8-342.3,2.8c-12.6,1.9-28.3,8.1-39.4,20.1c-2.9,7.4-0.3,13.6,14.2,15.6
					c43.9,6.1,78.4-19.7,197.5-22.7c110.3-2.8,217.8,15.2,239.9,48.5C519.6,278.1,502,243.7,446.2,239.2z"/>
			</g>
		</mask>
		<linearGradient id="SVGID_15_" gradientUnits="userSpaceOnUse" x1="288.6071" y1="211.2364" x2="290.9263" y2="331.0638">
			<stop  offset="0" style="stop-color:#FFFFFF"/>
			<stop  offset="1" style="stop-color:#A8F524"/>
		</linearGradient>
		<path class="st32" d="M446.2,239.2c-64.2-5.1-258.3-9.8-342.3,2.8c-12.6,1.9-28.3,8.1-39.4,20.1c-2.9,7.4-0.3,13.6,14.2,15.6
			c43.9,6.1,78.4-19.7,197.5-22.7c110.3-2.8,217.8,15.2,239.9,48.5C519.6,278.1,502,243.7,446.2,239.2z"/>
		<path class="st12" d="M285.1,241.2c0,0-97.9,1.5-90.5,20.4c7.4,18.9,133.6,15.9,167.3,31.8c33.7,15.9,95.8,15.9,116.8,1.5
			C499.7,280.6,487.1,237.5,285.1,241.2z"/>
		<defs>
			<filter id="Adobe_OpacityMaskFilter_6_" filterUnits="userSpaceOnUse" x="50.8" y="298.7" width="466.6" height="45.9">
				<feColorMatrix  type="matrix" values="1 0 0 0 0  0 1 0 0 0  0 0 1 0 0  0 0 0 1 0"/>
			</filter>
		</defs>
		<mask maskUnits="userSpaceOnUse" x="50.8" y="298.7" width="466.6" height="45.9" id="SVGID_16_">
			<g class="st33">
				<defs>
					<filter id="Adobe_OpacityMaskFilter_7_" filterUnits="userSpaceOnUse" x="50.8" y="298.7" width="466.6" height="45.9">
						<feFlood  style="flood-color:white;flood-opacity:1" result="back"/>
						<feBlend  in="SourceGraphic" in2="back" mode="normal"/>
					</filter>
				</defs>
				<mask maskUnits="userSpaceOnUse" x="50.8" y="298.7" width="466.6" height="45.9" id="SVGID_16_">
					<g class="st34">
					</g>
				</mask>
				<linearGradient id="SVGID_17_" gradientUnits="userSpaceOnUse" x1="284.1149" y1="276.0737" x2="284.1149" y2="380.5757">
					<stop  offset="1.807230e-02" style="stop-color:#000000"/>
					<stop  offset="1" style="stop-color:#FFFFFF"/>
				</linearGradient>
				<path class="st35" d="M450.2,341.9c2.1,0,55-5.8,66-30.8c0.4-1,0.8-2,1.2-3c-49.8,23.3-113.7,6.9-173.4-4
					c-66.3-12.1-221,12.1-261,8.3c-15.2-1.4-25.4-7.2-32.2-13.7c2.6,23.7,26.7,38.1,81.6,42.8C211.3,348.3,448.1,341.9,450.2,341.9z
					"/>
			</g>
		</mask>
		<linearGradient id="SVGID_18_" gradientUnits="userSpaceOnUse" x1="284.1149" y1="367.2499" x2="284.1149" y2="262.8109">
			<stop  offset="1.807250e-02" style="stop-color:#6A5B00"/>
			<stop  offset="1" style="stop-color:#E9BD00"/>
		</linearGradient>
		<path class="st36" d="M450.2,341.9c2.1,0,55-5.8,66-30.8c0.4-1,0.8-2,1.2-3c-49.8,23.3-113.7,6.9-173.4-4
			c-66.3-12.1-221,12.1-261,8.3c-15.2-1.4-25.4-7.2-32.2-13.7c2.6,23.7,26.7,38.1,81.6,42.8C211.3,348.3,448.1,341.9,450.2,341.9z"
			/>
		<path class="st17" d="M271.4,239c0,0-54.7,0-32.6,5.3c22.1,5.3,68.4,12.1,90.5,6.1C351.4,244.3,313.5,235.9,271.4,239z"/>
		<path class="st17" d="M374.5,242c0,0-24.2,1.5-14.7,7.6c9.5,6.1,41,6.8,49.5,6.1C417.7,254.9,416.6,240.5,374.5,242z"/>
		<path class="st18" d="M450.2,341.9c0.7,0,7.7-0.7,17-2.7c-33.4-0.4-73.3-6.5-112.7-13.1c-54.7-9.1-129.4-7.6-192.6,3.8
			c-28.9,5.2-53.6,5.6-71.9,4.6c11.4,3.3,25.4,5.7,42.4,7.1C211.3,348.3,448.1,341.9,450.2,341.9z"/>
		<path class="st18" d="M464,333.6c-44.2,4.5-180,3.8-248.4,3.8c-68.4,0-117.9-2.3-145.2-15.9c-12.5-6.2-17.8-17.1-19.8-27
			c0.1,26.2,23.7,42.1,81.8,47.1c78.9,6.7,315.7,0.3,317.8,0.3c2.1,0,55-5.8,66-30.8c0.5-1.2,1-2.5,1.5-3.9
			C505.5,319.2,487,331.3,464,333.6z"/>
		<path class="st19" d="M529.2,321.7c-1.4-2.2-2.9-6.7-3.5-11.2c-0.3,0.8-0.6,1.6-0.9,2.3c-11.4,26.9-66.3,33.1-68.5,33.1
			c-2.1,0-247.8,6.9-329.6-0.3c-53.3-4.7-78.6-18.6-83.8-41.2c0.5,3.8,1.7,10.7,5.2,14.9c4.9,6-2.5,11-5.4,11.7
			c-1.7,0.4-7,1.4-11,2.2c2,3.8,3.9,6.5,5.5,7.6c0.7,0.5,1.8,1.1,3.2,1.9c2.3-4.4,6.7-10.2,13.6-11c11.3-1.4,15.7,8.5,41.8,12.7
			c26,4.2,29.5,5.3,28,8.5c-1.2,2.7-9,15.7-14.1,20.5c1.4,0.4,2.6,0.7,3.5,0.9c0.9,0.2,3.4,0.3,7.1,0.5c2.5-7,9.2-23.9,16.2-23.9
			c8.8,0,103.7,2.1,139.6,2.5c35.9,0.4,156.8-1.8,168.1-1.8c11.3,0,25.1,6.7,27,13.1c1,3.2,0.4,6.4-0.5,8.8
			c7.2-0.4,11.9-0.8,13.3-1.3c1.7-0.6,3.9-1.6,6.4-2.9c-5.4-3.8-17.6-13-15.7-17.7c2.5-6,3.4-5.3,20.6-11.7
			c17.2-6.4,21.1-10.6,29-10.6c5.2,0,11.2,3.8,14.5,7.7c3.9-3.2,6.8-5.9,8.3-7.7c0.9-1.1,1.7-2.6,2.4-4.4
			C543.7,324.3,530.7,324.1,529.2,321.7z"/>
		<path class="st20" d="M555,277.8c-0.3-1.7-1.6-4.5-3.6-7.7c-6.9,3.9-18.7,9-23.4,1.6c-6.8-10.8-16.4-17.7-13-20.7
			c2.7-2.3,9.8-7.5,15.3-9.5c-1.3-1.5-2.1-2.5-2.3-2.6c-1.5-0.9-3-1.8-4.5-2.7c-5.2,4-13.6,9.5-19.4,7.9
			c-8.9-2.5-30.8-13.3-41.1-14.8c-7.8-1.1-0.2-9.4,6.4-14.8c-4.9-1.1-8.2-1.5-9.5-1.6c-0.4,3.9-2.1,8.3-7.1,11
			c-11,5.9-40.4,1.5-89,0c-48.6-1.5-186.2,1-198.5,1s-45.2,3.9-49.3,1.5c-2.5-1.5-9-7-13.4-12.1c-5.2,0.2-8.4,0.5-8.9,0.8
			c-0.2,0.1-0.4,0.2-0.6,0.3l12.7,12.5c0,0-5.5,3.9-8.2,4.4c-2.7,0.5-26.7,7.9-30.1,11.8c0,0-12.2-1.6-16.8-5.4
			c-4.1,2.3-7,4.1-7.7,4.6c3.2,0.9,6.1,2.2,7.4,4.3c3.4,5.4-4.8,12.8-7.5,21.7c-2.7,8.9-3.4,11.8-7.5,11.3c-2.9-0.3-11.9-1.2-17-2.9
			c-1.6,2.9-2.5,5.3-2.5,6.7c0,0.9,0.2,2.4,0.6,4.3c4.9-0.3,16.1-0.9,18.2,0.7c1.4,1,4.6,2.7,7.6,4.2c0.1-2.3,0.3-4.6,0.6-7.1
			c5-33.3,34.1-48,54.9-51.2c87.7-13.5,290.4-8.6,357.4-3c50.5,4.2,71.1,32.5,73.3,57.7c1-1.9,3.3-4.4,8-6.5
			c5.9-2.6,13.6-5.4,18.9-5C555,278.2,555,278,555,277.8z"/>
		<path class="st21" d="M176.7,224.2c3,0.5,6,0.8,8.9,1c21.3,1.6,39.6-3,43.5-12.5c0,0,0,0,0-0.1c-3.7,0-7.3,0-10.9,0
			c-4,3.8-10.9,7.1-22.9,7.1c-15,0-23.6-3-28.3-6.8c-5.1,0-10,0.1-14.7,0.1C156.6,217.4,163.9,222.2,176.7,224.2z"/>
		<path class="st21" d="M203.7,212.7c-8.2,0-16.1,0.1-23.7,0.1c2,1.2,4.9,2.4,8.9,3.2C196.8,217.6,201.4,215.5,203.7,212.7z"/>
		<path class="st22" d="M324.6,357c-28.5,2-43.2,13.8-48.2,18.9c6.1,0,12.2,0,18.4,0c5.2-12.4,38.9-15.7,59.3-12.6
			c12.9,1.9,21.1,7.7,25.5,12.1c5.3-0.1,10.5-0.1,15.5-0.2C390.8,367.6,356.9,354.7,324.6,357z"/>
		<path class="st22" d="M360.6,375.5c-1.7-3.9-14.9-8.4-28.4-6.1c-8.3,1.5-13.6,4.1-16.9,6.3C330.7,375.7,345.9,375.6,360.6,375.5z"
			/>
		<path class="st21" d="M541.3,255.5c-2-2.7-4-5.3-5.9-7.6c-2.9,0-6.1-0.4-9.5-1.2c-13-3.4-22.5-14-21.9-20.4c0,0,0,0,0-0.1
			c-4.6-2.1-8.9-3.8-13-5.3c0,3.4,1.9,8.4,8.8,15.1C513.9,249.7,527.4,257.3,541.3,255.5z"/>
		<path class="st21" d="M529.7,240.8c-1-1.2-1.7-1.9-1.8-2c-4.9-3-9.7-5.7-14.3-8.1c0,1.7,0.8,4,3.4,6.5
			C521.2,241.4,525.7,242,529.7,240.8z"/>
		<path class="st23" d="M74.2,342.4c-16.1-3.1-25.8-0.9-31.3,1.7c2.6,1.4,5.8,3,9.3,4.7c6.5-4.1,14.4-3.9,24.3,0.8
			c9.8,4.7,10.9,11.5,10.6,15.2c4.6,1.9,8.9,3.7,12.8,5.2C103,362.4,99,347.1,74.2,342.4z"/>
		<path class="st21" d="M350.1,227.5c5.8-4,16.7-7.6,28.6-6.8c10.3,0.7,17.5,4.8,21.8,8.4c5.4,0.2,10.6,0.5,15.6,0.7
			c-5.2-7.3-28.4-17.5-52.8-15c-20.5,2-32,8.4-37.3,12.2C334.3,227.1,342.3,227.3,350.1,227.5z"/>
		<path class="st21" d="M364.5,228.8c0,0,1.8-5.1,10.1-4.7c8.3,0.4,14.8,5.1,12.4,6.4C384.6,231.8,364.5,228.8,364.5,228.8z"/>
		<path class="st21" d="M34.8,253c-3.2,4.2-6.9,9.2-10.2,14c1.2,0.4,2.4,1,3.6,1.5c12.7,5.9,3,23.7-0.7,27c-1.7,1.5-5.3,2.6-8.7,3.4
			c0.8,2.7,1.7,5.5,2.6,8.5c0,0,0.1,0,0.1,0C35,304.8,36.5,295,38,274C38.6,265.3,37,258.3,34.8,253z"/>
	</g>
	<g class="st25">
		<g>
			<path class="st24" d="M126.3,316.3c-8.8,0-15.6-2.5-20.4-7.6c-4.7-5-7.1-12-7.1-20.9c0-4.4,0.7-8.5,2.1-12
				c1.4-3.5,3.4-6.6,5.9-9.1c2.5-2.5,5.5-4.4,9-5.6c3.4-1.2,7.1-1.9,11-1.9c2.2,0,4.3,0.2,6.2,0.5c1.8,0.3,3.5,0.7,4.8,1.2
				c1.4,0.5,2.6,0.9,3.6,1.4c0.9,0.5,1.6,0.8,2.1,1.1l1.7,1.1l-4.9,13.7l-2.6-1.4c-1.4-0.7-3-1.4-4.9-1.9c-1.8-0.5-3.9-0.8-6.3-0.8
				c-1.4,0-2.9,0.2-4.3,0.7c-1.3,0.5-2.4,1.2-3.4,2.2c-1,1-1.9,2.4-2.5,4.1c-0.7,1.7-1,3.9-1,6.5c0,2.1,0.2,4,0.7,5.8
				c0.4,1.6,1.1,3.1,2,4.2c0.9,1.1,2,2,3.5,2.7c1.5,0.7,3.4,1,5.6,1c1.5,0,2.9-0.1,4-0.3c1.2-0.2,2.3-0.4,3.2-0.6
				c0.9-0.2,1.6-0.5,2.3-0.8c0.8-0.3,1.4-0.6,2-0.9l2.5-1.2l4.7,13.5l-1.7,1c-1.8,1.1-4.2,2-7.3,2.9
				C133.9,315.9,130.3,316.3,126.3,316.3z"/>
			<path class="st26" d="M126.9,261.7c2.1,0,4,0.2,5.8,0.5c1.7,0.3,3.2,0.7,4.5,1.1c1.3,0.4,2.4,0.8,3.2,1.3c0.9,0.4,1.5,0.8,1.9,1
				l-3.2,9.1c-1.5-0.8-3.3-1.5-5.4-2.1c-2-0.6-4.4-0.9-6.9-0.9c-1.7,0-3.4,0.3-5.1,0.9c-1.7,0.6-3.1,1.5-4.4,2.8
				c-1.3,1.3-2.3,2.9-3.1,4.9c-0.8,2-1.2,4.5-1.2,7.3c0,2.3,0.3,4.5,0.8,6.4c0.5,2,1.3,3.7,2.4,5.1c1.1,1.4,2.6,2.6,4.4,3.4
				c1.8,0.8,4,1.3,6.6,1.3c1.6,0,3.1-0.1,4.4-0.3c1.3-0.2,2.4-0.4,3.5-0.7c1-0.3,1.9-0.6,2.7-0.9c0.8-0.3,1.5-0.6,2.1-0.9l3.1,9
				c-1.6,1-3.8,1.8-6.7,2.6c-2.9,0.8-6.2,1.2-10,1.2c-8.1,0-14.3-2.3-18.5-6.8s-6.4-10.9-6.4-19.2c0-4.1,0.6-7.8,1.9-11.1
				c1.3-3.2,3.1-6,5.3-8.2c2.3-2.2,4.9-3.9,8.1-5.1C119.8,262.3,123.2,261.7,126.9,261.7 M126.9,256.7c-4.2,0-8.2,0.7-11.9,2
				c-3.8,1.4-7.1,3.5-9.8,6.2c-2.7,2.7-4.9,6-6.5,9.9c-1.5,3.8-2.3,8.2-2.3,12.9c0,9.6,2.6,17.2,7.7,22.7c5.2,5.5,12.7,8.3,22.2,8.3
				c4.2,0,8-0.4,11.3-1.3c3.4-0.9,6-1.9,8-3.1l3.4-2.1l-1.3-3.8l-3.1-9l-1.8-5.2l-5,2.3c-0.6,0.3-1.3,0.6-2,0.9
				c-0.5,0.2-1.2,0.4-1.9,0.6c-0.8,0.2-1.8,0.4-2.9,0.6c-1,0.2-2.3,0.2-3.7,0.2c-1.9,0-3.4-0.3-4.5-0.8c-1.1-0.5-1.9-1.1-2.6-2
				c-0.7-0.9-1.2-2-1.5-3.3c-0.4-1.6-0.6-3.3-0.6-5.2c0-2.3,0.3-4.1,0.8-5.6c0.5-1.3,1.2-2.4,1.9-3.2c0.7-0.7,1.6-1.3,2.5-1.6
				c1.1-0.4,2.3-0.6,3.4-0.6c2.1,0,4,0.2,5.6,0.7c1.7,0.5,3.2,1,4.4,1.7l5.1,2.7l1.9-5.4l3.2-9.1l1.4-3.8l-3.4-2.1
				c-0.5-0.3-1.3-0.7-2.3-1.2c-1.1-0.6-2.4-1.1-4-1.6c-1.5-0.5-3.2-0.9-5.1-1.2C131.5,256.9,129.3,256.7,126.9,256.7L126.9,256.7z"
				/>
		</g>
		<g>
			<path class="st24" d="M171.1,316.3c-3.7,0-7.2-0.6-10.5-1.8c-3.3-1.2-6.3-3.1-8.8-5.5c-2.5-2.4-4.5-5.4-5.9-9
				c-1.4-3.5-2.1-7.6-2.1-12.2c0-4.6,0.7-8.7,2.2-12.2c1.5-3.5,3.5-6.6,6-9c2.5-2.4,5.5-4.3,8.8-5.5c3.3-1.2,6.7-1.8,10.3-1.8
				c3.7,0,7.2,0.6,10.5,1.8c3.3,1.2,6.3,3.1,8.8,5.5c2.5,2.4,4.5,5.5,5.9,9c1.4,3.5,2.1,7.6,2.1,12.2c0,4.6-0.7,8.7-2.1,12.2
				c-1.4,3.6-3.3,6.6-5.8,9c-2.5,2.4-5.4,4.3-8.8,5.5C178.4,315.7,174.8,316.3,171.1,316.3z M171.1,274.1c-1.7,0-3.2,0.3-4.5,0.9
				c-1.3,0.6-2.4,1.5-3.3,2.6c-0.9,1.2-1.6,2.6-2.2,4.3c-0.5,1.7-0.8,3.7-0.8,5.9c0,2.2,0.3,4.2,0.8,5.9c0.5,1.7,1.2,3.1,2.2,4.2
				c0.9,1.1,2,2,3.2,2.6c1.3,0.6,2.8,0.9,4.6,0.9c1.7,0,3.2-0.3,4.5-0.9c1.3-0.6,2.4-1.4,3.3-2.6c0.9-1.2,1.7-2.6,2.2-4.2
				c0.5-1.7,0.8-3.7,0.8-5.9c0-2.2-0.3-4.2-0.8-5.9c-0.5-1.7-1.2-3.1-2.2-4.3c-0.9-1.1-2-2-3.3-2.6
				C174.3,274.4,172.8,274.1,171.1,274.1z"/>
			<path class="st26" d="M171.1,261.7c3.4,0,6.6,0.6,9.6,1.7c3,1.1,5.7,2.8,7.9,5c2.3,2.2,4,4.9,5.3,8.2c1.3,3.2,1.9,7,1.9,11.3
				c0,4.3-0.6,8-1.9,11.3c-1.3,3.2-3,6-5.2,8.1c-2.2,2.2-4.8,3.8-7.9,4.9c-3,1.1-6.3,1.7-9.8,1.7c-3.4,0-6.6-0.6-9.6-1.7
				c-3-1.1-5.7-2.7-7.9-4.9c-2.3-2.2-4-4.9-5.3-8.1s-1.9-7-1.9-11.3c0-4.3,0.7-8,2-11.3c1.3-3.2,3.2-6,5.4-8.2
				c2.3-2.2,4.9-3.9,7.9-5C164.6,262.3,167.8,261.7,171.1,261.7 M171.1,303.9c2.1,0,3.9-0.4,5.6-1.2c1.7-0.8,3-1.9,4.2-3.3
				c1.1-1.4,2-3.1,2.6-5.1c0.6-2,0.9-4.2,0.9-6.6c0-2.4-0.3-4.7-0.9-6.7c-0.6-2-1.5-3.7-2.6-5.1c-1.1-1.4-2.5-2.5-4.2-3.3
				c-1.7-0.8-3.5-1.2-5.6-1.2c-2.1,0-4,0.4-5.6,1.2c-1.6,0.8-3,1.9-4.1,3.3c-1.1,1.4-2,3.1-2.6,5.1c-0.6,2-0.9,4.2-0.9,6.6
				c0,2.4,0.3,4.7,0.9,6.6c0.6,2,1.5,3.7,2.6,5.1c1.1,1.4,2.5,2.5,4.1,3.3C167.1,303.5,169,303.9,171.1,303.9 M171.1,256.7
				c-3.9,0-7.7,0.7-11.2,2c-3.6,1.3-6.9,3.4-9.7,6.1c-2.8,2.7-5,6-6.6,9.8c-1.6,3.8-2.4,8.3-2.4,13.2c0,4.9,0.8,9.3,2.3,13.1
				c1.6,3.9,3.7,7.2,6.5,9.9c2.7,2.7,6,4.7,9.7,6c3.6,1.3,7.4,2,11.4,2c4.1,0,7.9-0.7,11.5-2c3.7-1.3,7-3.4,9.7-6.1
				c2.7-2.7,4.8-6,6.4-9.9c1.5-3.8,2.3-8.2,2.3-13.1c0-4.9-0.8-9.3-2.3-13.1c-1.5-3.9-3.7-7.2-6.5-9.9c-2.8-2.7-6-4.7-9.7-6.1
				C178.9,257.4,175,256.7,171.1,256.7L171.1,256.7z M171.1,298.9c-1.4,0-2.5-0.2-3.5-0.7c-0.9-0.4-1.7-1.1-2.4-1.9
				c-0.7-0.9-1.3-2.1-1.7-3.4c-0.5-1.5-0.7-3.2-0.7-5.2c0-1.9,0.2-3.6,0.7-5.1c0.4-1.4,1-2.5,1.7-3.4c0.7-0.8,1.5-1.5,2.4-1.9
				c0.9-0.5,2.1-0.7,3.4-0.7c1.3,0,2.5,0.2,3.5,0.7c0.9,0.4,1.7,1,2.4,1.9c0.7,0.9,1.3,2.1,1.7,3.4c0.5,1.5,0.7,3.3,0.7,5.2
				c0,1.9-0.2,3.7-0.7,5.2c-0.4,1.4-1,2.5-1.7,3.4c-0.6,0.8-1.4,1.4-2.4,1.9C173.5,298.7,172.4,298.9,171.1,298.9L171.1,298.9z"/>
		</g>
		<g>
			<path class="st24" d="M237.3,315.3l-0.7-1.3c-3.2-5.6-6.6-11.3-10.3-16.8c-2.3-3.5-4.8-6.9-7.4-10.2v28.2h-16.1v-54.9h12.7
				l0.7,0.7c1.6,1.6,3.4,3.6,5.4,6c1.9,2.3,3.9,4.8,5.9,7.5c2,2.6,4,5.4,6,8.2c0.3,0.5,0.7,1,1,1.4v-23.8h16.2v54.9H237.3z"/>
			<path class="st26" d="M248.2,262.9v49.9h-9.4c-3.2-5.7-6.7-11.4-10.4-16.9c-3.7-5.6-7.7-10.8-12-15.8v32.7h-11.1v-49.9h9.1
				c1.6,1.6,3.3,3.5,5.3,5.8c1.9,2.3,3.9,4.8,5.9,7.4c2,2.6,4,5.3,5.9,8.1c2,2.8,3.8,5.5,5.5,8.1v-29.4H248.2 M253.2,257.9h-5H237
				h-5v5v13.5c-0.8-1.1-1.7-2.3-2.5-3.3c-2-2.7-4-5.2-6-7.6c-2-2.4-3.9-4.5-5.6-6.2l-1.5-1.5h-2.1h-9.1h-5v5v49.9v5h5h11.1h5v-5
				v-18.2c1,1.3,1.9,2.7,2.8,4c3.7,5.4,7.1,11,10.2,16.6l1.4,2.5h2.9h9.4h5v-5v-49.9V257.9L253.2,257.9z"/>
		</g>
		<g>
			<polygon class="st24" points="267.9,315.3 267.9,274.9 252.9,274.9 252.9,260.4 299.2,260.4 299.2,274.9 284.2,274.9 
				284.2,315.3 			"/>
			<path class="st26" d="M296.7,262.9v9.6h-15v40.3h-11.2v-40.3h-15v-9.6H296.7 M301.7,257.9h-5h-41.3h-5v5v9.6v5h5h10v35.3v5h5
				h11.2h5v-5v-35.3h10h5v-5v-9.6V257.9L301.7,257.9z"/>
		</g>
		<g>
			<rect x="301.4" y="260.4" class="st24" width="16.2" height="54.9"/>
			<path class="st26" d="M315.1,262.9v49.9h-11.2v-49.9H315.1 M320.1,257.9h-5h-11.2h-5v5v49.9v5h5h11.2h5v-5v-49.9V257.9
				L320.1,257.9z"/>
		</g>
		<g>
			<path class="st24" d="M358.7,315.3L358,314c-3.2-5.6-6.6-11.3-10.3-16.8c-2.3-3.5-4.8-6.9-7.4-10.2v28.2h-16.1v-54.9h12.7
				l0.7,0.7c1.6,1.6,3.4,3.6,5.4,6c1.9,2.3,3.9,4.8,5.9,7.5c2,2.6,4,5.4,6,8.2c0.3,0.5,0.7,1,1,1.4v-23.8h16.2v54.9H358.7z"/>
			<path class="st26" d="M369.6,262.9v49.9h-9.4c-3.2-5.7-6.7-11.4-10.4-16.9c-3.7-5.6-7.7-10.8-12-15.8v32.7h-11.1v-49.9h9.1
				c1.6,1.6,3.3,3.5,5.3,5.8c1.9,2.3,3.9,4.8,5.9,7.4c2,2.6,4,5.3,5.9,8.1c2,2.8,3.8,5.5,5.5,8.1v-29.4H369.6 M374.6,257.9h-5h-11.2
				h-5v5v13.5c-0.8-1.1-1.7-2.3-2.5-3.3c-2-2.7-4-5.2-6-7.6c-2-2.4-3.9-4.5-5.6-6.2l-1.5-1.5h-2.1h-9.1h-5v5v49.9v5h5h11.1h5v-5
				v-18.2c1,1.3,1.9,2.7,2.8,4c3.7,5.4,7.1,11,10.2,16.6l1.4,2.5h2.9h9.4h5v-5v-49.9V257.9L374.6,257.9z"/>
		</g>
		<g>
			<path class="st24" d="M400.6,316.3c-3.8,0-7.2-0.6-10-1.6c-2.9-1.1-5.3-2.7-7.2-4.7c-1.9-2-3.3-4.4-4.2-7.2
				c-0.9-2.7-1.3-5.6-1.3-8.8v-33.5h16.2V293c0,1.8,0.2,3.2,0.6,4.4c0.3,1.1,0.8,1.9,1.4,2.6c0.5,0.6,1.1,1,1.8,1.2
				c0.9,0.3,1.8,0.4,2.9,0.4c2.1,0,3.7-0.6,4.9-1.8c1.2-1.2,1.8-3.5,1.8-6.8v-32.6h16.2v33.5c0,3.2-0.5,6.2-1.4,8.9
				c-0.9,2.8-2.4,5.2-4.3,7.2c-1.9,2-4.4,3.6-7.3,4.7C407.8,315.7,404.4,316.3,400.6,316.3z"/>
			<path class="st26" d="M421.2,262.9v31c0,2.9-0.4,5.6-1.2,8.1s-2.1,4.5-3.7,6.3c-1.7,1.8-3.8,3.1-6.4,4.1c-2.6,1-5.7,1.4-9.2,1.4
				c-3.5,0-6.5-0.5-9.1-1.5c-2.5-1-4.6-2.4-6.3-4.1c-1.7-1.8-2.9-3.8-3.7-6.3c-0.8-2.4-1.2-5.1-1.2-8v-31h11.2V293
				c0,2,0.2,3.7,0.7,5.1c0.5,1.4,1.1,2.6,1.9,3.5c0.8,0.9,1.8,1.5,2.9,1.9c1.1,0.4,2.4,0.6,3.7,0.6c2.7,0,5-0.8,6.7-2.5
				c1.7-1.7,2.6-4.5,2.6-8.6v-30.1H421.2 M426.2,257.9h-5H410h-5v5V293c0,3.8-0.9,4.8-1.1,5c-0.5,0.5-1.3,1.1-3.1,1.1
				c-0.8,0-1.5-0.1-2.1-0.3c-0.3-0.1-0.5-0.3-0.8-0.5c-0.3-0.4-0.6-0.9-0.8-1.7c-0.2-0.6-0.4-1.8-0.4-3.6v-30.1v-5h-5h-11.2h-5v5v31
				c0,3.4,0.5,6.7,1.4,9.6c1,3.1,2.6,5.9,4.8,8.1c2.2,2.3,4.9,4.1,8.1,5.3c3.1,1.2,6.8,1.8,10.9,1.8c4.1,0,7.8-0.6,11-1.8
				c3.3-1.2,6.1-3,8.3-5.3c2.2-2.3,3.8-5,4.9-8.2c1-2.9,1.5-6.2,1.5-9.6v-31V257.9L426.2,257.9z"/>
		</g>
		<g>
			<polygon class="st24" points="429.5,315.3 429.5,260.4 468.2,260.4 468.2,274.8 445.7,274.8 445.7,279.6 465.7,279.6 
				465.7,293.8 445.7,293.8 445.7,300.8 469.8,300.8 469.8,315.3 			"/>
			<path class="st26" d="M465.7,262.9v9.4h-22.5v9.8h19.9v9.2h-19.9v12h24.1v9.4H432v-49.9H465.7 M470.7,257.9h-5H432h-5v5v49.9v5h5
				h35.4h5v-5v-9.4v-5h-5h-19.1v-2h14.9h5v-5v-9.2v-4.8h2.5v-5v-9.4V257.9L470.7,257.9z"/>
		</g>
	</g>
	<g>
		<path class="st37" d="M126.3,313.8c-8.1,0-14.3-2.3-18.5-6.8s-6.4-10.9-6.4-19.2c0-4.1,0.6-7.8,1.9-11.1s3.1-6,5.3-8.2
			c2.3-2.2,4.9-3.9,8.1-5.1c3.1-1.2,6.5-1.7,10.2-1.7c2.1,0,4,0.2,5.8,0.5c1.7,0.3,3.2,0.7,4.5,1.1c1.3,0.4,2.4,0.8,3.2,1.3
			c0.9,0.4,1.5,0.8,1.9,1l-3.2,9.1c-1.5-0.8-3.3-1.5-5.4-2.1c-2-0.6-4.4-0.9-6.9-0.9c-1.7,0-3.4,0.3-5.1,0.9
			c-1.7,0.6-3.1,1.5-4.4,2.8c-1.3,1.3-2.3,2.9-3.1,4.9c-0.8,2-1.2,4.5-1.2,7.3c0,2.3,0.3,4.5,0.8,6.4c0.5,2,1.3,3.7,2.4,5.1
			c1.1,1.4,2.6,2.6,4.4,3.4c1.8,0.8,4,1.3,6.6,1.3c1.6,0,3.1-0.1,4.4-0.3c1.3-0.2,2.4-0.4,3.5-0.7c1-0.3,1.9-0.6,2.7-0.9
			c0.8-0.3,1.5-0.6,2.1-0.9l3.1,9c-1.6,1-3.8,1.8-6.7,2.6C133.4,313.4,130.1,313.8,126.3,313.8z"/>
		<path class="st37" d="M195.9,287.8c0,4.3-0.6,8-1.9,11.3c-1.3,3.2-3,6-5.2,8.1c-2.2,2.2-4.8,3.8-7.9,4.9c-3,1.1-6.3,1.7-9.8,1.7
			c-3.4,0-6.6-0.6-9.6-1.7c-3-1.1-5.7-2.7-7.9-4.9c-2.3-2.2-4-4.9-5.3-8.1s-1.9-7-1.9-11.3c0-4.3,0.7-8,2-11.3
			c1.3-3.2,3.2-6,5.4-8.2c2.3-2.2,4.9-3.9,7.9-5c3-1.1,6.2-1.7,9.5-1.7c3.4,0,6.6,0.6,9.6,1.7c3,1.1,5.7,2.8,7.9,5
			c2.3,2.2,4,4.9,5.3,8.2C195.3,279.8,195.9,283.5,195.9,287.8z M157.8,287.8c0,2.4,0.3,4.7,0.9,6.6c0.6,2,1.5,3.7,2.6,5.1
			c1.1,1.4,2.5,2.5,4.1,3.3c1.6,0.8,3.5,1.2,5.6,1.2c2.1,0,3.9-0.4,5.6-1.2c1.7-0.8,3-1.9,4.2-3.3c1.1-1.4,2-3.1,2.6-5.1
			c0.6-2,0.9-4.2,0.9-6.6c0-2.4-0.3-4.7-0.9-6.7c-0.6-2-1.5-3.7-2.6-5.1c-1.1-1.4-2.5-2.5-4.2-3.3c-1.7-0.8-3.5-1.2-5.6-1.2
			c-2.1,0-4,0.4-5.6,1.2c-1.6,0.8-3,1.9-4.1,3.3c-1.1,1.4-2,3.1-2.6,5.1C158.1,283.2,157.8,285.4,157.8,287.8z"/>
		<path class="st37" d="M238.7,312.8c-3.2-5.7-6.7-11.4-10.4-16.9c-3.7-5.6-7.7-10.8-12-15.8v32.7h-11.1v-49.9h9.1
			c1.6,1.6,3.3,3.5,5.3,5.8c1.9,2.3,3.9,4.8,5.9,7.4c2,2.6,4,5.3,5.9,8.1c2,2.8,3.8,5.5,5.5,8.1v-29.4h11.2v49.9H238.7z"/>
		<path class="st37" d="M296.7,262.9v9.6h-15v40.3h-11.2v-40.3h-15v-9.6H296.7z"/>
		<path class="st37" d="M303.9,262.9h11.2v49.9h-11.2V262.9z"/>
		<path class="st37" d="M360.1,312.8c-3.2-5.7-6.7-11.4-10.4-16.9c-3.7-5.6-7.7-10.8-12-15.8v32.7h-11.1v-49.9h9.1
			c1.6,1.6,3.3,3.5,5.3,5.8c1.9,2.3,3.9,4.8,5.9,7.4c2,2.6,4,5.3,5.9,8.1c2,2.8,3.8,5.5,5.5,8.1v-29.4h11.2v49.9H360.1z"/>
		<path class="st37" d="M400.6,313.8c-3.5,0-6.5-0.5-9.1-1.5c-2.5-1-4.6-2.4-6.3-4.1c-1.7-1.8-2.9-3.8-3.7-6.3
			c-0.8-2.4-1.2-5.1-1.2-8v-31h11.2V293c0,2,0.2,3.7,0.7,5.1c0.5,1.4,1.1,2.6,1.9,3.5c0.8,0.9,1.8,1.5,2.9,1.9
			c1.1,0.4,2.4,0.6,3.7,0.6c2.7,0,5-0.8,6.7-2.5c1.7-1.7,2.6-4.5,2.6-8.6v-30.1h11.2v31c0,2.9-0.4,5.6-1.2,8.1s-2.1,4.5-3.7,6.3
			c-1.7,1.8-3.8,3.1-6.4,4.1C407.2,313.3,404.2,313.8,400.6,313.8z"/>
		<path class="st37" d="M432,312.8v-49.9h33.7v9.4h-22.5v9.8h19.9v9.2h-19.9v12h24.1v9.4H432z"/>
	</g>
</g>
</svg>
