<?xml version="1.0" encoding="utf-8"?>
<!-- Generator: Adobe Illustrator 21.0.2, SVG Export Plug-In . SVG Version: 6.00 Build 0)  -->
<svg version="1.1" id="Layer_1" xmlns="http://www.w3.org/2000/svg" xmlns:xlink="http://www.w3.org/1999/xlink" x="0px" y="0px"
	 viewBox="0 0 412.5 381.6" style="enable-background:new 0 0 412.5 381.6;" xml:space="preserve">
<style type="text/css">
	.st0{opacity:0.78;fill:#35322C;}
	.st1{opacity:0.48;fill:#23211D;}
	.st2{opacity:0.8;fill:#8C8967;}
	.st3{fill:#424234;}
	.st4{fill:url(#SVGID_1_);}
	.st5{opacity:0.25;fill:#F9F6BD;}
	.st6{opacity:0.3;fill:#23211D;}
	.st7{fill:url(#SVGID_2_);}
	.st8{filter:url(#Adobe_OpacityMaskFilter);}
	.st9{filter:url(#Adobe_OpacityMaskFilter_1_);}
	.st10{mask:url(#SVGID_3_);fill:url(#SVGID_4_);}
	.st11{opacity:0.67;fill:url(#SVGID_5_);}
	.st12{opacity:0.44;fill:#F9FFAE;}
	.st13{filter:url(#Adobe_OpacityMaskFilter_2_);}
	.st14{filter:url(#Adobe_OpacityMaskFilter_3_);}
	.st15{mask:url(#SVGID_6_);fill:url(#SVGID_7_);}
	.st16{opacity:0.7;fill:url(#SVGID_8_);}
	.st17{fill:#FFFFFF;}
	.st18{opacity:0.24;fill:#F1F70D;}
	.st19{fill:#8C8967;}
	.st20{opacity:0.42;fill:#F9F6BD;}
	.st21{opacity:0.26;fill:#443419;}
	.st22{opacity:0.53;fill:#261C0E;}
	.st23{opacity:0.44;fill:#261C0E;}
	.st24{opacity:0.65;}
	.st25{fill:#2B4706;}
	.st26{fill:#F4EA71;}
	.st27{fill:url(#SVGID_9_);}
	.st28{fill:url(#SVGID_10_);}
	.st29{filter:url(#Adobe_OpacityMaskFilter_4_);}
	.st30{filter:url(#Adobe_OpacityMaskFilter_5_);}
	.st31{mask:url(#SVGID_11_);fill:url(#SVGID_12_);}
	.st32{opacity:0.67;fill:url(#SVGID_13_);}
	.st33{filter:url(#Adobe_OpacityMaskFilter_6_);}
	.st34{filter:url(#Adobe_OpacityMaskFilter_7_);}
	.st35{mask:url(#SVGID_14_);fill:url(#SVGID_15_);}
	.st36{opacity:0.55;fill:url(#SVGID_16_);}
	.st37{fill:#4C3306;}
</style>
<g>
	<path class="st0" d="M1.1,101.5l1.6-25l29-43.4c0,0,27.7-21.8,46.6-21.8S334.4,5.5,349,9.9c14.6,4.4,45.1,34.9,45.1,34.9
		s18.9,43.7,16,55.3C407.2,111.7,1.1,101.5,1.1,101.5z"/>
	<path class="st1" d="M0,92.7l1.1,8.9l6.6,39.6c84.5,0.3,240.7,0.7,400.8,0.8c2.4-13.6,6.2-39.9,2.1-49.9C405.1,78.4,0,92.7,0,92.7z
		"/>
	<path class="st2" d="M78.3,11.3c18.9,0,256.1-5.8,270.7-1.5c14.6,4.4,45.1,34.9,45.1,34.9s9.8,22.7,14.2,39.7l0.6,0
		c0,0-8-34.1-8.5-39.2s-9.1-15.3-21.6-24.4c-12.5-9.1-21.6-18.2-36.9-18.7C326.5,1.6,132.2-3,85.1,3.3C37.9,9.5,34.5,22,27.7,26
		c-6,3.5-20.6,39.5-24.2,48.5c-0.5,1.3-0.8,2.1-0.8,2.1l29-43.4C31.7,33.1,59.3,11.3,78.3,11.3z"/>
</g>
<g>
	<path class="st3" d="M331.9,27.5c0,0-261.2-1.4-266.3,2.2C62,32.2,30,56.2,28.5,58C27.1,59.9,8.8,91.7,8.8,99.1
		c0,7.4,10,51.1,15.7,56.3c5.7,5.3,45.4,31.1,55.4,33.4c10,2.4,259.7,2.8,270-2.2c10.3-5,40.9-33.9,46-42.9c5.1-9,6.6-43.4,5.7-51.3
		c-0.9-7.9-19-38.3-19.7-39C354.3,30.1,331.9,27.5,331.9,27.5z"/>
	<linearGradient id="SVGID_1_" gradientUnits="userSpaceOnUse" x1="205.9792" y1="197.2296" x2="204.9093" y2="13.1957">
		<stop  offset="0" style="stop-color:#5C594A"/>
		<stop  offset="1" style="stop-color:#9E8080"/>
	</linearGradient>
	<path class="st4" d="M330.3,21.8c0,0-258.1-1.4-263.1,2.2c-3.5,2.5-35.2,26.5-36.6,28.3C29.2,54.1,11.2,86,11.2,93.4
		c0,7.4,9.9,51.1,15.5,56.3c5.6,5.3,44.9,31.1,54.8,33.4c9.9,2.4,256.6,2.8,266.8-2.2c10.2-5,40.4-33.9,45.4-42.9
		c5.1-9,6.5-43.4,5.6-51.3c-0.8-7.9-18.7-38.3-19.5-39C352.5,24.3,330.3,21.8,330.3,21.8z"/>
	<path class="st5" d="M62.8,99.5c9.8,0,312.7-9.1,312.7-9.1s12.2-3.6,23-6.8c-3.7-10.8-18-35.1-18.7-35.7
		c-27.4-23.5-49.5-26.1-49.5-26.1S72.3,20.4,67.2,24c-3.5,2.5-35.2,26.5-36.6,28.3C29.4,54,14,81.1,11.5,91.2
		C22.8,93.4,54.7,99.5,62.8,99.5z"/>
	<path class="st5" d="M361.9,62.4l17.8-14.7c-27.3-23.3-49.3-25.9-49.3-25.9S72.3,20.4,67.2,24c-3,2.2-27.3,20.5-34.6,26.5
		c5.3,3.2,11.4,6.3,17.2,8.1C65,63.1,361.9,62.4,361.9,62.4z"/>
	<path class="st6" d="M361.9,130.5c0,0-296.1-6.8-302.1-5.3c-4.9,1.2-25.9,17.1-34,23.3c0.3,0.5,0.6,0.9,0.9,1.2
		c5.6,5.3,44.9,31.1,54.8,33.4c9.9,2.4,256.6,2.8,266.8-2.2c9.6-4.7,37-30.7,44.3-41.1L361.9,130.5z"/>
	<path class="st6" d="M81.5,183.1c9.6,2.3,243.2,2.8,265.4-1.8c-7.1-16.7-22.1-35.7-22.1-35.7s-201.4-11.4-215.8-3.8
		c-10.9,5.7-23.1,29.7-28.4,41C80.9,183,81.2,183.1,81.5,183.1z"/>
	<path class="st1" d="M70.1,44.2c-15,3.2-35.9,18-39.5,51.2c-3.6,33.3,13,53.2,60.6,59.1c58.9,7.2,235.6,0.3,237.2,0.3
		c1.5,0,41.1-6.2,49.3-33.1c8.2-26.9-2.1-75.1-50.3-80.6C279.1,35.7,133.2,30.7,70.1,44.2z"/>
	
		<radialGradient id="SVGID_2_" cx="202.362" cy="16357.1367" r="186.6759" gradientTransform="matrix(0.9912 -7.300000e-03 0 0.3345 2.5975 -5386.0029)" gradientUnits="userSpaceOnUse">
		<stop  offset="0" style="stop-color:#D9F524"/>
		<stop  offset="0.1437" style="stop-color:#D5F425"/>
		<stop  offset="0.2875" style="stop-color:#C9F027"/>
		<stop  offset="0.4316" style="stop-color:#B5EB2B"/>
		<stop  offset="0.5758" style="stop-color:#99E231"/>
		<stop  offset="0.7203" style="stop-color:#74D838"/>
		<stop  offset="0.8628" style="stop-color:#49CB40"/>
		<stop  offset="1" style="stop-color:#17BD4A"/>
	</radialGradient>
	<path class="st7" d="M75,47.8c-14.4,3-34.6,16.7-38.1,47.7c-3.5,31,12.6,49.6,58.4,55c56.8,6.7,227.2,0.3,228.7,0.3
		c1.5,0,39.6-5.8,47.5-30.8c7.9-25-2-69.9-48.5-75C276.4,39.8,135.8,35.2,75,47.8z"/>
	<defs>
		<filter id="Adobe_OpacityMaskFilter" filterUnits="userSpaceOnUse" x="45.7" y="42.9" width="326" height="69.6">
			<feColorMatrix  type="matrix" values="1 0 0 0 0  0 1 0 0 0  0 0 1 0 0  0 0 0 1 0"/>
		</filter>
	</defs>
	<mask maskUnits="userSpaceOnUse" x="45.7" y="42.9" width="326" height="69.6" id="SVGID_3_">
		<g class="st8">
			<defs>
				<filter id="Adobe_OpacityMaskFilter_1_" filterUnits="userSpaceOnUse" x="45.7" y="42.9" width="326" height="69.6">
					<feFlood  style="flood-color:white;flood-opacity:1" result="back"/>
					<feBlend  in="SourceGraphic" in2="back" mode="normal"/>
				</filter>
			</defs>
			<mask maskUnits="userSpaceOnUse" x="45.7" y="42.9" width="326" height="69.6" id="SVGID_3_">
				<g class="st9">
				</g>
			</mask>
			<linearGradient id="SVGID_4_" gradientUnits="userSpaceOnUse" x1="207.309" y1="21.0221" x2="209.5799" y2="138.3539">
				<stop  offset="0" style="stop-color:#FFFFFF"/>
				<stop  offset="1" style="stop-color:#000000"/>
			</linearGradient>
			<path class="st10" d="M321.1,48.2C274.8,43,135.2,38.4,74.8,51c-9,1.9-20.4,8.1-28.4,20.1c-2.1,7.4-0.2,13.6,10.2,15.6
				C88.2,92.8,113,67.1,198.8,64c79.3-2.8,156.8,15.2,172.6,48.5C373.9,87.1,361.2,52.7,321.1,48.2z"/>
		</g>
	</mask>
	<linearGradient id="SVGID_5_" gradientUnits="userSpaceOnUse" x1="207.309" y1="21.0221" x2="209.5799" y2="138.3539">
		<stop  offset="0" style="stop-color:#FFFFFF"/>
		<stop  offset="1" style="stop-color:#A8F524"/>
	</linearGradient>
	<path class="st11" d="M321.1,48.2C274.8,43,135.2,38.4,74.8,51c-9,1.9-20.4,8.1-28.4,20.1c-2.1,7.4-0.2,13.6,10.2,15.6
		C88.2,92.8,113,67.1,198.8,64c79.3-2.8,156.8,15.2,172.6,48.5C373.9,87.1,361.2,52.7,321.1,48.2z"/>
	<path class="st12" d="M205.1,50.2c0,0-70.4,1.5-65.1,20.4c5.3,18.9,96.2,15.9,120.4,31.8c24.2,15.9,68.9,15.9,84.1,1.5
		C359.6,89.6,350.5,46.5,205.1,50.2z"/>
	<defs>
		<filter id="Adobe_OpacityMaskFilter_2_" filterUnits="userSpaceOnUse" x="36.6" y="107.7" width="335.7" height="45.9">
			<feColorMatrix  type="matrix" values="1 0 0 0 0  0 1 0 0 0  0 0 1 0 0  0 0 0 1 0"/>
		</filter>
	</defs>
	<mask maskUnits="userSpaceOnUse" x="36.6" y="107.7" width="335.7" height="45.9" id="SVGID_6_">
		<g class="st13">
			<defs>
				<filter id="Adobe_OpacityMaskFilter_3_" filterUnits="userSpaceOnUse" x="36.6" y="107.7" width="335.7" height="45.9">
					<feFlood  style="flood-color:white;flood-opacity:1" result="back"/>
					<feBlend  in="SourceGraphic" in2="back" mode="normal"/>
				</filter>
			</defs>
			<mask maskUnits="userSpaceOnUse" x="36.6" y="107.7" width="335.7" height="45.9" id="SVGID_6_">
				<g class="st14">
				</g>
			</mask>
			<linearGradient id="SVGID_7_" gradientUnits="userSpaceOnUse" x1="204.4439" y1="85.0737" x2="204.4439" y2="189.5757">
				<stop  offset="1.807230e-02" style="stop-color:#000000"/>
				<stop  offset="1" style="stop-color:#FFFFFF"/>
			</linearGradient>
			<path class="st15" d="M324,150.9c1.5,0,39.6-5.8,47.5-30.8c0.3-1,0.6-2,0.8-3c-35.8,23.3-81.8,6.9-124.8-4
				c-47.7-12.1-159,12.1-187.8,8.3c-10.9-1.4-18.3-7.2-23.2-13.7c1.8,23.7,19.2,38.1,58.7,42.8C152,157.3,322.5,150.9,324,150.9z"/>
		</g>
	</mask>
	<linearGradient id="SVGID_8_" gradientUnits="userSpaceOnUse" x1="204.4439" y1="85.0737" x2="204.4439" y2="189.5757">
		<stop  offset="1.807230e-02" style="stop-color:#00C433"/>
		<stop  offset="1" style="stop-color:#306E1C"/>
	</linearGradient>
	<path class="st16" d="M324,150.9c1.5,0,39.6-5.8,47.5-30.8c0.3-1,0.6-2,0.8-3c-35.8,23.3-81.8,6.9-124.8-4
		c-47.7-12.1-159,12.1-187.8,8.3c-10.9-1.4-18.3-7.2-23.2-13.7c1.8,23.7,19.2,38.1,58.7,42.8C152,157.3,322.5,150.9,324,150.9z"/>
	<path class="st17" d="M195.3,48c0,0-39.4,0-23.5,5.3c15.9,5.3,49.2,12.1,65.1,6.1C252.8,53.3,225.6,44.9,195.3,48z"/>
	<path class="st17" d="M269.5,51c0,0-17.4,1.5-10.6,7.6c6.8,6.1,29.5,6.8,35.6,6.1C300.5,63.9,299.8,49.5,269.5,51z"/>
	<path class="st18" d="M324,150.9c0.5,0,5.6-0.7,12.2-2.7c-24-0.4-52.8-6.5-81.1-13.1c-39.4-9.1-93.1-7.6-138.6,3.8
		c-20.8,5.2-38.6,5.6-51.7,4.6c8.2,3.3,18.3,5.7,30.5,7.1C152,157.3,322.5,150.9,324,150.9z"/>
	<path class="st18" d="M333.9,142.6c-31.8,4.5-129.5,3.8-178.7,3.8c-49.2,0-84.8-2.3-104.5-15.9c-9-6.2-12.8-17.1-14.2-27
		c0.1,26.2,17.1,42.1,58.9,47.1c56.8,6.7,227.2,0.3,228.7,0.3c1.5,0,39.6-5.8,47.5-30.8c0.4-1.2,0.7-2.5,1-3.9
		C363.7,128.2,350.4,140.3,333.9,142.6z"/>
	<path class="st19" d="M380.8,130.7c-1-2.2-2.1-6.7-2.5-11.2c-0.2,0.8-0.4,1.6-0.6,2.3c-8.2,26.9-47.7,33.1-49.3,33.1
		c-1.5,0-178.3,6.9-237.2-0.3c-38.4-4.7-56.6-18.6-60.3-41.2c0.3,3.8,1.3,10.7,3.7,14.9c3.5,6-1.8,11-3.9,11.7
		c-1.2,0.4-5,1.4-7.9,2.2c1.4,3.8,2.8,6.5,4,7.6c0.5,0.5,1.3,1.1,2.3,1.9c1.7-4.4,4.8-10.2,9.8-11c8.1-1.4,11.3,8.5,30.1,12.7
		c18.7,4.2,21.2,5.3,20.2,8.5c-0.9,2.7-6.5,15.7-10.1,20.5c1,0.4,1.8,0.7,2.5,0.9c0.7,0.2,2.4,0.3,5.1,0.5c1.8-7,6.6-23.9,11.7-23.9
		c6.4,0,74.6,2.1,100.4,2.5c25.8,0.4,112.8-1.8,120.9-1.8c8.1,0,18,6.7,19.5,13.1c0.7,3.2,0.3,6.4-0.4,8.8c5.2-0.4,8.5-0.8,9.5-1.3
		c1.3-0.6,2.8-1.6,4.6-2.9c-3.9-3.8-12.7-13-11.3-17.7c1.8-6,2.5-5.3,14.9-11.7c12.4-6.4,15.2-10.6,20.9-10.6c3.7,0,8,3.8,10.5,7.7
		c2.8-3.2,4.9-5.9,6-7.7c0.6-1.1,1.2-2.6,1.7-4.4C391.2,133.3,381.9,133.1,380.8,130.7z"/>
	<path class="st20" d="M399.3,86.8c-0.2-1.7-1.2-4.5-2.6-7.7c-5,3.9-13.5,9-16.9,1.6c-4.9-10.8-11.8-17.7-9.4-20.7
		c2-2.3,7-7.5,11-9.5c-0.9-1.5-1.5-2.5-1.7-2.6c-1.1-0.9-2.2-1.8-3.3-2.7c-3.7,4-9.8,9.5-13.9,7.9c-6.4-2.5-22.2-13.3-29.6-14.8
		c-5.6-1.1-0.1-9.4,4.6-14.8c-3.5-1.1-5.9-1.5-6.8-1.6c-0.3,3.9-1.5,8.3-5.1,11c-7.9,5.9-29.1,1.5-64,0c-35-1.5-134,1-142.9,1
		s-32.5,3.9-35.5,1.5c-1.8-1.5-6.5-7-9.7-12.1c-3.8,0.2-6,0.5-6.4,0.8c-0.1,0.1-0.3,0.2-0.5,0.3L76,36.8c0,0-3.9,3.9-5.9,4.4
		c-2,0.5-19.2,7.9-21.7,11.8c0,0-8.8-1.6-12.1-5.4c-3,2.3-5,4.1-5.5,4.6c2.3,0.9,4.4,2.2,5.3,4.3c2.5,5.4-3.4,12.8-5.4,21.7
		c-2,8.9-2.5,11.8-5.4,11.3c-2.1-0.3-8.6-1.2-12.2-2.9c-1.1,2.9-1.8,5.3-1.8,6.7c0,0.9,0.2,2.4,0.4,4.3c3.5-0.3,11.6-0.9,13.1,0.7
		c1,1,3.3,2.7,5.4,4.2c0-2.3,0.2-4.6,0.5-7.1c3.6-33.3,24.5-48,39.5-51.2c63.1-13.5,208.9-8.6,257.2-3c36.3,4.2,51.1,32.5,52.7,57.7
		c0.7-1.9,2.3-4.4,5.7-6.5c4.2-2.6,9.8-5.4,13.6-5C399.4,87.2,399.4,87,399.3,86.8z"/>
	<path class="st21" d="M127.2,33.2c2.2,0.5,4.3,0.8,6.4,1c15.3,1.6,28.5-3,31.3-12.5c0,0,0,0,0-0.1c-2.6,0-5.3,0-7.9,0
		c-2.9,3.8-7.9,7.1-16.5,7.1c-10.8,0-17-3-20.4-6.8c-3.7,0-7.2,0.1-10.6,0.1C112.7,26.4,118,31.2,127.2,33.2z"/>
	<path class="st21" d="M146.6,21.7c-5.9,0-11.6,0.1-17.1,0.1c1.4,1.2,3.5,2.4,6.4,3.2C141.6,26.6,144.9,24.5,146.6,21.7z"/>
	<path class="st22" d="M233.6,166c-20.5,2-31.1,13.8-34.7,18.9c4.4,0,8.8,0,13.2,0c3.7-12.4,28-15.7,42.7-12.6
		c9.3,1.9,15.1,7.7,18.4,12.1c3.8-0.1,7.5-0.1,11.2-0.2C281.2,176.6,256.8,163.7,233.6,166z"/>
	<path class="st22" d="M259.4,184.5c-1.3-3.9-10.7-8.4-20.4-6.1c-6,1.5-9.8,4.1-12.2,6.3C238,184.7,248.9,184.6,259.4,184.5z"/>
	<path class="st21" d="M389.5,64.5c-1.5-2.7-2.9-5.3-4.2-7.6c-2.1,0-4.4-0.4-6.8-1.2c-9.4-3.4-16.2-14-15.7-20.4c0,0,0,0,0-0.1
		c-3.3-2.1-6.4-3.8-9.3-5.3c0,3.4,1.4,8.4,6.3,15.1C369.8,58.7,379.5,66.3,389.5,64.5z"/>
	<path class="st21" d="M381.2,49.8c-0.7-1.2-1.2-1.9-1.3-2c-3.5-3-7-5.7-10.3-8.1c0,1.7,0.6,4,2.5,6.5
		C375.1,50.4,378.3,51,381.2,49.8z"/>
	<path class="st23" d="M53.4,151.4c-11.6-3.1-18.6-0.9-22.5,1.7c1.8,1.4,4.1,3,6.7,4.7c4.7-4.1,10.3-3.9,17.5,0.8
		c7.1,4.7,7.8,11.5,7.6,15.2c3.3,1.9,6.4,3.7,9.2,5.2C74.1,171.4,71.3,156.1,53.4,151.4z"/>
	<path class="st21" d="M251.9,36.5c4.2-4,12-7.6,20.6-6.8c7.4,0.7,12.6,4.8,15.7,8.4c3.9,0.2,7.6,0.5,11.2,0.7
		c-3.7-7.3-20.4-17.5-38-15c-14.8,2-23,8.4-26.8,12.2C240.5,36.1,246.3,36.3,251.9,36.5z"/>
	<path class="st21" d="M262.3,37.8c0,0,1.3-5.1,7.2-4.7c6,0.4,10.6,5.1,8.9,6.4C276.8,40.8,262.3,37.8,262.3,37.8z"/>
	<path class="st21" d="M25,62c-2.3,4.2-4.9,9.2-7.3,14c0.9,0.4,1.7,1,2.6,1.5c9.2,5.9,2.2,23.7-0.5,27c-1.2,1.5-3.8,2.6-6.3,3.4
		c0.6,2.7,1.2,5.5,1.9,8.5c0,0,0.1,0,0.1,0c9.7-2.7,10.8-12.4,11.9-33.4C27.8,74.3,26.6,67.3,25,62z"/>
</g>
<g class="st24">
	<g>
		<g>
			<path class="st25" d="M131.4,135.7v-27c-4.2-6.6-8.3-13.2-12.1-19.8c-3.9-6.8-7.8-13.9-11.4-21l-1.8-3.6h23.1l0.7,1.5
				c2,4.5,4.2,9.1,6.5,13.6c1.7,3.2,3.5,6.5,5.4,9.8c1.9-3.3,3.7-6.6,5.5-9.8c2.4-4.5,4.6-9,6.6-13.5l0.7-1.5h22.2l-1.8,3.6
				c-3.6,7.2-7.5,14.2-11.4,21c-3.8,6.5-7.8,13.2-12,19.7v27.2H131.4z"/>
			<path class="st26" d="M172.6,66.6c-3.6,7.2-7.4,14.1-11.3,20.8c-3.9,6.7-8,13.5-12.4,20.3v25.4h-15v-25.2
				c-4.4-6.8-8.5-13.6-12.4-20.4c-3.9-6.8-7.7-13.8-11.4-20.9h17.4c2,4.6,4.2,9.2,6.6,13.7c2.4,4.5,4.9,9.1,7.6,13.6
				c2.7-4.5,5.3-9.1,7.7-13.6c2.4-4.5,4.7-9.1,6.7-13.7H172.6 M180.7,61.6h-8.2h-16.5h-3.2l-1.3,3c-2,4.5-4.2,9-6.6,13.4
				c-1.1,2-2.2,4-3.3,5.9c-1.1-2-2.1-3.9-3.2-5.9c-2.3-4.4-4.5-8.9-6.5-13.4l-1.3-3h-3.2h-17.4h-8.2l3.7,7.3
				c3.7,7.2,7.5,14.3,11.5,21.2c3.7,6.4,7.7,12.9,11.8,19.3v23.8v5h5h15h5v-5v-24c4.1-6.4,8-12.9,11.7-19.2
				c3.9-6.8,7.8-13.9,11.5-21.1L180.7,61.6L180.7,61.6z"/>
		</g>
		<g>
			<polygon class="st25" points="178.2,135.7 178.2,64.1 228.2,64.1 228.2,81.7 198.2,81.7 198.2,89.8 224.8,89.8 224.8,107 
				198.2,107 198.2,118.1 230.4,118.1 230.4,135.7 			"/>
			<path class="st26" d="M225.7,66.6v12.6h-30v13.1h26.6v12.3h-26.6v16h32.2v12.6h-47.1V66.6H225.7 M230.7,61.6h-5h-44.9h-5v5v66.5
				v5h5h47.1h5v-5v-12.6v-5h-5h-27.2v-6h21.6h5v-5V92.3v-5h-5h-21.6v-3.1h25h5v-5V66.6V61.6L230.7,61.6z"/>
		</g>
		<g>
			<path class="st25" d="M257.1,137c-3,0-5.9-0.2-8.3-0.6c-2.5-0.4-4.7-0.8-6.6-1.4c-1.9-0.5-3.6-1.1-5-1.8
				c-1.4-0.6-2.6-1.2-3.5-1.8l-1.8-1l5.9-16.6l2.6,1.4c1.8,1,4.1,1.9,6.9,2.7c2.7,0.8,6,1.2,10,1.2c1.9,0,3.4-0.2,4.6-0.5
				c1.1-0.3,1.9-0.6,2.5-1c0.4-0.3,0.7-0.7,0.9-1c0.2-0.5,0.3-1.2,0.3-1.9c0-0.8-0.2-2.1-2-3.4c-1.8-1.3-5.2-2.7-9.9-4.3
				c-2.3-0.8-4.5-1.7-6.8-2.7c-2.4-1.1-4.6-2.5-6.5-4.1c-2-1.7-3.6-3.8-4.8-6.2c-1.3-2.5-1.9-5.5-1.9-9c0-3.4,0.7-6.6,2-9.4
				c1.3-2.8,3.2-5.2,5.6-7.2c2.4-1.9,5.2-3.4,8.5-4.4c3.2-1,6.9-1.5,10.9-1.5c4.7,0,8.8,0.5,12.3,1.5c3.4,1,6.3,2.1,8.6,3.4l1.9,1
				l-6,16.5l-2.5-1.3c-1.7-0.9-3.7-1.7-5.8-2.4c-2-0.7-4.5-1-7.4-1c-4,0-5.7,0.7-6.4,1.1c-0.6,0.4-1.2,1-1.2,2.4
				c0,0.7,0.1,1.2,0.4,1.6c0.4,0.6,1,1.1,1.7,1.6c0.9,0.6,2,1.1,3.2,1.6c1.3,0.5,2.8,1.1,4.5,1.6c3.6,1.3,6.7,2.6,9.3,3.9
				c2.8,1.4,5.2,3,7,4.8c2,1.9,3.4,4.2,4.4,6.8c0.9,2.5,1.4,5.6,1.4,9c0,7-2.5,12.5-7.5,16.4C273.5,135.1,266.4,137,257.1,137z"/>
			<path class="st26" d="M260.4,65.1c4.5,0,8.4,0.5,11.6,1.4c3.3,1,6,2,8.1,3.2l-4.3,11.8c-1.9-1-3.9-1.8-6.2-2.5
				c-2.3-0.7-5-1.1-8.2-1.1c-3.6,0-6.2,0.5-7.7,1.5c-1.6,1-2.4,2.5-2.4,4.6c0,1.2,0.3,2.2,0.9,3.1c0.6,0.8,1.4,1.6,2.4,2.3
				s2.3,1.3,3.6,1.8c1.4,0.5,2.9,1.1,4.6,1.7c3.5,1.3,6.5,2.5,9,3.8c2.6,1.2,4.7,2.7,6.4,4.4c1.7,1.7,3,3.6,3.8,5.9
				c0.8,2.2,1.2,5,1.2,8.2c0,6.2-2.2,11-6.5,14.4c-4.4,3.4-10.9,5.1-19.7,5.1c-2.9,0-5.6-0.2-8-0.5c-2.4-0.4-4.5-0.8-6.3-1.3
				c-1.8-0.5-3.4-1.1-4.7-1.6c-1.3-0.6-2.4-1.1-3.3-1.6l4.2-11.9c2,1.1,4.4,2.1,7.3,2.9c2.9,0.9,6.5,1.3,10.7,1.3
				c2.1,0,3.9-0.2,5.2-0.5c1.4-0.4,2.5-0.8,3.3-1.4c0.8-0.6,1.4-1.3,1.7-2.2c0.3-0.8,0.5-1.8,0.5-2.8c0-2.2-1-4-3.1-5.4
				c-2-1.4-5.6-3-10.6-4.7c-2.2-0.8-4.4-1.6-6.5-2.6c-2.2-1-4.1-2.2-5.9-3.7c-1.7-1.5-3.1-3.3-4.2-5.5c-1.1-2.1-1.6-4.8-1.6-7.8
				c0-3.1,0.6-5.8,1.7-8.3c1.2-2.5,2.8-4.6,4.9-6.3c2.1-1.7,4.7-3.1,7.7-4C253.2,65.6,256.6,65.1,260.4,65.1 M260.4,60.1
				c-4.3,0-8.2,0.5-11.6,1.6c-3.6,1.1-6.8,2.8-9.4,4.9c-2.7,2.2-4.8,4.9-6.3,8c-1.5,3.1-2.2,6.6-2.2,10.4c0,3.9,0.7,7.2,2.2,10.1
				c1.4,2.7,3.2,5.1,5.4,7c2.1,1.8,4.5,3.3,7.1,4.5c2.3,1,4.6,2,6.9,2.8l0,0l0,0c5.6,1.9,8.1,3.2,9.3,4c0.9,0.7,0.9,1.1,0.9,1.3
				c0,0.3,0,0.6-0.1,0.9c0,0,0,0-0.1,0c-0.1,0.1-0.6,0.4-1.6,0.6c-0.7,0.2-1.9,0.4-4,0.4c-3.7,0-6.8-0.4-9.3-1.1
				c-2.6-0.8-4.7-1.6-6.4-2.5l-5.2-2.8l-2,5.5l-4.2,11.9l-1.4,3.9l3.6,2.1c1.1,0.6,2.3,1.2,3.8,1.9c1.5,0.7,3.3,1.3,5.4,1.9
				c2,0.6,4.3,1,6.9,1.4c2.6,0.4,5.5,0.6,8.7,0.6c10,0,17.5-2,22.8-6.2c5.6-4.4,8.4-10.6,8.4-18.4c0-3.8-0.5-7.1-1.6-9.9
				c-1.1-2.9-2.8-5.5-5-7.7c-2.1-2-4.7-3.8-7.7-5.3c-2.7-1.3-5.9-2.7-9.5-4l-0.1,0l-0.1,0c-1.6-0.6-3.1-1.1-4.4-1.6
				c-1.1-0.4-2-0.9-2.8-1.4c-0.6-0.4-0.8-0.7-1-0.8c0,0,0-0.1,0-0.3c0-0.2,0-0.3,0-0.3c0,0,0,0,0,0c0.1-0.1,1.2-0.7,5.1-0.7
				c2.7,0,4.9,0.3,6.7,0.9c2,0.7,3.8,1.4,5.4,2.2l5,2.6l2-5.3l4.3-11.8l1.5-4l-3.8-2.1c-2.4-1.3-5.4-2.5-9-3.6
				C269.7,60.6,265.3,60.1,260.4,60.1L260.4,60.1z"/>
		</g>
	</g>
</g>
<g>
	<g>
		<path class="st25" d="M141.6,93.9c2.7-4.5,5.3-9.1,7.7-13.6c2.4-4.5,4.7-9.1,6.7-13.7h16.5c-3.6,7.2-7.4,14.1-11.3,20.8
			c-3.9,6.7-8,13.5-12.4,20.3v25.4h-15v-25.2c-4.4-6.8-8.5-13.6-12.4-20.4c-3.9-6.8-7.7-13.8-11.4-20.9h17.4c2,4.6,4.2,9.2,6.6,13.7
			C136.4,84.8,139,89.4,141.6,93.9z"/>
		<path class="st25" d="M180.7,133.2V66.6h44.9v12.6h-30v13.1h26.6v12.3h-26.6v16h32.2v12.6H180.7z"/>
		<path class="st25" d="M257.1,121.7c2.1,0,3.9-0.2,5.2-0.5c1.4-0.4,2.5-0.8,3.3-1.4c0.8-0.6,1.4-1.3,1.7-2.2
			c0.3-0.8,0.5-1.8,0.5-2.8c0-2.2-1-4-3.1-5.4c-2-1.4-5.6-3-10.6-4.7c-2.2-0.8-4.4-1.6-6.5-2.6c-2.2-1-4.1-2.2-5.9-3.7
			c-1.7-1.5-3.1-3.3-4.2-5.5c-1.1-2.1-1.6-4.8-1.6-7.8c0-3.1,0.6-5.8,1.7-8.3c1.2-2.5,2.8-4.6,4.9-6.3c2.1-1.7,4.7-3.1,7.7-4
			c3-0.9,6.4-1.4,10.2-1.4c4.5,0,8.4,0.5,11.6,1.4s6,2,8.1,3.2l-4.3,11.8c-1.9-1-3.9-1.8-6.2-2.5c-2.3-0.7-5-1.1-8.2-1.1
			c-3.6,0-6.2,0.5-7.7,1.5c-1.6,1-2.4,2.5-2.4,4.6c0,1.2,0.3,2.2,0.9,3.1c0.6,0.8,1.4,1.6,2.4,2.3c1.1,0.7,2.3,1.3,3.6,1.8
			c1.4,0.5,2.9,1.1,4.6,1.7c3.5,1.3,6.5,2.5,9,3.8c2.6,1.2,4.7,2.7,6.4,4.4c1.7,1.7,3,3.6,3.8,5.9c0.8,2.2,1.2,5,1.2,8.2
			c0,6.2-2.2,11-6.5,14.4c-4.4,3.4-10.9,5.1-19.7,5.1c-2.9,0-5.6-0.2-8-0.5c-2.4-0.4-4.5-0.8-6.3-1.3c-1.8-0.5-3.4-1.1-4.7-1.6
			c-1.3-0.6-2.4-1.1-3.3-1.6l4.2-11.9c2,1.1,4.4,2.1,7.3,2.9C249.3,121.3,252.8,121.7,257.1,121.7z"/>
	</g>
</g>
<g id="Layer_2">
	<g>
		<path class="st0" d="M1.1,292.5l1.6-25l29-43.4c0,0,27.7-21.8,46.6-21.8s256.1-5.8,270.7-1.5c14.6,4.4,45.1,34.9,45.1,34.9
			s18.9,43.7,16,55.3C407.2,302.7,1.1,292.5,1.1,292.5z"/>
		<path class="st1" d="M0,283.7l1.1,8.9l6.6,39.6c84.5,0.3,240.7,0.7,400.8,0.8c2.4-13.6,6.2-39.9,2.1-49.9
			C405.1,269.4,0,283.7,0,283.7z"/>
		<path class="st2" d="M78.3,202.3c18.9,0,256.1-5.8,270.7-1.5c14.6,4.4,45.1,34.9,45.1,34.9s9.8,22.7,14.2,39.7l0.6,0
			c0,0-8-34.1-8.5-39.2s-9.1-15.3-21.6-24.4c-12.5-9.1-21.6-18.2-36.9-18.7c-15.3-0.6-209.6-5.1-256.8,1.1
			C37.9,200.5,34.5,213,27.7,217c-6,3.5-20.6,39.5-24.2,48.5c-0.5,1.3-0.8,2.1-0.8,2.1l29-43.4C31.7,224.1,59.3,202.3,78.3,202.3z"
			/>
	</g>
	<g>
		<path class="st3" d="M331.9,218.5c0,0-261.2-1.4-266.3,2.2c-3.5,2.5-35.6,26.5-37,28.3c-1.4,1.8-19.7,33.7-19.7,41.1
			c0,7.4,10,51.1,15.7,56.3c5.7,5.3,45.4,31.1,55.4,33.4c10,2.4,259.7,2.8,270-2.2c10.3-5,40.9-33.9,46-42.9
			c5.1-9,6.6-43.4,5.7-51.3c-0.9-7.9-19-38.3-19.7-39C354.3,221.1,331.9,218.5,331.9,218.5z"/>
		<linearGradient id="SVGID_9_" gradientUnits="userSpaceOnUse" x1="205.9792" y1="388.2296" x2="204.9093" y2="204.1956">
			<stop  offset="0" style="stop-color:#5C594A"/>
			<stop  offset="1" style="stop-color:#9E8080"/>
		</linearGradient>
		<path class="st27" d="M330.3,212.8c0,0-258.1-1.4-263.1,2.2c-3.5,2.5-35.2,26.5-36.6,28.3c-1.4,1.8-19.5,33.7-19.5,41.1
			c0,7.4,9.9,51.1,15.5,56.3c5.6,5.3,44.9,31.1,54.8,33.4c9.9,2.4,256.6,2.8,266.8-2.2c10.2-5,40.4-33.9,45.4-42.9
			c5.1-9,6.5-43.4,5.6-51.3c-0.8-7.9-18.7-38.3-19.5-39C352.5,215.3,330.3,212.8,330.3,212.8z"/>
		<path class="st5" d="M62.8,290.5c9.8,0,312.7-9.1,312.7-9.1s12.2-3.6,23-6.8c-3.7-10.8-18-35.1-18.7-35.7
			c-27.4-23.5-49.5-26.1-49.5-26.1S72.3,211.4,67.2,215c-3.5,2.5-35.2,26.5-36.6,28.3c-1.3,1.7-16.7,28.8-19.2,38.9
			C22.8,284.4,54.7,290.5,62.8,290.5z"/>
		<path class="st5" d="M361.9,253.4l17.8-14.7c-27.3-23.3-49.3-25.9-49.3-25.9S72.3,211.4,67.2,215c-3,2.2-27.3,20.5-34.6,26.5
			c5.3,3.2,11.4,6.3,17.2,8.1C65,254.1,361.9,253.4,361.9,253.4z"/>
		<path class="st6" d="M361.9,321.5c0,0-296.1-6.8-302.1-5.3c-4.9,1.2-25.9,17.1-34,23.3c0.3,0.5,0.6,0.9,0.9,1.2
			c5.6,5.3,44.9,31.1,54.8,33.4c9.9,2.4,256.6,2.8,266.8-2.2c9.6-4.7,37-30.7,44.3-41.1L361.9,321.5z"/>
		<path class="st6" d="M81.5,374.1c9.6,2.3,243.2,2.8,265.4-1.8c-7.1-16.7-22.1-35.7-22.1-35.7s-201.4-11.4-215.8-3.8
			c-10.9,5.7-23.1,29.7-28.4,41C80.9,374,81.2,374.1,81.5,374.1z"/>
		<path class="st1" d="M70.1,235.2c-15,3.2-35.9,18-39.5,51.2c-3.6,33.3,13,53.2,60.6,59.1c58.9,7.2,235.6,0.3,237.2,0.3
			c1.5,0,41.1-6.2,49.3-33.1c8.2-26.9-2.1-75.1-50.3-80.6C279.1,226.7,133.2,221.7,70.1,235.2z"/>
		
			<radialGradient id="SVGID_10_" cx="202.362" cy="16928.1387" r="186.6759" gradientTransform="matrix(0.9912 -7.300000e-03 0 0.3345 2.5975 -5386.0029)" gradientUnits="userSpaceOnUse">
			<stop  offset="0" style="stop-color:#E9D000"/>
			<stop  offset="0.3289" style="stop-color:#EBCC02"/>
			<stop  offset="0.658" style="stop-color:#F3C009"/>
			<stop  offset="0.9863" style="stop-color:#FEAC14"/>
			<stop  offset="1" style="stop-color:#FFAB15"/>
		</radialGradient>
		<path class="st28" d="M75,238.8c-14.4,3-34.6,16.7-38.1,47.7c-3.5,31,12.6,49.6,58.4,55c56.8,6.7,227.2,0.3,228.7,0.3
			c1.5,0,39.6-5.8,47.5-30.8c7.9-25-2-69.9-48.5-75C276.4,230.8,135.8,226.2,75,238.8z"/>
		<defs>
			<filter id="Adobe_OpacityMaskFilter_4_" filterUnits="userSpaceOnUse" x="45.7" y="233.9" width="326" height="69.6">
				<feColorMatrix  type="matrix" values="1 0 0 0 0  0 1 0 0 0  0 0 1 0 0  0 0 0 1 0"/>
			</filter>
		</defs>
		<mask maskUnits="userSpaceOnUse" x="45.7" y="233.9" width="326" height="69.6" id="SVGID_11_">
			<g class="st29">
				<defs>
					<filter id="Adobe_OpacityMaskFilter_5_" filterUnits="userSpaceOnUse" x="45.7" y="233.9" width="326" height="69.6">
						<feFlood  style="flood-color:white;flood-opacity:1" result="back"/>
						<feBlend  in="SourceGraphic" in2="back" mode="normal"/>
					</filter>
				</defs>
				<mask maskUnits="userSpaceOnUse" x="45.7" y="233.9" width="326" height="69.6" id="SVGID_11_">
					<g class="st30">
					</g>
				</mask>
				<linearGradient id="SVGID_12_" gradientUnits="userSpaceOnUse" x1="207.309" y1="212.0221" x2="209.5799" y2="329.3539">
					<stop  offset="0" style="stop-color:#FFFFFF"/>
					<stop  offset="1" style="stop-color:#000000"/>
				</linearGradient>
				<path class="st31" d="M321.1,239.2c-46.2-5.1-185.9-9.8-246.3,2.8c-9,1.9-20.4,8.1-28.4,20.1c-2.1,7.4-0.2,13.6,10.2,15.6
					c31.6,6.1,56.4-19.7,142.1-22.7c79.3-2.8,156.8,15.2,172.6,48.5C373.9,278.1,361.2,243.7,321.1,239.2z"/>
			</g>
		</mask>
		<linearGradient id="SVGID_13_" gradientUnits="userSpaceOnUse" x1="207.309" y1="212.0221" x2="209.5799" y2="329.3539">
			<stop  offset="0" style="stop-color:#FFFFFF"/>
			<stop  offset="1" style="stop-color:#FFEC15"/>
		</linearGradient>
		<path class="st32" d="M321.1,239.2c-46.2-5.1-185.9-9.8-246.3,2.8c-9,1.9-20.4,8.1-28.4,20.1c-2.1,7.4-0.2,13.6,10.2,15.6
			c31.6,6.1,56.4-19.7,142.1-22.7c79.3-2.8,156.8,15.2,172.6,48.5C373.9,278.1,361.2,243.7,321.1,239.2z"/>
		<path class="st12" d="M205.1,241.2c0,0-70.4,1.5-65.1,20.4c5.3,18.9,96.2,15.9,120.4,31.8c24.2,15.9,68.9,15.9,84.1,1.5
			C359.6,280.6,350.5,237.5,205.1,241.2z"/>
		<defs>
			<filter id="Adobe_OpacityMaskFilter_6_" filterUnits="userSpaceOnUse" x="36.6" y="298.7" width="335.7" height="45.9">
				<feColorMatrix  type="matrix" values="1 0 0 0 0  0 1 0 0 0  0 0 1 0 0  0 0 0 1 0"/>
			</filter>
		</defs>
		<mask maskUnits="userSpaceOnUse" x="36.6" y="298.7" width="335.7" height="45.9" id="SVGID_14_">
			<g class="st33">
				<defs>
					<filter id="Adobe_OpacityMaskFilter_7_" filterUnits="userSpaceOnUse" x="36.6" y="298.7" width="335.7" height="45.9">
						<feFlood  style="flood-color:white;flood-opacity:1" result="back"/>
						<feBlend  in="SourceGraphic" in2="back" mode="normal"/>
					</filter>
				</defs>
				<mask maskUnits="userSpaceOnUse" x="36.6" y="298.7" width="335.7" height="45.9" id="SVGID_14_">
					<g class="st34">
					</g>
				</mask>
				<linearGradient id="SVGID_15_" gradientUnits="userSpaceOnUse" x1="204.4439" y1="276.0737" x2="204.4439" y2="380.5757">
					<stop  offset="1.807230e-02" style="stop-color:#000000"/>
					<stop  offset="1" style="stop-color:#FFFFFF"/>
				</linearGradient>
				<path class="st35" d="M324,341.9c1.5,0,39.6-5.8,47.5-30.8c0.3-1,0.6-2,0.8-3c-35.8,23.3-81.8,6.9-124.8-4
					c-47.7-12.1-159,12.1-187.8,8.3c-10.9-1.4-18.3-7.2-23.2-13.7c1.8,23.7,19.2,38.1,58.7,42.8C152,348.3,322.5,341.9,324,341.9z"
					/>
			</g>
		</mask>
		<linearGradient id="SVGID_16_" gradientUnits="userSpaceOnUse" x1="204.4439" y1="276.0737" x2="204.4439" y2="380.5757">
			<stop  offset="1.807250e-02" style="stop-color:#6A5B00"/>
			<stop  offset="1" style="stop-color:#E9BD00"/>
		</linearGradient>
		<path class="st36" d="M324,341.9c1.5,0,39.6-5.8,47.5-30.8c0.3-1,0.6-2,0.8-3c-35.8,23.3-81.8,6.9-124.8-4
			c-47.7-12.1-159,12.1-187.8,8.3c-10.9-1.4-18.3-7.2-23.2-13.7c1.8,23.7,19.2,38.1,58.7,42.8C152,348.3,322.5,341.9,324,341.9z"/>
		<path class="st17" d="M195.3,239c0,0-39.4,0-23.5,5.3c15.9,5.3,49.2,12.1,65.1,6.1C252.8,244.3,225.6,235.9,195.3,239z"/>
		<path class="st17" d="M269.5,242c0,0-17.4,1.5-10.6,7.6c6.8,6.1,29.5,6.8,35.6,6.1C300.5,254.9,299.8,240.5,269.5,242z"/>
		<path class="st18" d="M324,341.9c0.5,0,5.6-0.7,12.2-2.7c-24-0.4-52.8-6.5-81.1-13.1c-39.4-9.1-93.1-7.6-138.6,3.8
			c-20.8,5.2-38.6,5.6-51.7,4.6c8.2,3.3,18.3,5.7,30.5,7.1C152,348.3,322.5,341.9,324,341.9z"/>
		<path class="st18" d="M333.9,333.6c-31.8,4.5-129.5,3.8-178.7,3.8c-49.2,0-84.8-2.3-104.5-15.9c-9-6.2-12.8-17.1-14.2-27
			c0.1,26.2,17.1,42.1,58.9,47.1c56.8,6.7,227.2,0.3,228.7,0.3c1.5,0,39.6-5.8,47.5-30.8c0.4-1.2,0.7-2.5,1-3.9
			C363.7,319.2,350.4,331.3,333.9,333.6z"/>
		<path class="st19" d="M380.8,321.7c-1-2.2-2.1-6.7-2.5-11.2c-0.2,0.8-0.4,1.6-0.6,2.3c-8.2,26.9-47.7,33.1-49.3,33.1
			c-1.5,0-178.3,6.9-237.2-0.3c-38.4-4.7-56.6-18.6-60.3-41.2c0.3,3.8,1.3,10.7,3.7,14.9c3.5,6-1.8,11-3.9,11.7
			c-1.2,0.4-5,1.4-7.9,2.2c1.4,3.8,2.8,6.5,4,7.6c0.5,0.5,1.3,1.1,2.3,1.9c1.7-4.4,4.8-10.2,9.8-11c8.1-1.4,11.3,8.5,30.1,12.7
			c18.7,4.2,21.2,5.3,20.2,8.5c-0.9,2.7-6.5,15.7-10.1,20.5c1,0.4,1.8,0.7,2.5,0.9c0.7,0.2,2.4,0.3,5.1,0.5
			c1.8-7,6.6-23.9,11.7-23.9c6.4,0,74.6,2.1,100.4,2.5c25.8,0.4,112.8-1.8,120.9-1.8c8.1,0,18,6.7,19.5,13.1
			c0.7,3.2,0.3,6.4-0.4,8.8c5.2-0.4,8.5-0.8,9.5-1.3c1.3-0.6,2.8-1.6,4.6-2.9c-3.9-3.8-12.7-13-11.3-17.7c1.8-6,2.5-5.3,14.9-11.7
			c12.4-6.4,15.2-10.6,20.9-10.6c3.7,0,8,3.8,10.5,7.7c2.8-3.2,4.9-5.9,6-7.7c0.6-1.1,1.2-2.6,1.7-4.4
			C391.2,324.3,381.9,324.1,380.8,321.7z"/>
		<path class="st20" d="M399.3,277.8c-0.2-1.7-1.2-4.5-2.6-7.7c-5,3.9-13.5,9-16.9,1.6c-4.9-10.8-11.8-17.7-9.4-20.7
			c2-2.3,7-7.5,11-9.5c-0.9-1.5-1.5-2.5-1.7-2.6c-1.1-0.9-2.2-1.8-3.3-2.7c-3.7,4-9.8,9.5-13.9,7.9c-6.4-2.5-22.2-13.3-29.6-14.8
			c-5.6-1.1-0.1-9.4,4.6-14.8c-3.5-1.1-5.9-1.5-6.8-1.6c-0.3,3.9-1.5,8.3-5.1,11c-7.9,5.9-29.1,1.5-64,0c-35-1.5-134,1-142.9,1
			s-32.5,3.9-35.5,1.5c-1.8-1.5-6.5-7-9.7-12.1c-3.8,0.2-6,0.5-6.4,0.8c-0.1,0.1-0.3,0.2-0.5,0.3l9.2,12.5c0,0-3.9,3.9-5.9,4.4
			c-2,0.5-19.2,7.9-21.7,11.8c0,0-8.8-1.6-12.1-5.4c-3,2.3-5,4.1-5.5,4.6c2.3,0.9,4.4,2.2,5.3,4.3c2.5,5.4-3.4,12.8-5.4,21.7
			c-2,8.9-2.5,11.8-5.4,11.3c-2.1-0.3-8.6-1.2-12.2-2.9c-1.1,2.9-1.8,5.3-1.8,6.7c0,0.9,0.2,2.4,0.4,4.3c3.5-0.3,11.6-0.9,13.1,0.7
			c1,1,3.3,2.7,5.4,4.2c0-2.3,0.2-4.6,0.5-7.1c3.6-33.3,24.5-48,39.5-51.2c63.1-13.5,208.9-8.6,257.2-3
			c36.3,4.2,51.1,32.5,52.7,57.7c0.7-1.9,2.3-4.4,5.7-6.5c4.2-2.6,9.8-5.4,13.6-5C399.4,278.2,399.4,278,399.3,277.8z"/>
		<path class="st21" d="M127.2,224.2c2.2,0.5,4.3,0.8,6.4,1c15.3,1.6,28.5-3,31.3-12.5c0,0,0,0,0-0.1c-2.6,0-5.3,0-7.9,0
			c-2.9,3.8-7.9,7.1-16.5,7.1c-10.8,0-17-3-20.4-6.8c-3.7,0-7.2,0.1-10.6,0.1C112.7,217.4,118,222.2,127.2,224.2z"/>
		<path class="st21" d="M146.6,212.7c-5.9,0-11.6,0.1-17.1,0.1c1.4,1.2,3.5,2.4,6.4,3.2C141.6,217.6,144.9,215.5,146.6,212.7z"/>
		<path class="st22" d="M233.6,357c-20.5,2-31.1,13.8-34.7,18.9c4.4,0,8.8,0,13.2,0c3.7-12.4,28-15.7,42.7-12.6
			c9.3,1.9,15.1,7.7,18.4,12.1c3.8-0.1,7.5-0.1,11.2-0.2C281.2,367.6,256.8,354.7,233.6,357z"/>
		<path class="st22" d="M259.4,375.5c-1.3-3.9-10.7-8.4-20.4-6.1c-6,1.5-9.8,4.1-12.2,6.3C238,375.7,248.9,375.6,259.4,375.5z"/>
		<path class="st21" d="M389.5,255.5c-1.5-2.7-2.9-5.3-4.2-7.6c-2.1,0-4.4-0.4-6.8-1.2c-9.4-3.4-16.2-14-15.7-20.4c0,0,0,0,0-0.1
			c-3.3-2.1-6.4-3.8-9.3-5.3c0,3.4,1.4,8.4,6.3,15.1C369.8,249.7,379.5,257.3,389.5,255.5z"/>
		<path class="st21" d="M381.2,240.8c-0.7-1.2-1.2-1.9-1.3-2c-3.5-3-7-5.7-10.3-8.1c0,1.7,0.6,4,2.5,6.5
			C375.1,241.4,378.3,242,381.2,240.8z"/>
		<path class="st23" d="M53.4,342.4c-11.6-3.1-18.6-0.9-22.5,1.7c1.8,1.4,4.1,3,6.7,4.7c4.7-4.1,10.3-3.9,17.5,0.8
			c7.1,4.7,7.8,11.5,7.6,15.2c3.3,1.9,6.4,3.7,9.2,5.2C74.1,362.4,71.3,347.1,53.4,342.4z"/>
		<path class="st21" d="M251.9,227.5c4.2-4,12-7.6,20.6-6.8c7.4,0.7,12.6,4.8,15.7,8.4c3.9,0.2,7.6,0.5,11.2,0.7
			c-3.7-7.3-20.4-17.5-38-15c-14.8,2-23,8.4-26.8,12.2C240.5,227.1,246.3,227.3,251.9,227.5z"/>
		<path class="st21" d="M262.3,228.8c0,0,1.3-5.1,7.2-4.7c6,0.4,10.6,5.1,8.9,6.4C276.8,231.8,262.3,228.8,262.3,228.8z"/>
		<path class="st21" d="M25,253c-2.3,4.2-4.9,9.2-7.3,14c0.9,0.4,1.7,1,2.6,1.5c9.2,5.9,2.2,23.7-0.5,27c-1.2,1.5-3.8,2.6-6.3,3.4
			c0.6,2.7,1.2,5.5,1.9,8.5c0,0,0.1,0,0.1,0c9.7-2.7,10.8-12.4,11.9-33.4C27.8,265.3,26.6,258.3,25,253z"/>
	</g>
	<g class="st24">
		<g>
			<g>
				<path class="st25" d="M131.4,326.7v-27c-4.2-6.6-8.3-13.2-12.1-19.8c-3.9-6.8-7.8-13.9-11.4-21l-1.8-3.6h23.1l0.7,1.5
					c2,4.5,4.2,9.1,6.5,13.6c1.7,3.2,3.5,6.5,5.4,9.8c1.9-3.3,3.7-6.6,5.5-9.8c2.4-4.5,4.6-9,6.6-13.5l0.7-1.5h22.2l-1.8,3.6
					c-3.6,7.2-7.5,14.2-11.4,21c-3.8,6.5-7.8,13.2-12,19.7v27.2H131.4z"/>
				<path class="st26" d="M172.6,257.6c-3.6,7.2-7.4,14.1-11.3,20.8c-3.9,6.7-8,13.5-12.4,20.3v25.4h-15v-25.2
					c-4.4-6.8-8.5-13.6-12.4-20.4c-3.9-6.8-7.7-13.8-11.4-20.9h17.4c2,4.6,4.2,9.2,6.6,13.7c2.4,4.5,4.9,9.1,7.6,13.6
					c2.7-4.5,5.3-9.1,7.7-13.6c2.4-4.5,4.7-9.1,6.7-13.7H172.6 M180.7,252.6h-8.2h-16.5h-3.2l-1.3,3c-2,4.5-4.2,9-6.6,13.4
					c-1.1,2-2.2,4-3.3,5.9c-1.1-2-2.1-3.9-3.2-5.9c-2.3-4.4-4.5-8.9-6.5-13.4l-1.3-3h-3.2h-17.4h-8.2l3.7,7.3
					c3.7,7.2,7.5,14.3,11.5,21.2c3.7,6.4,7.7,12.9,11.8,19.3v23.8v5h5h15h5v-5v-24c4.1-6.4,8-12.9,11.7-19.2
					c3.9-6.8,7.8-13.9,11.5-21.1L180.7,252.6L180.7,252.6z"/>
			</g>
			<g>
				<polygon class="st25" points="178.2,326.7 178.2,255.1 228.2,255.1 228.2,272.7 198.2,272.7 198.2,280.8 224.8,280.8 224.8,298 
					198.2,298 198.2,309.1 230.4,309.1 230.4,326.7 				"/>
				<path class="st26" d="M225.7,257.6v12.6h-30v13.1h26.6v12.3h-26.6v16h32.2v12.6h-47.1v-66.5H225.7 M230.7,252.6h-5h-44.9h-5v5
					v66.5v5h5h47.1h5v-5v-12.6v-5h-5h-27.2v-6h21.6h5v-5v-12.3v-5h-5h-21.6v-3.1h25h5v-5v-12.6V252.6L230.7,252.6z"/>
			</g>
			<g>
				<path class="st25" d="M257.1,328c-3,0-5.9-0.2-8.3-0.6c-2.5-0.4-4.7-0.8-6.6-1.4c-1.9-0.5-3.6-1.1-5-1.8
					c-1.4-0.6-2.6-1.2-3.5-1.8l-1.8-1l5.9-16.6l2.6,1.4c1.8,1,4.1,1.9,6.9,2.7c2.7,0.8,6,1.2,10,1.2c1.9,0,3.4-0.2,4.6-0.5
					c1.1-0.3,1.9-0.6,2.5-1c0.4-0.3,0.7-0.7,0.9-1c0.2-0.5,0.3-1.2,0.3-1.9c0-0.8-0.2-2.1-2-3.4c-1.8-1.3-5.2-2.7-9.9-4.3
					c-2.3-0.8-4.5-1.7-6.8-2.7c-2.4-1.1-4.6-2.5-6.5-4.1c-2-1.7-3.6-3.8-4.8-6.2c-1.3-2.5-1.9-5.5-1.9-9c0-3.4,0.7-6.6,2-9.4
					c1.3-2.8,3.2-5.2,5.6-7.2c2.4-1.9,5.2-3.4,8.5-4.4c3.2-1,6.9-1.5,10.9-1.5c4.7,0,8.8,0.5,12.3,1.5c3.4,1,6.3,2.1,8.6,3.4l1.9,1
					l-6,16.5l-2.5-1.3c-1.7-0.9-3.7-1.7-5.8-2.4c-2-0.7-4.5-1-7.4-1c-4,0-5.7,0.7-6.4,1.1c-0.6,0.4-1.2,1-1.2,2.4
					c0,0.7,0.1,1.2,0.4,1.6c0.4,0.6,1,1.1,1.7,1.6c0.9,0.6,2,1.1,3.2,1.6c1.3,0.5,2.8,1.1,4.5,1.6c3.6,1.3,6.7,2.6,9.3,3.9
					c2.8,1.4,5.2,3,7,4.8c2,1.9,3.4,4.2,4.4,6.8c0.9,2.5,1.4,5.6,1.4,9c0,7-2.5,12.5-7.5,16.4C273.5,326.1,266.4,328,257.1,328z"/>
				<path class="st26" d="M260.4,256.1c4.5,0,8.4,0.5,11.6,1.4c3.3,1,6,2,8.1,3.2l-4.3,11.8c-1.9-1-3.9-1.8-6.2-2.5
					c-2.3-0.7-5-1.1-8.2-1.1c-3.6,0-6.2,0.5-7.7,1.5c-1.6,1-2.4,2.5-2.4,4.6c0,1.2,0.3,2.2,0.9,3.1c0.6,0.8,1.4,1.6,2.4,2.3
					s2.3,1.3,3.6,1.8c1.4,0.5,2.9,1.1,4.6,1.7c3.5,1.3,6.5,2.5,9,3.8c2.6,1.2,4.7,2.7,6.4,4.4c1.7,1.7,3,3.6,3.8,5.9
					c0.8,2.2,1.2,5,1.2,8.2c0,6.2-2.2,11-6.5,14.4c-4.4,3.4-10.9,5.1-19.7,5.1c-2.9,0-5.6-0.2-8-0.5c-2.4-0.4-4.5-0.8-6.3-1.3
					c-1.8-0.5-3.4-1.1-4.7-1.6c-1.3-0.6-2.4-1.1-3.3-1.6l4.2-11.9c2,1.1,4.4,2.1,7.3,2.9c2.9,0.9,6.5,1.3,10.7,1.3
					c2.1,0,3.9-0.2,5.2-0.5c1.4-0.4,2.5-0.8,3.3-1.4c0.8-0.6,1.4-1.3,1.7-2.2c0.3-0.8,0.5-1.8,0.5-2.8c0-2.2-1-4-3.1-5.4
					c-2-1.4-5.6-3-10.6-4.7c-2.2-0.8-4.4-1.6-6.5-2.6c-2.2-1-4.1-2.2-5.9-3.7c-1.7-1.5-3.1-3.3-4.2-5.5c-1.1-2.1-1.6-4.8-1.6-7.8
					c0-3.1,0.6-5.8,1.7-8.3c1.2-2.5,2.8-4.6,4.9-6.3c2.1-1.7,4.7-3.1,7.7-4C253.2,256.6,256.6,256.1,260.4,256.1 M260.4,251.1
					c-4.3,0-8.2,0.5-11.6,1.6c-3.6,1.1-6.8,2.8-9.4,4.9c-2.7,2.2-4.8,4.9-6.3,8c-1.5,3.1-2.2,6.6-2.2,10.4c0,3.9,0.7,7.2,2.2,10.1
					c1.4,2.7,3.2,5.1,5.4,7c2.1,1.8,4.5,3.3,7.1,4.5c2.3,1,4.6,2,6.9,2.8l0,0l0,0c5.6,1.9,8.1,3.2,9.3,4c0.9,0.7,0.9,1.1,0.9,1.3
					c0,0.3,0,0.6-0.1,0.9c0,0,0,0-0.1,0c-0.1,0.1-0.6,0.4-1.6,0.6c-0.7,0.2-1.9,0.4-4,0.4c-3.7,0-6.8-0.4-9.3-1.1
					c-2.6-0.8-4.7-1.6-6.4-2.5l-5.2-2.8l-2,5.5l-4.2,11.9l-1.4,3.9l3.6,2.1c1.1,0.6,2.3,1.2,3.8,1.9c1.5,0.7,3.3,1.3,5.4,1.9
					c2,0.6,4.3,1,6.9,1.4c2.6,0.4,5.5,0.6,8.7,0.6c10,0,17.5-2,22.8-6.2c5.6-4.4,8.4-10.6,8.4-18.4c0-3.8-0.5-7.1-1.6-9.9
					c-1.1-2.9-2.8-5.5-5-7.7c-2.1-2-4.7-3.8-7.7-5.3c-2.7-1.3-5.9-2.7-9.5-4l-0.1,0l-0.1,0c-1.6-0.6-3.1-1.1-4.4-1.6
					c-1.1-0.4-2-0.9-2.8-1.4c-0.6-0.4-0.8-0.7-1-0.8c0,0,0-0.1,0-0.3c0-0.2,0-0.3,0-0.3c0,0,0,0,0,0c0.1-0.1,1.2-0.7,5.1-0.7
					c2.7,0,4.9,0.3,6.7,0.9c2,0.7,3.8,1.4,5.4,2.2l5,2.6l2-5.3l4.3-11.8l1.5-4l-3.8-2.1c-2.4-1.3-5.4-2.5-9-3.6
					C269.7,251.6,265.3,251.1,260.4,251.1L260.4,251.1z"/>
			</g>
		</g>
	</g>
	<g>
		<path class="st37" d="M141.6,284.9c2.7-4.5,5.3-9.1,7.7-13.6c2.4-4.5,4.7-9.1,6.7-13.7h16.5c-3.6,7.2-7.4,14.1-11.3,20.8
			c-3.9,6.7-8,13.5-12.4,20.3v25.4h-15v-25.2c-4.4-6.8-8.5-13.6-12.4-20.4c-3.9-6.8-7.7-13.8-11.4-20.9h17.4c2,4.6,4.2,9.2,6.6,13.7
			C136.4,275.8,139,280.4,141.6,284.9z"/>
		<path class="st37" d="M180.7,324.2v-66.5h44.9v12.6h-30v13.1h26.6v12.3h-26.6v16h32.2v12.6H180.7z"/>
		<path class="st37" d="M257.1,312.7c2.1,0,3.9-0.2,5.2-0.5c1.4-0.4,2.5-0.8,3.3-1.4c0.8-0.6,1.4-1.3,1.7-2.2
			c0.3-0.8,0.5-1.8,0.5-2.8c0-2.2-1-4-3.1-5.4c-2-1.4-5.6-3-10.6-4.7c-2.2-0.8-4.4-1.6-6.5-2.6c-2.2-1-4.1-2.2-5.9-3.7
			c-1.7-1.5-3.1-3.3-4.2-5.5c-1.1-2.1-1.6-4.8-1.6-7.8c0-3.1,0.6-5.8,1.7-8.3c1.2-2.5,2.8-4.6,4.9-6.3c2.1-1.7,4.7-3.1,7.7-4
			c3-0.9,6.4-1.4,10.2-1.4c4.5,0,8.4,0.5,11.6,1.4s6,2,8.1,3.2l-4.3,11.8c-1.9-1-3.9-1.8-6.2-2.5c-2.3-0.7-5-1.1-8.2-1.1
			c-3.6,0-6.2,0.5-7.7,1.5c-1.6,1-2.4,2.5-2.4,4.6c0,1.2,0.3,2.2,0.9,3.1c0.6,0.8,1.4,1.6,2.4,2.3c1.1,0.7,2.3,1.3,3.6,1.8
			c1.4,0.5,2.9,1.1,4.6,1.7c3.5,1.3,6.5,2.5,9,3.8c2.6,1.2,4.7,2.7,6.4,4.4c1.7,1.7,3,3.6,3.8,5.9c0.8,2.2,1.2,5,1.2,8.2
			c0,6.2-2.2,11-6.5,14.4c-4.4,3.4-10.9,5.1-19.7,5.1c-2.9,0-5.6-0.2-8-0.5c-2.4-0.4-4.5-0.8-6.3-1.3c-1.8-0.5-3.4-1.1-4.7-1.6
			c-1.3-0.6-2.4-1.1-3.3-1.6l4.2-11.9c2,1.1,4.4,2.1,7.3,2.9C249.3,312.3,252.8,312.7,257.1,312.7z"/>
	</g>
</g>
</svg>
