<?xml version="1.0" encoding="utf-8"?>
<!-- Generator: Adobe Illustrator 21.0.2, SVG Export Plug-In . SVG Version: 6.00 Build 0)  -->
<svg version="1.1" xmlns="http://www.w3.org/2000/svg" xmlns:xlink="http://www.w3.org/1999/xlink" x="0px" y="0px"
	 viewBox="0 0 412.4 381" style="enable-background:new 0 0 412.4 381;" xml:space="preserve">
<style type="text/css">
	.st0{opacity:0.78;fill:#35322C;enable-background:new    ;}
	.st1{opacity:0.48;fill:#23211D;enable-background:new    ;}
	.st2{opacity:0.8;fill:#8C8967;enable-background:new    ;}
	.st3{fill:#424234;}
	.st4{fill:url(#SVGID_1_);}
	.st5{opacity:0.25;fill:#F9F6BD;enable-background:new    ;}
	.st6{opacity:0.3;fill:#23211D;enable-background:new    ;}
	.st7{fill:url(#SVGID_2_);}
	.st8{opacity:0.67;fill:url(#SVGID_3_);enable-background:new    ;}
	.st9{opacity:0.44;fill:#FFCAB0;enable-background:new    ;}
	.st10{opacity:0.7;fill:url(#SVGID_4_);enable-background:new    ;}
	.st11{fill:#FFFFFF;}
	.st12{opacity:0.24;fill:#F48EE1;enable-background:new    ;}
	.st13{opacity:0.24;fill:#FFBE5F;enable-background:new    ;}
	.st14{fill:#8C8967;}
	.st15{opacity:0.42;fill:#F9F6BD;enable-background:new    ;}
	.st16{opacity:0.26;fill:#443419;enable-background:new    ;}
	.st17{opacity:0.53;fill:#261C0E;enable-background:new    ;}
	.st18{opacity:0.44;fill:#261C0E;enable-background:new    ;}
	.st19{opacity:0.6;}
	.st20{fill:#540516;}
	.st21{fill:#FCBBC9;}
	.st22{fill:url(#SVGID_5_);}
	.st23{fill:url(#SVGID_6_);}
	.st24{opacity:0.3;fill:#261919;}
	.st25{opacity:0.67;fill:url(#SVGID_7_);enable-background:new    ;}
	.st26{opacity:0.34;fill:#FFCAB0;enable-background:new    ;}
	.st27{opacity:0.7;fill:url(#SVGID_8_);enable-background:new    ;}
	.st28{fill:#490013;}
</style>
<g id="Layer_1">
	<g>
		<g>
			<path class="st0" d="M1.1,101.5l1.6-25l29-43.4c0,0,27.7-21.8,46.6-21.8S334.4,5.5,349,9.8c14.6,4.4,45.1,34.9,45.1,34.9
				s18.9,43.7,16,55.3C407.2,111.7,1.1,101.5,1.1,101.5z"/>
			<path class="st1" d="M0,92.7l1.1,8.9l6.6,39.6c84.5,0.3,240.7,0.7,400.8,0.8c2.4-13.6,6.2-39.9,2.1-49.9
				C405.1,78.4,0,92.7,0,92.7z"/>
			<path class="st2" d="M78.3,11.3c18.9,0,256.1-5.8,270.7-1.5c14.6,4.4,45.1,34.9,45.1,34.9s9.8,22.7,14.2,39.7h0.6
				c0,0-8-34.1-8.5-39.2c-0.6-5.1-9.1-15.3-21.6-24.4S357.2,2.6,341.9,2.1C326.5,1.6,132.2-3,85.1,3.3C37.9,9.5,34.5,22,27.7,26
				c-6,3.5-20.6,39.5-24.2,48.5c-0.5,1.3-0.8,2.1-0.8,2.1l29-43.4C31.7,33.1,59.3,11.3,78.3,11.3z"/>
		</g>
		<path class="st3" d="M335.1,27c0,0-261.2-1.4-266.3,2.2c-3.5,2.5-35.6,26.5-37,28.3C30.3,59.4,12,91.2,12,98.6s10,51.1,15.7,56.3
			c5.7,5.3,45.4,31.1,55.4,33.4c10,2.4,259.7,2.8,270-2.2s40.9-33.9,46-42.9s6.6-43.4,5.7-51.3s-19-38.3-19.7-39
			C357.5,29.6,335.1,27,335.1,27z"/>
		
			<linearGradient id="SVGID_1_" gradientUnits="userSpaceOnUse" x1="209.1817" y1="-388.7275" x2="208.1118" y2="-204.6934" gradientTransform="matrix(1 0 0 -1 0 -192.0239)">
			<stop  offset="0" style="stop-color:#5C594A"/>
			<stop  offset="1" style="stop-color:#9E8080"/>
		</linearGradient>
		<path class="st4" d="M333.6,21.3c0,0-258.1-1.4-263.1,2.2C67,26,35.3,50,33.9,51.8c-1.4,1.8-19.5,33.7-19.5,41.1
			c0,7.4,9.9,51.1,15.5,56.3c5.6,5.3,44.9,31.1,54.8,33.4c9.9,2.4,256.6,2.8,266.8-2.2s40.4-33.9,45.4-42.9c5.1-9,6.5-43.4,5.6-51.3
			c-0.8-7.9-18.7-38.3-19.5-39C355.7,23.8,333.6,21.3,333.6,21.3z"/>
		<path class="st5" d="M66,99c9.8,0,312.7-9.1,312.7-9.1s12.2-3.6,23-6.8C398,72.3,383.7,48,383,47.4
			c-27.4-23.5-49.5-26.1-49.5-26.1s-258-1.4-263,2.2C67,26,35.3,50,33.9,51.8c-1.3,1.7-16.7,28.8-19.2,38.9C26.1,92.9,57.9,99,66,99
			z"/>
		<path class="st5" d="M365.1,61.9l17.8-14.7c-27.3-23.3-49.3-25.9-49.3-25.9S75.5,19.9,70.5,23.5C67.5,25.6,43.2,44,35.9,50
			c5.3,3.2,11.4,6.3,17.2,8.1C68.3,62.6,365.1,61.9,365.1,61.9z"/>
		<path class="st6" d="M365.1,130c0,0-296.1-6.8-302.1-5.3c-4.9,1.2-25.9,17.1-34,23.3c0.3,0.5,0.6,0.9,0.9,1.2
			c5.6,5.3,44.9,31.1,54.8,33.4c9.9,2.4,256.6,2.8,266.8-2.2c9.6-4.7,37-30.7,44.3-41.1L365.1,130z"/>
		<path class="st6" d="M84.7,182.6c9.6,2.3,243.2,2.8,265.4-1.8c-7.1-16.7-22.1-35.7-22.1-35.7s-201.4-11.4-215.8-3.8
			c-10.9,5.7-23.1,29.7-28.4,41C84.1,182.5,84.4,182.6,84.7,182.6z"/>
		<path class="st1" d="M73.4,43.7c-15,3.2-35.9,18-39.5,51.2c-3.6,33.3,13,53.2,60.6,59.1c58.9,7.2,235.6,0.3,237.2,0.3
			c1.5,0,41.1-6.2,49.3-33.1c8.2-26.9-2.1-75.1-50.3-80.6C282.3,35.2,136.5,30.2,73.4,43.7z"/>
		
			<radialGradient id="SVGID_2_" cx="218.3017" cy="-18111.0664" r="186.676" gradientTransform="matrix(0.9912 -7.300000e-03 0 -0.3345 -9.9686 -5973.1021)" gradientUnits="userSpaceOnUse">
			<stop  offset="0" style="stop-color:#F0804F"/>
			<stop  offset="0.1724" style="stop-color:#EE7C4E"/>
			<stop  offset="0.345" style="stop-color:#E7704A"/>
			<stop  offset="0.5178" style="stop-color:#DB5C44"/>
			<stop  offset="0.6908" style="stop-color:#CB403C"/>
			<stop  offset="0.8623" style="stop-color:#B61C31"/>
			<stop  offset="0.9749" style="stop-color:#A60029"/>
		</radialGradient>
		<path class="st7" d="M78.2,47.3C63.8,50.3,43.6,64,40.1,95s12.6,49.6,58.4,55c56.8,6.7,227.2,0.3,228.7,0.3s39.6-5.8,47.5-30.8
			s-2-69.9-48.5-75C279.7,39.3,139,34.7,78.2,47.3z"/>
		
			<linearGradient id="SVGID_3_" gradientUnits="userSpaceOnUse" x1="210.4818" y1="-212.521" x2="212.7527" y2="-329.8525" gradientTransform="matrix(1 0 0 -1 0 -192.0239)">
			<stop  offset="0" style="stop-color:#FFFFFF"/>
			<stop  offset="1" style="stop-color:#EB3B24"/>
		</linearGradient>
		<path class="st8" d="M324.3,47.7c-46.2-5.1-185.9-9.8-246.3,2.8c-9,1.9-20.4,8.1-28.4,20.1c-2.1,7.4-0.2,13.6,10.2,15.6
			c31.6,6.1,56.4-19.7,142.1-22.7c79.3-2.8,156.8,15.2,172.6,48.5C377.1,86.6,364.4,52.2,324.3,47.7z"/>
		<path class="st9" d="M208.4,49.7c0,0-70.4,1.5-65.1,20.4c5.3,18.9,96.2,15.9,120.4,31.8s68.9,15.9,84.1,1.5
			C362.8,89.1,353.7,46,208.4,49.7z"/>
		
			<linearGradient id="SVGID_4_" gradientUnits="userSpaceOnUse" x1="207.6" y1="-276.5714" x2="207.6" y2="-381.0732" gradientTransform="matrix(1 0 0 -1 0 -192.0239)">
			<stop  offset="1.807230e-02" style="stop-color:#AB240F"/>
			<stop  offset="1" style="stop-color:#5C140F"/>
		</linearGradient>
		<path class="st10" d="M327.2,150.4c1.5,0,39.6-5.8,47.5-30.8c0.3-1,0.6-2,0.8-3c-35.8,23.3-81.8,6.9-124.8-4
			c-47.7-12.1-159,12.1-187.8,8.3c-10.9-1.4-18.3-7.2-23.2-13.7c1.8,23.7,19.2,38.1,58.7,42.8C155.3,156.8,325.7,150.4,327.2,150.4z
			"/>
		<path class="st11" d="M198.5,47.5c0,0-39.4,0-23.5,5.3s49.2,12.1,65.1,6.1C256.1,52.8,228.8,44.4,198.5,47.5z"/>
		<path class="st11" d="M272.7,50.5c0,0-17.4,1.5-10.6,7.6s29.5,6.8,35.6,6.1C303.8,63.4,303,49,272.7,50.5z"/>
		<path class="st12" d="M327.2,150.4c0.5,0,5.6-0.7,12.2-2.7c-24-0.4-52.8-6.5-81.1-13.1c-39.4-9.1-93.1-7.6-138.6,3.8
			C99,143.5,81.2,144,68,142.9c8.2,3.3,18.3,5.7,30.5,7.1C155.3,156.8,325.7,150.4,327.2,150.4z"/>
		<path class="st13" d="M337.1,142.1c-31.8,4.5-129.5,3.8-178.7,3.8S73.6,143.6,53.9,130c-9-6.2-12.8-17.1-14.2-27
			c0.1,26.2,17.1,42.1,58.9,47.1c56.8,6.7,227.2,0.3,228.7,0.3s39.6-5.8,47.5-30.8c0.4-1.2,0.7-2.5,1-3.9
			C367,127.7,353.7,139.8,337.1,142.1z"/>
		<path class="st14" d="M384,130.2c-1-2.2-2.1-6.7-2.5-11.2c-0.2,0.8-0.4,1.6-0.6,2.3c-8.2,26.9-47.7,33.1-49.3,33.1
			c-1.5,0-178.3,6.9-237.2-0.3c-38.4-4.7-56.6-18.6-60.3-41.2c0.3,3.8,1.3,10.7,3.7,14.9c3.5,6-1.8,11-3.9,11.7
			c-1.2,0.4-5,1.4-7.9,2.2c1.4,3.8,2.8,6.5,4,7.6c0.5,0.5,1.3,1.1,2.3,1.9c1.7-4.4,4.8-10.2,9.8-11c8.1-1.4,11.3,8.5,30.1,12.7
			c18.7,4.2,21.2,5.3,20.2,8.5c-0.9,2.7-6.5,15.7-10.1,20.5c1,0.4,1.8,0.7,2.5,0.9s2.4,0.3,5.1,0.5c1.8-7,6.6-23.9,11.7-23.9
			c6.4,0,74.6,2.1,100.4,2.5s112.8-1.8,120.9-1.8s18,6.7,19.5,13.1c0.7,3.2,0.3,6.4-0.4,8.8c5.2-0.4,8.5-0.8,9.5-1.3
			c1.3-0.6,2.8-1.6,4.6-2.9c-3.9-3.8-12.7-13-11.3-17.7c1.8-6,2.5-5.3,14.9-11.7s15.2-10.6,20.9-10.6c3.7,0,8,3.8,10.5,7.7
			c2.8-3.2,4.9-5.9,6-7.7c0.6-1.1,1.2-2.6,1.7-4.4C394.5,132.8,385.1,132.6,384,130.2z"/>
		<path class="st15" d="M402.6,86.3c-0.2-1.7-1.2-4.5-2.6-7.7c-5,3.9-13.5,9-16.9,1.6c-4.9-10.8-11.8-17.7-9.4-20.7
			c2-2.3,7-7.5,11-9.5c-0.9-1.5-1.5-2.5-1.7-2.6c-1.1-0.9-2.2-1.8-3.3-2.7c-3.7,4-9.8,9.5-13.9,7.9c-6.4-2.5-22.2-13.3-29.6-14.8
			c-5.6-1.1-0.1-9.4,4.6-14.8c-3.5-1.1-5.9-1.5-6.8-1.6c-0.3,3.9-1.5,8.3-5.1,11c-7.9,5.9-29.1,1.5-64,0c-35-1.5-134,1-142.9,1
			s-32.5,3.9-35.5,1.5c-1.8-1.5-6.5-7-9.7-12.1c-3.8,0.2-6,0.5-6.4,0.8c-0.1,0.1-0.3,0.2-0.5,0.3l9.2,12.5c0,0-3.9,3.9-5.9,4.4
			S54,48.7,51.5,52.6c0,0-8.8-1.6-12.1-5.4c-3,2.3-5,4.1-5.5,4.6c2.3,0.9,4.4,2.2,5.3,4.3c2.5,5.4-3.4,12.8-5.4,21.7
			s-2.5,11.8-5.4,11.3c-2.1-0.3-8.6-1.2-12.2-2.9c-1.1,2.9-1.8,5.3-1.8,6.7c0,0.9,0.2,2.4,0.4,4.3c3.5-0.3,11.6-0.9,13.1,0.7
			c1,1,3.3,2.7,5.4,4.2c0-2.3,0.2-4.6,0.5-7.1c3.6-33.3,24.5-48,39.5-51.2c63.1-13.5,208.9-8.6,257.2-3
			c36.3,4.2,51.1,32.5,52.7,57.7c0.7-1.9,2.3-4.4,5.7-6.5c4.2-2.6,9.8-5.4,13.6-5C402.6,86.7,402.6,86.5,402.6,86.3z"/>
		<path class="st16" d="M130.4,32.7c2.2,0.5,4.3,0.8,6.4,1c15.3,1.6,28.5-3,31.3-12.5c0,0,0,0,0-0.1c-2.6,0-5.3,0-7.9,0
			c-2.9,3.8-7.9,7.1-16.5,7.1c-10.8,0-17-3-20.4-6.8c-3.7,0-7.2,0.1-10.6,0.1C115.9,25.9,121.2,30.7,130.4,32.7z"/>
		<path class="st16" d="M149.8,21.2c-5.9,0-11.6,0.1-17.1,0.1c1.4,1.2,3.5,2.4,6.4,3.2C144.9,26.1,148.1,24,149.8,21.2z"/>
		<path class="st17" d="M236.8,165.5c-20.5,2-31.1,13.8-34.7,18.9c4.4,0,8.8,0,13.2,0c3.7-12.4,28-15.7,42.7-12.6
			c9.3,1.9,15.2,7.7,18.4,12.1c3.8-0.1,7.5-0.1,11.2-0.2C284.5,176.1,260.1,163.2,236.8,165.5z"/>
		<path class="st17" d="M262.7,184c-1.3-3.9-10.7-8.4-20.4-6.1c-6,1.5-9.8,4.1-12.2,6.3C241.2,184.2,252.1,184.1,262.7,184z"/>
		<path class="st16" d="M392.8,64c-1.5-2.7-2.9-5.3-4.2-7.6c-2.1,0-4.4-0.4-6.8-1.2c-9.4-3.4-16.2-14-15.7-20.4c0,0,0,0,0-0.1
			c-3.3-2.1-6.4-3.8-9.3-5.3c0,3.4,1.4,8.4,6.3,15.1C373,58.2,382.7,65.8,392.8,64z"/>
		<path class="st16" d="M384.4,49.3c-0.7-1.2-1.2-1.9-1.3-2c-3.5-3-7-5.7-10.3-8.1c0,1.7,0.6,4,2.5,6.5
			C378.3,49.9,381.5,50.5,384.4,49.3z"/>
		<path class="st18" d="M56.7,150.9c-11.6-3.1-18.6-0.9-22.5,1.7c1.8,1.4,4.1,3,6.7,4.7c4.7-4.1,10.3-3.9,17.5,0.8
			c7.1,4.7,7.8,11.5,7.6,15.2c3.3,1.9,6.4,3.7,9.2,5.2C77.4,170.9,74.5,155.6,56.7,150.9z"/>
		<path class="st16" d="M255.2,36c4.2-4,12-7.6,20.6-6.8c7.4,0.7,12.6,4.8,15.7,8.4c3.9,0.2,7.6,0.5,11.2,0.7
			c-3.7-7.3-20.4-17.5-38-15c-14.8,2-23,8.4-26.8,12.2C243.8,35.6,249.5,35.8,255.2,36z"/>
		<path class="st16" d="M265.5,37.3c0,0,1.3-5.1,7.2-4.7c6,0.4,10.6,5.1,8.9,6.4C280,40.3,265.5,37.3,265.5,37.3z"/>
		<path class="st16" d="M28.3,61.5c-2.3,4.2-4.9,9.2-7.3,14c0.9,0.4,1.7,1,2.6,1.5c9.2,5.9,2.2,23.7-0.5,27
			c-1.2,1.5-3.8,2.6-6.3,3.4c0.6,2.7,1.2,5.5,1.9,8.5h0.1c9.7-2.7,10.8-12.4,11.9-33.4C31,73.8,29.8,66.8,28.3,61.5z"/>
		<g class="st19">
			<g>
				<g>
					<path class="st20" d="M184,135.1l-0.7-1.3c-4.2-7.5-8.9-15.1-13.8-22.4c-3.6-5.3-7.4-10.5-11.4-15.5V135h-19.8V63.6H154
						l0.7,0.7c2.2,2.2,4.6,4.8,7.2,7.9c2.6,3.1,5.2,6.4,7.9,9.9s5.3,7.2,8,10.9c1,1.4,1.9,2.7,2.8,4.1V63.6h19.9v71.5H184z"/>
					<path class="st21" d="M198,66.1v66.5h-12.6c-4.3-7.6-8.9-15.1-13.9-22.6c-5-7.4-10.3-14.4-15.9-21v43.6h-14.8V66.1H153
						c2.1,2.1,4.4,4.7,7,7.8c2.6,3.1,5.2,6.4,7.8,9.8c2.7,3.5,5.3,7.1,7.9,10.8c2.6,3.7,5.1,7.3,7.4,10.8V66.1H198 M203,61.1h-5
						h-14.9h-5v5v23.2c-2.1-2.9-4.2-5.8-6.3-8.6c-2.7-3.5-5.4-6.9-8-10c-2.6-3.2-5.1-5.9-7.3-8.1l-1.5-1.5h-2h-12.2h-5v5v66.5v5h5
						h14.8h5v-5v-29.3c2.3,3.1,4.6,6.3,6.8,9.6c4.9,7.3,9.5,14.8,13.7,22.2l1.4,2.5h2.9H198h5v-5V66.1V61.1L203,61.1z"/>
				</g>
				<g>
					<path class="st20" d="M243.6,136.5c-4.8,0-9.4-0.8-13.7-2.4c-4.3-1.6-8.2-4-11.4-7.1c-3.2-3.1-5.8-7.1-7.7-11.7
						c-1.8-4.6-2.8-10-2.8-16s1-11.4,2.9-16s4.5-8.6,7.8-11.7c3.3-3.2,7.1-5.6,11.4-7.2c4.3-1.6,8.8-2.4,13.5-2.4
						c4.8,0,9.4,0.8,13.7,2.4c4.3,1.6,8.2,4,11.5,7.2c3.2,3.2,5.8,7.1,7.7,11.8c1.8,4.6,2.8,10,2.8,16s-0.9,11.3-2.7,15.9
						c-1.8,4.6-4.4,8.6-7.5,11.7c-3.2,3.2-7,5.6-11.4,7.1C253.2,135.7,248.5,136.5,243.6,136.5z M243.6,80.2c-2.4,0-4.6,0.4-6.4,1.3
						c-1.8,0.9-3.4,2.1-4.7,3.7s-2.3,3.6-3,6s-1.1,5.1-1.1,8.1s0.4,5.7,1.1,8.1c0.7,2.3,1.7,4.3,3,5.9s2.8,2.8,4.6,3.7
						c1.8,0.9,4,1.3,6.4,1.3s4.5-0.4,6.4-1.3s3.4-2.1,4.7-3.7s2.3-3.6,3-5.9c0.7-2.4,1.1-5.1,1.1-8.1s-0.4-5.7-1.1-8.2
						c-0.7-2.3-1.7-4.3-3-6c-1.3-1.6-2.8-2.8-4.7-3.7C248.1,80.7,246,80.2,243.6,80.2z"/>
					<path class="st21" d="M243.6,64.6c4.5,0,8.8,0.7,12.9,2.2c4,1.5,7.6,3.7,10.6,6.6s5.4,6.6,7.1,10.9s2.6,9.3,2.6,15
						s-0.8,10.7-2.5,15s-4,7.9-7,10.8c-2.9,2.9-6.4,5.1-10.5,6.6s-8.4,2.2-13.1,2.2c-4.5,0-8.8-0.7-12.9-2.2s-7.6-3.7-10.6-6.6
						s-5.4-6.5-7.1-10.8c-1.7-4.3-2.6-9.3-2.6-15s0.9-10.7,2.7-15s4.2-8,7.2-10.9s6.6-5.2,10.6-6.6C235,65.3,239.2,64.6,243.6,64.6
						 M243.6,120.8c2.8,0,5.2-0.5,7.4-1.5s4.1-2.5,5.6-4.4s2.7-4.1,3.5-6.8c0.8-2.6,1.2-5.6,1.2-8.8c0-3.3-0.4-6.2-1.2-8.9
						c-0.8-2.7-2-4.9-3.5-6.8s-3.4-3.3-5.6-4.4c-2.2-1-4.7-1.5-7.4-1.5c-2.8,0-5.3,0.5-7.5,1.6s-4,2.5-5.5,4.4s-2.7,4.2-3.5,6.8
						c-0.8,2.7-1.2,5.6-1.2,8.8c0,3.3,0.4,6.2,1.2,8.8c0.8,2.6,2,4.9,3.5,6.8s3.3,3.3,5.5,4.4C238.3,120.3,240.8,120.8,243.6,120.8
						 M243.6,59.6c-5,0-9.8,0.8-14.3,2.5c-4.6,1.7-8.8,4.3-12.3,7.7c-3.5,3.4-6.3,7.6-8.4,12.6c-2,4.9-3.1,10.6-3.1,16.9
						s1,12,2.9,16.9c2,5,4.8,9.2,8.3,12.6c3.5,3.4,7.6,6,12.3,7.7c4.6,1.7,9.5,2.5,14.6,2.5c5.2,0,10.2-0.8,14.8-2.5
						c4.7-1.7,8.9-4.3,12.3-7.7c3.4-3.4,6.2-7.6,8.1-12.6c1.9-4.9,2.9-10.6,2.9-16.9s-1-12-2.9-16.9c-2-4.9-4.8-9.2-8.2-12.6
						c-3.5-3.4-7.7-6-12.3-7.7C253.6,60.4,248.7,59.6,243.6,59.6L243.6,59.6z M243.6,115.8c-2.1,0-3.9-0.4-5.4-1.1s-2.7-1.7-3.7-3
						c-1.1-1.4-2-3.1-2.6-5.1c-0.7-2.1-1-4.6-1-7.4c0-2.7,0.3-5.2,1-7.3c0.6-2,1.5-3.8,2.6-5.1c1-1.3,2.3-2.3,3.8-3s3.3-1.1,5.3-1.1
						s3.8,0.4,5.3,1.1s2.7,1.7,3.8,2.9c1.1,1.4,2,3.1,2.6,5.1c0.7,2.2,1,4.7,1,7.4c0,2.8-0.3,5.2-1,7.4c-0.6,2-1.5,3.7-2.6,5.1
						c-1,1.3-2.3,2.2-3.8,2.9C247.4,115.5,245.6,115.8,243.6,115.8L243.6,115.8z"/>
				</g>
			</g>
		</g>
		<g>
			<g>
				<path class="st20" d="M185.4,132.6c-4.3-7.6-8.9-15.1-13.9-22.6c-5-7.4-10.3-14.4-15.9-21v43.6h-14.8V66.1H153
					c2.1,2.1,4.4,4.7,7,7.8c2.6,3.1,5.2,6.4,7.8,9.8c2.7,3.5,5.3,7.1,7.9,10.8c2.6,3.7,5.1,7.3,7.4,10.8V66.1H198v66.5H185.4z"/>
				<path class="st20" d="M276.7,99.3c0,5.7-0.8,10.7-2.5,15s-4,7.9-7,10.8c-2.9,2.9-6.4,5.1-10.5,6.6s-8.4,2.2-13.1,2.2
					c-4.5,0-8.8-0.7-12.9-2.2s-7.6-3.7-10.6-6.6s-5.4-6.5-7.1-10.8c-1.7-4.3-2.6-9.3-2.6-15s0.9-10.7,2.7-15s4.2-8,7.2-10.9
					s6.6-5.2,10.6-6.6c4-1.5,8.2-2.2,12.6-2.2c4.5,0,8.8,0.7,12.9,2.2c4,1.5,7.6,3.7,10.6,6.6s5.4,6.6,7.1,10.9
					C275.9,88.6,276.7,93.6,276.7,99.3z M225.9,99.3c0,3.3,0.4,6.2,1.2,8.8c0.8,2.6,2,4.9,3.5,6.8s3.3,3.3,5.5,4.4
					c2.2,1,4.7,1.5,7.5,1.5s5.2-0.5,7.4-1.5s4.1-2.5,5.6-4.4c1.5-1.9,2.7-4.1,3.5-6.8c0.8-2.6,1.2-5.6,1.2-8.8
					c0-3.3-0.4-6.2-1.2-8.9c-0.8-2.7-2-4.9-3.5-6.8s-3.4-3.3-5.6-4.4c-2.2-1-4.7-1.5-7.4-1.5c-2.8,0-5.3,0.5-7.5,1.6s-4,2.5-5.5,4.4
					s-2.7,4.2-3.5,6.8C226.3,93.2,225.9,96.1,225.9,99.3z"/>
			</g>
		</g>
	</g>
</g>
<g id="Layer_2">
	<g>
		<g>
			<path class="st0" d="M1.1,292.5l1.6-25l29-43.4c0,0,27.7-21.8,46.6-21.8s256.1-5.8,270.7-1.5c14.6,4.4,45.1,34.9,45.1,34.9
				s18.9,43.7,16,55.3C407.2,302.7,1.1,292.5,1.1,292.5z"/>
			<path class="st1" d="M0,283.7l1.1,8.9l6.6,39.6c84.5,0.3,240.7,0.7,400.8,0.8c2.4-13.6,6.2-39.9,2.1-49.9
				C405.1,269.4,0,283.7,0,283.7z"/>
			<path class="st2" d="M78.3,202.3c18.9,0,256.1-5.8,270.7-1.5c14.6,4.4,45.1,34.9,45.1,34.9s9.8,22.7,14.2,39.7h0.6
				c0,0-8-34.1-8.5-39.2c-0.6-5.1-9.1-15.3-21.6-24.4c-12.5-9.1-21.6-18.2-36.9-18.7c-15.4-0.5-209.7-5.1-256.8,1.2
				C37.9,200.5,34.5,213,27.7,217c-6,3.5-20.6,39.5-24.2,48.5c-0.5,1.3-0.8,2.1-0.8,2.1l29-43.4C31.7,224.1,59.3,202.3,78.3,202.3z"
				/>
		</g>
		<path class="st3" d="M335.1,218c0,0-261.2-1.4-266.3,2.2c-3.5,2.5-35.6,26.5-37,28.3c-1.5,1.9-19.8,33.7-19.8,41.1
			c0,7.4,10,51.1,15.7,56.3c5.7,5.3,45.4,31.1,55.4,33.4c10,2.4,259.7,2.8,270-2.2s40.9-33.9,46-42.9s6.6-43.4,5.7-51.3
			c-0.9-7.9-19-38.3-19.7-39C357.5,220.6,335.1,218,335.1,218z"/>
		
			<linearGradient id="SVGID_5_" gradientUnits="userSpaceOnUse" x1="209.1817" y1="-579.7275" x2="208.1118" y2="-395.6934" gradientTransform="matrix(1 0 0 -1 0 -192.0239)">
			<stop  offset="0" style="stop-color:#5C594A"/>
			<stop  offset="1" style="stop-color:#9E8080"/>
		</linearGradient>
		<path class="st22" d="M333.6,212.3c0,0-258.1-1.4-263.1,2.2C67,217,35.3,241,33.9,242.8c-1.4,1.8-19.5,33.7-19.5,41.1
			s9.9,51.1,15.5,56.3c5.6,5.3,44.9,31.1,54.8,33.4c9.9,2.4,256.6,2.8,266.8-2.2s40.4-33.9,45.4-42.9c5.1-9,6.5-43.4,5.6-51.3
			c-0.8-7.9-18.7-38.3-19.5-39C355.7,214.8,333.6,212.3,333.6,212.3z"/>
		<path class="st5" d="M66,290c9.8,0,312.7-9.1,312.7-9.1s12.2-3.6,23-6.8c-3.7-10.8-18-35.1-18.7-35.7
			c-27.4-23.5-49.5-26.1-49.5-26.1s-258-1.4-263,2.2C67,217,35.3,241,33.9,242.8c-1.3,1.7-16.7,28.8-19.2,38.9
			C26.1,283.9,57.9,290,66,290z"/>
		<path class="st5" d="M365.1,252.9l17.8-14.7c-27.3-23.3-49.3-25.9-49.3-25.9s-258.1-1.4-263.1,2.2c-3,2.1-27.3,20.5-34.6,26.5
			c5.3,3.2,11.4,6.3,17.2,8.1C68.3,253.6,365.1,252.9,365.1,252.9z"/>
		<path class="st6" d="M365.1,321c0,0-296.1-6.8-302.1-5.3c-4.9,1.2-25.9,17.1-34,23.3c0.3,0.5,0.6,0.9,0.9,1.2
			c5.6,5.3,44.9,31.1,54.8,33.4c9.9,2.4,256.6,2.8,266.8-2.2c9.6-4.7,37-30.7,44.3-41.1L365.1,321z"/>
		<path class="st6" d="M84.7,373.6c9.6,2.3,243.2,2.8,265.4-1.8c-7.1-16.7-22.1-35.7-22.1-35.7s-201.4-11.4-215.8-3.8
			c-10.9,5.7-23.1,29.7-28.4,41C84.1,373.5,84.4,373.6,84.7,373.6z"/>
		<path class="st1" d="M73.4,234.7c-15,3.2-35.9,18-39.5,51.2c-3.6,33.3,13,53.2,60.6,59.1c58.9,7.2,235.6,0.3,237.2,0.3
			c1.5,0,41.1-6.2,49.3-33.1c8.2-26.9-2.1-75.1-50.3-80.6C282.3,226.2,136.5,221.2,73.4,234.7z"/>
		
			<radialGradient id="SVGID_6_" cx="218.3017" cy="-18682.0684" r="186.676" gradientTransform="matrix(0.9912 -7.300000e-03 0 -0.3345 -9.9686 -5973.1021)" gradientUnits="userSpaceOnUse">
			<stop  offset="0" style="stop-color:#F0804F"/>
			<stop  offset="0.1724" style="stop-color:#EE7C4E"/>
			<stop  offset="0.345" style="stop-color:#E7704A"/>
			<stop  offset="0.5178" style="stop-color:#DB5C44"/>
			<stop  offset="0.6908" style="stop-color:#CB403C"/>
			<stop  offset="0.8623" style="stop-color:#B61C31"/>
			<stop  offset="0.9749" style="stop-color:#A60029"/>
		</radialGradient>
		<path class="st23" d="M78.2,238.3c-14.4,3-34.6,16.7-38.1,47.7s12.6,49.6,58.4,55c56.8,6.7,227.2,0.3,228.7,0.3
			s39.6-5.8,47.5-30.8s-2-69.9-48.5-75C279.7,230.3,139,225.7,78.2,238.3z"/>
		<path class="st24" d="M78.2,238.3c-14.4,3-34.6,16.7-38.1,47.7s12.6,49.6,58.4,55c56.8,6.7,227.2,0.3,228.7,0.3
			s39.6-5.8,47.5-30.8s-2-69.9-48.5-75C279.7,230.3,139,225.7,78.2,238.3z"/>
		
			<linearGradient id="SVGID_7_" gradientUnits="userSpaceOnUse" x1="210.4818" y1="-403.5209" x2="212.7527" y2="-520.8525" gradientTransform="matrix(1 0 0 -1 0 -192.0239)">
			<stop  offset="0" style="stop-color:#FFFFFF"/>
			<stop  offset="1" style="stop-color:#EB3B24"/>
		</linearGradient>
		<path class="st25" d="M324.3,238.7c-46.2-5.1-185.9-9.8-246.3,2.8c-9,1.9-20.4,8.1-28.4,20.1c-2.1,7.4-0.2,13.6,10.2,15.6
			c31.6,6.1,56.4-19.7,142.1-22.7c79.3-2.8,156.8,15.2,172.6,48.5C377.1,277.6,364.4,243.2,324.3,238.7z"/>
		<path class="st26" d="M208.4,240.7c0,0-70.4,1.5-65.1,20.4c5.3,18.9,96.2,15.9,120.4,31.8s68.9,15.9,84.1,1.5
			C362.8,280.1,353.7,237,208.4,240.7z"/>
		
			<linearGradient id="SVGID_8_" gradientUnits="userSpaceOnUse" x1="207.6" y1="-467.5714" x2="207.6" y2="-572.0732" gradientTransform="matrix(1 0 0 -1 0 -192.0239)">
			<stop  offset="1.807230e-02" style="stop-color:#AB240F"/>
			<stop  offset="1" style="stop-color:#5C140F"/>
		</linearGradient>
		<path class="st27" d="M327.2,341.4c1.5,0,39.6-5.8,47.5-30.8c0.3-1,0.6-2,0.8-3c-35.8,23.3-81.8,6.9-124.8-4
			c-47.7-12.1-159,12.1-187.8,8.3c-10.9-1.4-18.3-7.2-23.2-13.7c1.8,23.7,19.2,38.1,58.7,42.8C155.3,347.8,325.7,341.4,327.2,341.4z
			"/>
		<path class="st11" d="M198.5,238.5c0,0-39.4,0-23.5,5.3c15.9,5.3,49.2,12.1,65.1,6.1C256.1,243.8,228.8,235.4,198.5,238.5z"/>
		<path class="st11" d="M272.7,241.5c0,0-17.4,1.5-10.6,7.6c6.8,6.1,29.5,6.8,35.6,6.1C303.8,254.4,303,240,272.7,241.5z"/>
		<path class="st12" d="M327.2,341.4c0.5,0,5.6-0.7,12.2-2.7c-24-0.4-52.8-6.5-81.1-13.1c-39.4-9.1-93.1-7.6-138.6,3.8
			C99,334.5,81.2,335,68,333.9c8.2,3.3,18.3,5.7,30.5,7.1C155.3,347.8,325.7,341.4,327.2,341.4z"/>
		<path class="st13" d="M337.1,333.1c-31.8,4.5-129.5,3.8-178.7,3.8S73.6,334.6,53.9,321c-9-6.2-12.8-17.1-14.2-27
			c0.1,26.2,17.1,42.1,58.9,47.1c56.8,6.7,227.2,0.3,228.7,0.3s39.6-5.8,47.5-30.8c0.4-1.2,0.7-2.5,1-3.9
			C367,318.7,353.7,330.8,337.1,333.1z"/>
		<path class="st14" d="M384,321.2c-1-2.2-2.1-6.7-2.5-11.2c-0.2,0.8-0.4,1.6-0.6,2.3c-8.2,26.9-47.7,33.1-49.3,33.1
			c-1.5,0-178.3,6.9-237.2-0.3c-38.4-4.7-56.6-18.6-60.3-41.2c0.3,3.8,1.3,10.7,3.7,14.9c3.5,6-1.8,11-3.9,11.7
			c-1.2,0.4-5,1.4-7.9,2.2c1.4,3.8,2.8,6.5,4,7.6c0.5,0.5,1.3,1.1,2.3,1.9c1.7-4.4,4.8-10.2,9.8-11c8.1-1.4,11.3,8.5,30.1,12.7
			c18.7,4.2,21.2,5.3,20.2,8.5c-0.9,2.7-6.5,15.7-10.1,20.5c1,0.4,1.8,0.7,2.5,0.9c0.7,0.2,2.4,0.3,5.1,0.5
			c1.8-7,6.6-23.9,11.7-23.9c6.4,0,74.6,2.1,100.4,2.5s112.8-1.8,120.9-1.8s18,6.7,19.5,13.1c0.7,3.2,0.3,6.4-0.4,8.8
			c5.2-0.4,8.5-0.8,9.5-1.3c1.3-0.6,2.8-1.6,4.6-2.9c-3.9-3.8-12.7-13-11.3-17.7c1.8-6,2.5-5.3,14.9-11.7s15.2-10.6,20.9-10.6
			c3.7,0,8,3.8,10.5,7.7c2.8-3.2,4.9-5.9,6-7.7c0.6-1.1,1.2-2.6,1.7-4.4C394.5,323.8,385.1,323.6,384,321.2z"/>
		<path class="st15" d="M402.6,277.3c-0.2-1.7-1.2-4.5-2.6-7.7c-5,3.9-13.5,9-16.9,1.6c-4.9-10.8-11.8-17.7-9.4-20.7
			c2-2.3,7-7.5,11-9.5c-0.9-1.5-1.5-2.5-1.7-2.6c-1.1-0.9-2.2-1.8-3.3-2.7c-3.7,4-9.8,9.5-13.9,7.9c-6.4-2.5-22.2-13.3-29.6-14.8
			c-5.6-1.1-0.1-9.4,4.6-14.8c-3.5-1.1-5.9-1.5-6.8-1.6c-0.3,3.9-1.5,8.3-5.1,11c-7.9,5.9-29.1,1.5-64,0c-35-1.5-134,1-142.9,1
			s-32.5,3.9-35.5,1.5c-1.8-1.5-6.5-7-9.7-12.1c-3.8,0.2-6,0.5-6.4,0.8c-0.1,0.1-0.3,0.2-0.5,0.3l9.2,12.5c0,0-3.9,3.9-5.9,4.4
			s-19.2,7.9-21.7,11.8c0,0-8.8-1.6-12.1-5.4c-3,2.3-5,4.1-5.5,4.6c2.3,0.9,4.4,2.2,5.3,4.3c2.5,5.4-3.4,12.8-5.4,21.7
			s-2.5,11.8-5.4,11.3c-2.1-0.3-8.6-1.2-12.2-2.9c-1.1,2.9-1.8,5.3-1.8,6.7c0,0.9,0.2,2.4,0.4,4.3c3.5-0.3,11.6-0.9,13.1,0.7
			c1,1,3.3,2.7,5.4,4.2c0-2.3,0.2-4.6,0.5-7.1c3.6-33.3,24.5-48,39.5-51.2c63.1-13.5,208.9-8.6,257.2-3
			c36.3,4.2,51.1,32.5,52.7,57.7c0.7-1.9,2.3-4.4,5.7-6.5c4.2-2.6,9.8-5.4,13.6-5C402.6,277.7,402.6,277.5,402.6,277.3z"/>
		<path class="st16" d="M130.4,223.7c2.2,0.5,4.3,0.8,6.4,1c15.3,1.6,28.5-3,31.3-12.5c0,0,0,0,0-0.1c-2.6,0-5.3,0-7.9,0
			c-2.9,3.8-7.9,7.1-16.5,7.1c-10.8,0-17-3-20.4-6.8c-3.7,0-7.2,0.1-10.6,0.1C115.9,216.9,121.2,221.7,130.4,223.7z"/>
		<path class="st16" d="M149.8,212.2c-5.9,0-11.6,0.1-17.1,0.1c1.4,1.2,3.5,2.4,6.4,3.2C144.9,217.1,148.1,215,149.8,212.2z"/>
		<path class="st17" d="M236.8,356.5c-20.5,2-31.1,13.8-34.7,18.9c4.4,0,8.8,0,13.2,0c3.7-12.4,28-15.7,42.7-12.6
			c9.3,1.9,15.2,7.7,18.4,12.1c3.8-0.1,7.5-0.1,11.2-0.2C284.5,367.1,260.1,354.2,236.8,356.5z"/>
		<path class="st17" d="M262.7,375c-1.3-3.9-10.7-8.4-20.4-6.1c-6,1.5-9.8,4.1-12.2,6.3C241.2,375.2,252.1,375.1,262.7,375z"/>
		<path class="st16" d="M392.8,255c-1.5-2.7-2.9-5.3-4.2-7.6c-2.1,0-4.4-0.4-6.8-1.2c-9.4-3.4-16.2-14-15.7-20.4c0,0,0,0,0-0.1
			c-3.3-2.1-6.4-3.8-9.3-5.3c0,3.4,1.4,8.4,6.3,15.1C373,249.2,382.7,256.8,392.8,255z"/>
		<path class="st16" d="M384.4,240.3c-0.7-1.2-1.2-1.9-1.3-2c-3.5-3-7-5.7-10.3-8.1c0,1.7,0.6,4,2.5,6.5
			C378.3,240.9,381.5,241.5,384.4,240.3z"/>
		<path class="st18" d="M56.7,341.9c-11.6-3.1-18.6-0.9-22.5,1.7c1.8,1.4,4.1,3,6.7,4.7c4.7-4.1,10.3-3.9,17.5,0.8
			c7.1,4.7,7.8,11.5,7.6,15.2c3.3,1.9,6.4,3.7,9.2,5.2C77.4,361.9,74.5,346.6,56.7,341.9z"/>
		<path class="st16" d="M255.2,227c4.2-4,12-7.6,20.6-6.8c7.4,0.7,12.6,4.8,15.7,8.4c3.9,0.2,7.6,0.5,11.2,0.7
			c-3.7-7.3-20.4-17.5-38-15c-14.8,2-23,8.4-26.8,12.2C243.8,226.6,249.5,226.8,255.2,227z"/>
		<path class="st16" d="M265.5,228.3c0,0,1.3-5.1,7.2-4.7c6,0.4,10.6,5.1,8.9,6.4C280,231.3,265.5,228.3,265.5,228.3z"/>
		<path class="st16" d="M28.3,252.5c-2.3,4.2-4.9,9.2-7.3,14c0.9,0.4,1.7,1,2.6,1.5c9.2,5.9,2.2,23.7-0.5,27
			c-1.2,1.5-3.8,2.6-6.3,3.4c0.6,2.7,1.2,5.5,1.9,8.5h0.1c9.7-2.7,10.8-12.4,11.9-33.4C31,264.8,29.8,257.8,28.3,252.5z"/>
		<g class="st19">
			<g>
				<g>
					<path class="st20" d="M184,326.1l-0.7-1.3c-4.2-7.5-8.9-15.1-13.8-22.4c-3.6-5.3-7.4-10.5-11.4-15.5V326h-19.8v-71.4H154
						l0.7,0.7c2.2,2.2,4.6,4.8,7.2,7.9c2.6,3.1,5.2,6.4,7.9,9.9s5.3,7.2,8,10.9c1,1.4,1.9,2.7,2.8,4.1v-33.5h19.9v71.5H184z"/>
					<path class="st21" d="M198,257.1v66.5h-12.6c-4.3-7.6-8.9-15.1-13.9-22.6c-5-7.4-10.3-14.4-15.9-21v43.6h-14.8v-66.5H153
						c2.1,2.1,4.4,4.7,7,7.8s5.2,6.4,7.8,9.8c2.7,3.5,5.3,7.1,7.9,10.8c2.6,3.7,5.1,7.3,7.4,10.8v-39.2H198 M203,252.1h-5h-14.9h-5
						v5v23.2c-2.1-2.9-4.2-5.8-6.3-8.6c-2.7-3.5-5.4-6.9-8-10c-2.6-3.2-5.1-5.9-7.3-8.1l-1.5-1.5h-2h-12.2h-5v5v66.5v5h5h14.8h5v-5
						v-29.3c2.3,3.1,4.6,6.3,6.8,9.6c4.9,7.3,9.5,14.8,13.7,22.2l1.4,2.5h2.9H198h5v-5v-66.5V252.1L203,252.1z"/>
				</g>
				<g>
					<path class="st20" d="M243.6,327.5c-4.8,0-9.4-0.8-13.7-2.4c-4.3-1.6-8.2-4-11.4-7.1s-5.8-7.1-7.7-11.7c-1.8-4.6-2.8-10-2.8-16
						s1-11.4,2.9-16c1.9-4.6,4.5-8.6,7.8-11.7c3.3-3.2,7.1-5.6,11.4-7.2c4.3-1.6,8.8-2.4,13.5-2.4c4.8,0,9.4,0.8,13.7,2.4
						c4.3,1.6,8.2,4,11.5,7.2c3.2,3.2,5.8,7.1,7.7,11.8c1.8,4.6,2.8,10,2.8,16s-0.9,11.3-2.7,15.9c-1.8,4.6-4.4,8.6-7.5,11.7
						c-3.2,3.2-7,5.6-11.4,7.1C253.2,326.7,248.5,327.5,243.6,327.5z M243.6,271.2c-2.4,0-4.6,0.4-6.4,1.3c-1.8,0.9-3.4,2.1-4.7,3.7
						c-1.3,1.6-2.3,3.6-3,6c-0.7,2.4-1.1,5.1-1.1,8.1s0.4,5.7,1.1,8.1c0.7,2.3,1.7,4.3,3,5.9s2.8,2.8,4.6,3.7s4,1.3,6.4,1.3
						s4.5-0.4,6.4-1.3c1.9-0.9,3.4-2.1,4.7-3.7s2.3-3.6,3-5.9c0.7-2.4,1.1-5.1,1.1-8.1s-0.4-5.7-1.1-8.2c-0.7-2.3-1.7-4.3-3-6
						c-1.3-1.6-2.8-2.8-4.7-3.7C248.1,271.7,246,271.2,243.6,271.2z"/>
					<path class="st21" d="M243.6,255.6c4.5,0,8.8,0.7,12.9,2.2c4,1.5,7.6,3.7,10.6,6.6s5.4,6.6,7.1,10.9c1.7,4.3,2.6,9.3,2.6,15
						c0,5.7-0.8,10.7-2.5,15c-1.7,4.3-4,7.9-7,10.8c-2.9,2.9-6.4,5.1-10.5,6.6s-8.4,2.2-13.1,2.2c-4.5,0-8.8-0.7-12.9-2.2
						s-7.6-3.7-10.6-6.6c-3-2.9-5.4-6.5-7.1-10.8c-1.7-4.3-2.6-9.3-2.6-15c0-5.7,0.9-10.7,2.7-15c1.8-4.3,4.2-8,7.2-10.9
						s6.6-5.2,10.6-6.6C235,256.3,239.2,255.6,243.6,255.6 M243.6,311.8c2.8,0,5.2-0.5,7.4-1.5s4.1-2.5,5.6-4.4s2.7-4.1,3.5-6.8
						c0.8-2.6,1.2-5.6,1.2-8.8c0-3.3-0.4-6.2-1.2-8.9c-0.8-2.7-2-4.9-3.5-6.8c-1.5-1.9-3.4-3.3-5.6-4.4c-2.2-1-4.7-1.5-7.4-1.5
						c-2.8,0-5.3,0.5-7.5,1.6s-4,2.5-5.5,4.4s-2.7,4.2-3.5,6.8c-0.8,2.7-1.2,5.6-1.2,8.8c0,3.3,0.4,6.2,1.2,8.8
						c0.8,2.6,2,4.9,3.5,6.8s3.3,3.3,5.5,4.4C238.3,311.3,240.8,311.8,243.6,311.8 M243.6,250.6c-5,0-9.8,0.8-14.3,2.5
						c-4.6,1.7-8.8,4.3-12.3,7.7s-6.3,7.6-8.4,12.6c-2,4.9-3.1,10.6-3.1,16.9c0,6.3,1,12,2.9,16.9c2,5,4.8,9.2,8.3,12.6
						s7.6,6,12.3,7.7c4.6,1.7,9.5,2.5,14.6,2.5c5.2,0,10.2-0.8,14.8-2.5c4.7-1.7,8.9-4.3,12.3-7.7s6.2-7.6,8.1-12.6
						c1.9-4.9,2.9-10.6,2.9-16.9c0-6.3-1-12-2.9-16.9c-2-4.9-4.8-9.2-8.2-12.6c-3.5-3.4-7.7-6-12.3-7.7
						C253.6,251.4,248.7,250.6,243.6,250.6L243.6,250.6z M243.6,306.8c-2.1,0-3.9-0.4-5.4-1.1c-1.5-0.7-2.7-1.7-3.7-3
						c-1.1-1.4-2-3.1-2.6-5.1c-0.7-2.1-1-4.6-1-7.4c0-2.7,0.3-5.2,1-7.3c0.6-2,1.5-3.8,2.6-5.1c1-1.3,2.3-2.3,3.8-3
						c1.5-0.7,3.3-1.1,5.3-1.1s3.8,0.4,5.3,1.1c1.5,0.7,2.7,1.7,3.8,2.9c1.1,1.4,2,3.1,2.6,5.1c0.7,2.2,1,4.7,1,7.4
						c0,2.8-0.3,5.2-1,7.4c-0.6,2-1.5,3.7-2.6,5.1c-1,1.3-2.3,2.2-3.8,2.9C247.4,306.5,245.6,306.8,243.6,306.8L243.6,306.8z"/>
				</g>
			</g>
		</g>
		<g>
			<g>
				<path class="st28" d="M185.4,323.6c-4.3-7.6-8.9-15.1-13.9-22.6c-5-7.4-10.3-14.4-15.9-21v43.6h-14.8v-66.5H153
					c2.1,2.1,4.4,4.7,7,7.8s5.2,6.4,7.8,9.8c2.7,3.5,5.3,7.1,7.9,10.8c2.6,3.7,5.1,7.3,7.4,10.8v-39.2H198v66.5H185.4z"/>
				<path class="st28" d="M276.7,290.3c0,5.7-0.8,10.7-2.5,15c-1.7,4.3-4,7.9-7,10.8c-2.9,2.9-6.4,5.1-10.5,6.6s-8.4,2.2-13.1,2.2
					c-4.5,0-8.8-0.7-12.9-2.2s-7.6-3.7-10.6-6.6s-5.4-6.5-7.1-10.8c-1.7-4.3-2.6-9.3-2.6-15c0-5.7,0.9-10.7,2.7-15
					c1.8-4.3,4.2-8,7.2-10.9c3-2.9,6.6-5.2,10.6-6.6c4-1.5,8.2-2.2,12.6-2.2c4.5,0,8.8,0.7,12.9,2.2c4,1.5,7.6,3.7,10.6,6.6
					c3,2.9,5.4,6.6,7.1,10.9C275.9,279.6,276.7,284.6,276.7,290.3z M225.9,290.3c0,3.3,0.4,6.2,1.2,8.8s2,4.9,3.5,6.8
					c1.5,1.9,3.3,3.3,5.5,4.4c2.2,1,4.7,1.5,7.5,1.5s5.2-0.5,7.4-1.5s4.1-2.5,5.6-4.4c1.5-1.9,2.7-4.1,3.5-6.8
					c0.8-2.6,1.2-5.6,1.2-8.8c0-3.3-0.4-6.2-1.2-8.9c-0.8-2.7-2-4.9-3.5-6.8c-1.5-1.9-3.4-3.3-5.6-4.4c-2.2-1-4.7-1.5-7.4-1.5
					c-2.8,0-5.3,0.5-7.5,1.6s-4,2.5-5.5,4.4c-1.5,1.9-2.7,4.2-3.5,6.8C226.3,284.2,225.9,287.1,225.9,290.3z"/>
			</g>
		</g>
	</g>
</g>
</svg>
